<?xml version="1.0" encoding="UTF-8"?>
<svg version="1.1" xmlns="http://www.w3.org/2000/svg" width="502" height="497">
<path d="M0 0 C2.59765625 1.7578125 2.59765625 1.7578125 5.0625 4.125 C5.91714844 4.94355469 6.77179688 5.76210938 7.65234375 6.60546875 C15 14.09983361 15 14.09983361 15 17 C15.66 17 16.32 17 17 17 C18.49877503 18.65483608 19.92488473 20.37590512 21.3125 22.125 C22.51132812 23.62353516 22.51132812 23.62353516 23.734375 25.15234375 C24.48203125 26.09207031 25.2296875 27.03179687 26 28 C27.01622048 29.2329831 28.03584857 30.46318867 29.0625 31.6875 C29.701875 32.450625 30.34125 33.21375 31 34 C35.08265387 33.41075575 37.95792164 32.08208056 41.4921875 29.98046875 C42.52730469 29.37009766 43.56242188 28.75972656 44.62890625 28.13085938 C45.70011719 27.48955078 46.77132812 26.84824219 47.875 26.1875 C49.99730589 24.93083767 52.11969949 23.67432345 54.2421875 22.41796875 C58.22217375 20.05843132 58.22217375 20.05843132 62.18994141 17.6784668 C66.39081167 15.18590588 69.06896798 14.17816133 74 15 C77.44592744 17.47207838 78.7820887 19.00164427 79.69067383 23.16430664 C80.0277966 27.34468225 79.67928927 31.18531708 79.07421875 35.30859375 C78.85293416 36.94454548 78.63191661 38.58053334 78.41113281 40.21655273 C78.29274048 41.06853241 78.17434814 41.92051208 78.05236816 42.79830933 C75.6057129 60.49563232 74.05038574 78.07647769 73.19726562 95.91748047 C73.02020602 98.68425598 72.7097479 101.38445736 72.328125 104.12890625 C72.00205007 107.97581407 72.02750391 108.91426065 74 112 C76.61554754 113.56233317 76.61554754 113.56233317 79.625 114.75 C80.62789062 115.17796875 81.63078125 115.6059375 82.6640625 116.046875 C83.43492187 116.36140625 84.20578125 116.6759375 85 117 C85 117.66 85 118.32 85 119 C85.66 119 86.32 119 87 119 C87 119.66 87 120.32 87 121 C87.66 121 88.32 121 89 121 C89 121.66 89 122.32 89 123 C89.66 123 90.32 123 91 123 C97.23520093 132.63115857 98.33521054 140.77517916 97 152 C95.54957317 157.03986696 92.5736794 161.18807531 89 165 C88.34 165 87.68 165 87 165 C87 165.66 87 166.32 87 167 C76.66678599 172.96815538 76.66678599 172.96815538 71 174.3125 C67.85592533 175.25972996 67.85592533 175.25972996 65.98828125 177.828125 C65.52596099 179.35672148 65.11126123 180.90031041 64.73828125 182.453125 C63.01298803 188.40493018 58.97974293 194.27405527 55 199 C54.34 199 53.68 199 53 199 C54.60363229 202.20726458 58.00182176 202.77832504 61.1875 204.0625 C71.23104867 208.27175363 80.79350752 213.76793334 89 221 C89 221.66 89 222.32 89 223 C89.66 223 90.32 223 91 223 C92.80162529 225.02303716 94.47255723 227.0469244 96.125 229.1875 C96.61564941 229.81954346 97.10629883 230.45158691 97.61181641 231.1027832 C112.9003751 251.10950975 120.52884339 273.21311498 123.73364258 298.00292969 C123.97471039 299.81038587 124.26573298 301.61100621 124.5625 303.41015625 C127.04426049 323.77388739 125.03829683 344.8867349 113 362 C111.88984491 363.18080133 110.76562975 364.34860959 109.625 365.5 C106.4586737 369.04270263 106.67860241 371.72001801 106.80474854 376.30645752 C107.10559731 380.4567412 107.82960435 384.45447564 108.6796875 388.5234375 C108.85251251 389.39086578 109.02533752 390.25829407 109.20339966 391.15200806 C109.75163299 393.89490115 110.31275199 396.63494897 110.875 399.375 C111.60482594 402.98632486 112.33002999 406.59857233 113.0546875 410.2109375 C113.22823761 411.0741864 113.40178772 411.9374353 113.58059692 412.82684326 C117.27883901 431.30712072 117.27883901 431.30712072 117.375 439 C117.40335938 440.051875 117.43171875 441.10375 117.4609375 442.1875 C116.85453775 445.88756624 116.02991438 446.78980456 113 449 C109.94436938 449.60069367 106.92677694 449.5437531 103.82093811 449.5146637 C102.8818312 449.52160922 101.94272428 449.52855475 100.97515959 449.53571075 C97.82052086 449.55404345 94.66662883 449.54369884 91.51196289 449.53344727 C89.25349869 449.54050256 86.99503922 449.54924592 84.73658752 449.55955505 C78.59611149 449.58210252 72.45589255 449.57909671 66.31539083 449.57023358 C61.19338199 449.5651321 56.07142183 449.57240944 50.94941801 449.57970566 C38.17713337 449.59769529 25.40502903 449.59127664 12.63275992 449.57353585 C1.53973072 449.55884012 -9.55302759 449.57346454 -20.6460219 449.60230602 C-32.03560458 449.63169813 -43.42502741 449.6421645 -54.81465918 449.63312382 C-61.20936792 449.62818735 -67.60386607 449.6304493 -73.99854851 449.65091133 C-80.01097731 449.66922827 -86.02290165 449.66335805 -92.03530312 449.63871193 C-94.24401979 449.63369146 -96.45277463 449.63722562 -98.66146088 449.64986038 C-101.6728768 449.66572645 -104.68261845 449.65090019 -107.69395447 449.62818909 C-108.57157989 449.64002482 -109.44920531 449.65186054 -110.35342544 449.66405493 C-114.6936296 449.5973847 -116.48486517 449.38742264 -120.05819035 446.69999599 C-122.70179294 443.02418956 -122.44287796 440.05867714 -122 435.75 C-121.95488281 435.05648438 -121.90976563 434.36296875 -121.86328125 433.6484375 C-121.27009025 426.13468478 -119.76674179 418.73360026 -118.42016602 411.32684326 C-117.29162555 405.0770832 -116.22033913 398.81723801 -115.15527344 392.55639648 C-114.88101835 390.95332595 -114.60358321 389.35079675 -114.32324219 387.7487793 C-113.91091694 385.38975757 -113.50906158 383.0291603 -113.109375 380.66796875 C-112.9823822 379.95448776 -112.8553894 379.24100677 -112.72454834 378.50590515 C-112.15755337 375.09125106 -111.69854604 372.27015583 -113 369 C-114.18920739 367.38249019 -114.18920739 367.38249019 -115.6875 365.875 C-129.46783358 350.31016279 -131.95793105 330.11655209 -131 310 C-129.30646009 284.45577306 -122.86183309 254.11230693 -106 234 C-105.34 234 -104.68 234 -104 234 C-103.7421875 233.42765625 -103.484375 232.8553125 -103.21875 232.265625 C-94.56334239 216.17544418 -75.41918365 206.74671428 -59 201 C-59.35191406 200.58492187 -59.70382813 200.16984375 -60.06640625 199.7421875 C-65.65102434 192.77235082 -70.17092819 184.48721543 -73 176 C-75.81196076 174.6638739 -75.81196076 174.6638739 -79.1875 173.5625 C-89.66215439 169.72751725 -96.83486198 164.08610588 -102 154 C-104.95717135 146.76002876 -104.22507483 139.19888788 -101.8125 131.875 C-97.97089636 122.82629379 -91.73847905 117.38831917 -83 113 C-80.16015625 112.30859375 -80.16015625 112.30859375 -78 112 C-76.95785309 107.38492226 -76.95785309 107.38492226 -78 103 C-78.27402908 100.19134246 -78.497043 97.39676159 -78.68359375 94.58203125 C-78.77423851 93.30787605 -78.77423851 93.30787605 -78.86671448 92.00798035 C-79.12504069 88.37628364 -79.37376438 84.74394938 -79.62231445 81.11157227 C-80.38892393 69.99827335 -81.40512175 59.02920299 -83 48 C-83.77338406 42.01076996 -84.43411898 36.01230018 -85 30 C-85.09925781 28.948125 -85.19851562 27.89625 -85.30078125 26.8125 C-85.52576984 22.49271912 -85.38186829 20.59666921 -83 16.875 C-79.17687681 14.485548 -76.33772379 14.13909105 -72 15 C-67.78622497 16.88550089 -63.92028688 19.25915398 -60 21.6875 C-58.43765625 22.62625977 -58.43765625 22.62625977 -56.84375 23.58398438 C-48.88835864 28.38032197 -48.88835864 28.38032197 -45.64453125 30.64306641 C-41.84780586 33.41621199 -41.84780586 33.41621199 -37.34765625 33.703125 C-34.21842531 31.43300073 -31.8551255 28.7304355 -29.4375 25.75 C-28.38292199 24.48688775 -27.32823108 23.22386975 -26.2734375 21.9609375 C-25.73557617 21.30963867 -25.19771484 20.65833984 -24.64355469 19.98730469 C-21.97554789 16.7612834 -19.27255748 13.56570277 -16.5625 10.375 C-16.079021 9.79588867 -15.59554199 9.21677734 -15.09741211 8.62011719 C-6.81618224 -1.15228048 -6.81618224 -1.15228048 0 0 Z " fill="#8A4B04" transform="translate(253,28)"/>
<path d="M0 0 C0.680625 0.928125 0.680625 0.928125 1.375 1.875 C2.97108919 4.05919833 2.97108919 4.05919833 5 6 C5.99 6 6.98 6 8 6 C8 5.34 8 4.68 8 4 C9.32 4 10.64 4 12 4 C12 4.99 12 5.98 12 7 C12.556875 6.7525 13.11375 6.505 13.6875 6.25 C16 6 16 6 18.375 7.6640625 C20.99534422 9.99585691 23.13580614 12.37851246 25.3125 15.125 C26.00988281 15.99382812 26.70726562 16.86265625 27.42578125 17.7578125 C29 20 29 20 29 22 C29.5775 22.020625 30.155 22.04125 30.75 22.0625 C34.42933295 23.59555539 35.27283347 26.48398243 37 30 C37 30.66 37 31.32 37 32 C37.66 32.33 38.32 32.66 39 33 C38.01 33.99 37.02 34.98 36 36 C33.03 35.01 30.06 34.02 27 33 C28.00805614 37.03222456 28.74262277 38.17800328 31.4375 41.125 C32.05496094 41.80820313 32.67242187 42.49140625 33.30859375 43.1953125 C35.12741433 45.13594785 36.86925188 46.90193891 39 48.5 C41 50 41 50 43 52 C42.875 54.5 42.875 54.5 42 57 C40.3125 58.4375 40.3125 58.4375 38 59 C33.45475756 58.03292714 30.37185418 56.17350981 27 53 C27 52.34 27 51.68 27 51 C26.34 51 25.68 51 25 51 C24.505 51.99 24.505 51.99 24 53 C13 39.77909739 13 39.77909739 13 34 C-12.26331727 45.76603736 -28.04261977 61.34463772 -38.3359375 87.37890625 C-46.78944808 110.71571879 -51.77307132 140.55446695 -42.7109375 164.390625 C-33.97565327 182.98229946 -15.0998226 193.89001939 3.5 201.0625 C5.32860672 201.72159732 7.16012174 202.37305518 9 203 C5.06204091 204.22419163 2.83887763 203.48320272 -1 202 C-1.433125 202.66 -1.86625 203.32 -2.3125 204 C-3.1478125 204.99 -3.1478125 204.99 -4 206 C-4.99 206 -5.98 206 -7 206 C-7.33 206.99 -7.66 207.98 -8 209 C-12.4307838 208.3942936 -15.72944834 206.71624753 -19.625 204.5625 C-20.75164062 203.94503906 -21.87828125 203.32757813 -23.0390625 202.69140625 C-25.06841744 201.53215732 -27.0553969 200.29640207 -29 199 C-29.15456665 200.37792725 -29.15456665 200.37792725 -29.31225586 201.78369141 C-30.5388561 212.18242835 -32.21031057 222.4597091 -34.08666992 232.75976562 C-34.5706116 235.41958256 -35.04643908 238.08076869 -35.52148438 240.7421875 C-35.82765595 242.44018881 -36.13427891 244.1381088 -36.44140625 245.8359375 C-36.58308731 246.62849945 -36.72476837 247.4210614 -36.8707428 248.23764038 C-37.88455329 253.76910658 -37.88455329 253.76910658 -39 256 C-6 256 27 256 61 256 C61 245.77 61 235.54 61 225 C56.05 225 51.1 225 46 225 C41.359375 224.4140625 41.359375 224.4140625 37.75 223.625 C36.52796875 223.36976563 35.3059375 223.11453125 34.046875 222.8515625 C31 222 31 222 28 220 C29.98 220 31.96 220 34 220 C34.33 219.01 34.66 218.02 35 217 C36.98 217 38.96 217 41 217 C40.505 214.525 40.505 214.525 40 212 C43.3 211.67 46.6 211.34 50 211 C49.67 210.01 49.34 209.02 49 208 C48.21627241 198.33775846 47.99374379 188.20113503 54 180 C56.67578125 179.18359375 56.67578125 179.18359375 59 179 C59 181.64 59 184.28 59 187 C60.98 186.01 62.96 185.02 65 184 C63.66666667 188 62.33333333 192 61 196 C60.60704362 201.89434573 60.92990142 205.88316903 64 211 C72.51253164 215.89470569 85.92794623 212.78995179 95 211 C98.30134751 210.08235571 101.15283347 209.25071545 103.15625 206.29296875 C105.68637582 199.41711757 104.51135104 190.74925591 102 184 C103.32 184 104.64 184 106 184 C107.87359395 182.96040481 107.87359395 182.96040481 109 181 C109.25048636 177.87450983 109.25048636 177.87450983 109 175 C111.51397448 177.24821147 112.80123321 179.34697359 114.125 182.4375 C114.62386719 183.58025391 114.62386719 183.58025391 115.1328125 184.74609375 C116.95098762 189.47171106 117.12444536 193.70860061 117.0625 198.75 C117.05798828 199.44738281 117.05347656 200.14476562 117.04882812 200.86328125 C117.0371002 202.57555803 117.01916653 204.28779033 117 206 C134.61544649 199.87288818 152.89387247 193.42119498 166.203125 179.734375 C168 178 168 178 170 178 C170.37125 177.2265625 170.37125 177.2265625 170.75 176.4375 C172 174 172 174 173.875 171.0625 C186.09442353 149.91877839 182.13859287 120.62465873 176.25244141 98.14501953 C168.6703537 71.47971539 155.14867365 52.03385053 131 38 C134 36 134 36 137 36 C137.66 34.68 138.32 33.36 139 32 C146.63494809 32.76349481 152.19258096 36.18813851 158 41 C158.99 41.33 159.98 41.66 161 42 C162.82979611 44.0455879 164.51865997 46.07935902 166.1875 48.25 C166.91670654 49.19129761 166.91670654 49.19129761 167.66064453 50.15161133 C182.91276409 70.15402084 190.53196703 92.23727697 193.73364258 117.00292969 C193.97471039 118.81038587 194.26573298 120.61100621 194.5625 122.41015625 C197.04426049 142.77388739 195.03829683 163.8867349 183 181 C181.88984491 182.18080133 180.76562975 183.34860959 179.625 184.5 C176.4586737 188.04270263 176.67860241 190.72001801 176.80474854 195.30645752 C177.10559731 199.4567412 177.82960435 203.45447564 178.6796875 207.5234375 C178.93892502 208.82457993 178.93892502 208.82457993 179.20339966 210.15200806 C179.75163299 212.89490115 180.31275199 215.63494897 180.875 218.375 C181.60482594 221.98632486 182.33002999 225.59857233 183.0546875 229.2109375 C183.22823761 230.0741864 183.40178772 230.9374353 183.58059692 231.82684326 C187.27883901 250.30712072 187.27883901 250.30712072 187.375 258 C187.40335938 259.051875 187.43171875 260.10375 187.4609375 261.1875 C186.85453775 264.88756624 186.02991438 265.78980456 183 268 C179.94436938 268.60069367 176.92677694 268.5437531 173.82093811 268.5146637 C172.8818312 268.52160922 171.94272428 268.52855475 170.97515959 268.53571075 C167.82052086 268.55404345 164.66662883 268.54369884 161.51196289 268.53344727 C159.25349869 268.54050256 156.99503922 268.54924592 154.73658752 268.55955505 C148.59611149 268.58210252 142.45589255 268.57909671 136.31539083 268.57023358 C131.19338199 268.5651321 126.07142183 268.57240944 120.94941801 268.57970566 C108.17713337 268.59769529 95.40502903 268.59127664 82.63275992 268.57353585 C71.53973072 268.55884012 60.44697241 268.57346454 49.3539781 268.60230602 C37.96439542 268.63169813 26.57497259 268.6421645 15.18534082 268.63312382 C8.79063208 268.62818735 2.39613393 268.6304493 -3.99854851 268.65091133 C-10.01097731 268.66922827 -16.02290165 268.66335805 -22.03530312 268.63871193 C-24.24401979 268.63369146 -26.45277463 268.63722562 -28.66146088 268.64986038 C-31.6728768 268.66572645 -34.68261845 268.65090019 -37.69395447 268.62818909 C-38.57157989 268.64002482 -39.44920531 268.65186054 -40.35342544 268.66405493 C-44.6936296 268.5973847 -46.48486517 268.38742264 -50.05819035 265.69999599 C-52.70179294 262.02418956 -52.44287796 259.05867714 -52 254.75 C-51.93232422 253.70972656 -51.93232422 253.70972656 -51.86328125 252.6484375 C-51.27009025 245.13468478 -49.76674179 237.73360026 -48.42016602 230.32684326 C-47.29162555 224.0770832 -46.22033913 217.81723801 -45.15527344 211.55639648 C-44.88101835 209.95332595 -44.60358321 208.35079675 -44.32324219 206.7487793 C-43.91091694 204.38975757 -43.50906158 202.0291603 -43.109375 199.66796875 C-42.9823822 198.95448776 -42.8553894 198.24100677 -42.72454834 197.50590515 C-42.15755337 194.09125106 -41.69854604 191.27015583 -43 188 C-44.18920739 186.38249019 -44.18920739 186.38249019 -45.6875 184.875 C-59.46783358 169.31016279 -61.95793105 149.11655209 -61 129 C-59.30646009 103.45577306 -52.86183309 73.11230693 -36 53 C-35.34 53 -34.68 53 -34 53 C-33.7421875 52.42765625 -33.484375 51.8553125 -33.21875 51.265625 C-24.56334239 35.17544418 -5.41918365 25.74671428 11 20 C10.62488281 19.52691406 10.24976563 19.05382812 9.86328125 18.56640625 C0 5.82115869 0 5.82115869 0 0 Z " fill="#874A04" transform="translate(183,209)"/>
<path d="M0 0 C18.02579745 4.66184417 33.91142185 19.0392866 43.28515625 34.74609375 C58.05760363 60.62251795 65.44268374 95.88612062 57.9140625 125.12109375 C56.59130476 129.28721536 55.11800905 133.17218 53 137 C52.67644531 137.58910156 52.35289062 138.17820312 52.01953125 138.78515625 C40.98865119 156.26730912 16.15697688 166.55881678 -3 172 C-3.66 172 -4.32 172 -5 172 C-5.02578125 171.04480469 -5.0515625 170.08960938 -5.078125 169.10546875 C-5.61469277 156.87416258 -8.64449705 147.54909302 -15 137 C-13.98421875 136.50371094 -12.9684375 136.00742187 -11.921875 135.49609375 C-0.60664241 129.93025242 10.51590287 124.40341428 20.2578125 116.28515625 C22 115 22 115 24 115 C28.00880352 106.05973184 25.8891253 95.45366276 25.125 85.9375 C25.04668945 84.91350098 24.96837891 83.88950195 24.88769531 82.83447266 C24.80358398 81.86687012 24.71947266 80.89926758 24.6328125 79.90234375 C24.52283936 78.59511353 24.52283936 78.59511353 24.41064453 77.26147461 C24.1051303 74.72748166 24.1051303 74.72748166 22 72 C19.5 71.58333333 19.5 71.58333333 17 72 C14.63568033 73.89365881 14.63568033 73.89365881 14.99511719 77.09765625 C15.09469727 78.40605469 15.19427734 79.71445312 15.296875 81.0625 C16.77730896 105.92869974 16.77730896 105.92869974 12.48828125 111.12890625 C9.67108235 113.48051529 6.54088104 114.91624502 3.11767578 116.18896484 C0.90108561 117.03788259 -1.12812753 118.0611151 -3.22265625 119.17578125 C-15.24184909 125.46066839 -27.31482823 129.27285432 -40.94140625 129.82421875 C-44.34774541 129.94862249 -44.34774541 129.94862249 -49 131 C-49 98.33 -49 65.66 -49 32 C-42.07 31.01 -42.07 31.01 -35 30 C-20.96233253 26.11394562 -10.66619449 18.96137262 -3.33203125 6.40234375 C-2.16208636 4.29232584 -1.05670465 2.16849816 0 0 Z " fill="#D4711B" transform="translate(305,243)"/>
<path d="M0 0 C0.37511719 0.79664063 0.75023437 1.59328125 1.13671875 2.4140625 C7.11359769 14.78936349 14.04851012 21.65639299 26.6875 27.25 C33.60055301 29.52724099 40.84619408 30.65866139 48 32 C48 64.01 48 96.02 48 129 C24.34708738 129 24.34708738 129 13 124 C12.34016113 123.71060547 11.68032227 123.42121094 11.00048828 123.12304688 C1.30475522 118.7913511 -8.41201409 113.58798591 -16 106 C-16.49636787 98.11382888 -15.72418419 90.10821157 -15.1796875 82.24023438 C-15.128125 81.34755859 -15.0765625 80.45488281 -15.0234375 79.53515625 C-14.94488525 78.33451538 -14.94488525 78.33451538 -14.86474609 77.10961914 C-14.84301336 74.69345822 -14.84301336 74.69345822 -17 72 C-19.5 71.58333333 -19.5 71.58333333 -22 72 C-24.79823914 74.79823914 -24.67525955 77.72797558 -25.0625 81.5 C-25.14193848 82.24741455 -25.22137695 82.9948291 -25.30322266 83.76489258 C-25.54931513 86.17544609 -25.77562177 88.58733603 -26 91 C-26.0820166 91.81388184 -26.1640332 92.62776367 -26.24853516 93.46630859 C-26.4837768 95.87190592 -26.68462956 98.2779756 -26.875 100.6875 C-26.94855713 101.42871094 -27.02211426 102.16992188 -27.09790039 102.93359375 C-27.45512196 108.23328708 -26.40657805 110.97191201 -23 115 C-12.55656183 124.31052081 2.13523066 131.72072101 15 137 C14.52949219 137.75023437 14.05898437 138.50046875 13.57421875 139.2734375 C6.72488873 150.53299865 4.44179554 158.80983524 5 172 C-16.03836779 168.03983665 -39.74867272 156.092058 -52.50390625 138.50390625 C-65.43698435 116.85872854 -61.92766264 89.85829839 -56.40039062 66.46191406 C-55.18027188 61.87955872 -53.66899425 57.44044342 -52 53 C-51.60941406 51.94039063 -51.21882812 50.88078125 -50.81640625 49.7890625 C-41.95325855 27.18077098 -26.52473386 11.77197311 -4.8359375 1.21484375 C-2 0 -2 0 0 0 Z " fill="#D5711B" transform="translate(196,243)"/>
<path d="M0 0 C37.29 0 74.58 0 113 0 C120.44082831 24.18269201 122.36771007 49.69742731 111 73 C102.73670127 87.81930433 91.08637389 98.60422326 74.5625 103.4375 C57.28239591 107.90269492 39.94525409 107.08369248 24.26416016 97.98974609 C8.63382058 88.11317115 -0.93953599 72.83955088 -4.96826172 54.98754883 C-8.38223639 36.73118609 -6.89684224 17.2421056 0 0 Z " fill="#D5721C" transform="translate(194,135)"/>
<path d="M0 0 C3.70016395 1.23338798 4.54703034 2.63820444 6.9375 5.6875 C10.62338847 10.30843383 14.38909719 14.83672375 18.25 19.3125 C19.23462903 20.45420805 20.21901205 21.59612832 21.203125 22.73828125 C21.67041016 23.2792041 22.13769531 23.82012695 22.61914062 24.37744141 C23.99641196 25.99578392 25.3337034 27.64225708 26.671875 29.29296875 C28.89670069 32.12551696 28.89670069 32.12551696 32 34 C40.259673 34.23077084 46.46448191 29.65370036 53.3125 25.5 C55.63916857 24.10989397 57.97002632 22.72701107 60.30078125 21.34375 C61.32341064 20.72693359 62.34604004 20.11011719 63.3996582 19.47460938 C66 18 66 18 69 17 C68.37528547 24.53332232 67.53315166 32.01220777 66.5 39.5 C66.30470703 40.96179688 66.30470703 40.96179688 66.10546875 42.453125 C65.97785156 43.38640625 65.85023438 44.3196875 65.71875 45.28125 C65.60466797 46.11720703 65.49058594 46.95316406 65.37304688 47.81445312 C65 50 65 50 64 53 C22.42 53 -19.16 53 -62 53 C-63.65 41.12 -65.3 29.24 -67 17 C-62.96139917 18.61544033 -59.55438587 20.31129525 -55.81640625 22.4765625 C-54.62988894 23.15422684 -53.44302933 23.83129215 -52.25585938 24.5078125 C-50.40489568 25.56634849 -48.55644842 26.62852243 -46.71362305 27.70117188 C-44.9210427 28.74228688 -43.11976451 29.76675952 -41.31640625 30.7890625 C-40.24849854 31.40475098 -39.18059082 32.02043945 -38.08032227 32.65478516 C-34.72905711 34.11832411 -32.61475416 34.43094442 -29 34 C-26.36712356 31.9424591 -26.36712356 31.9424591 -24 29 C-22.99499198 27.8722173 -21.9897721 26.74462336 -20.984375 25.6171875 C-19.90379973 24.37191365 -18.82576069 23.1244354 -17.75 21.875 C-16.9005481 20.89128418 -16.9005481 20.89128418 -16.03393555 19.88769531 C-7.60450378 10.26112157 -7.60450378 10.26112157 0 0 Z " fill="#D4721D" transform="translate(249,44)"/>
<path d="M0 0 C1.29187336 6.82998998 2.57239926 13.66203849 3.84521484 20.49560547 C4.27915264 22.81803018 4.71564563 25.13997903 5.15478516 27.46142578 C5.78707274 30.80638482 6.41002402 34.15297121 7.03125 37.5 C7.22811401 38.5305249 7.42497803 39.5610498 7.62780762 40.62280273 C7.80799438 41.60321533 7.98818115 42.58362793 8.17382812 43.59375 C8.33371216 44.44646484 8.49359619 45.29917969 8.6583252 46.17773438 C9.09210449 49.76079165 9 53.39078071 9 57 C-24 57 -57 57 -91 57 C-91 47.1 -91 37.2 -91 27 C-87.6175 26.649375 -84.235 26.29875 -80.75 25.9375 C-55.40307209 22.94709241 -22.70770244 0 0 0 Z " fill="#D4711C" transform="translate(347,408)"/>
<path d="M0 0 C3.57250649 1.33883608 6.93000392 2.95698859 10.3137207 4.71557617 C24.35187376 11.98071047 38.59857471 16.6996862 53.92138672 20.47265625 C55.65678356 20.91292606 57.3793102 21.40353085 59.09765625 21.90625 C69.16520413 24.80338608 79.60049076 25.17564866 90 26 C90 36.23 90 46.46 90 57 C57 57 24 57 -10 57 C-3.03571429 15.21428571 -3.03571429 15.21428571 0 0 Z " fill="#D4721C" transform="translate(154,408)"/>
<path d="M0 0 C3.65683028 0.5218127 4.90576683 1.03726049 7.51171875 3.5546875 C8.176875 4.18761719 8.84203125 4.82054687 9.52734375 5.47265625 C11.85685898 7.92054115 14.04267875 10.44829971 16.125 13.109375 C17.51101856 14.77193423 17.51101856 14.77193423 20.44921875 15.4921875 C21.99240747 17.18600054 23.46322147 18.94661252 24.88671875 20.7421875 C25.64855469 21.69609375 26.41039062 22.65 27.1953125 23.6328125 C27.93910156 24.57640625 28.68289063 25.52 29.44921875 26.4921875 C30.54943359 27.81476562 30.54943359 27.81476562 31.671875 29.1640625 C33.44921875 31.4921875 33.44921875 31.4921875 34.44921875 34.4921875 C37.39424034 33.86731223 39.73480641 32.9261224 42.35546875 31.453125 C43.0942627 31.04046387 43.83305664 30.62780273 44.59423828 30.20263672 C45.37138184 29.76193848 46.14852539 29.32124023 46.94921875 28.8671875 C48.14393799 28.19647217 48.14393799 28.19647217 49.36279297 27.51220703 C55.76515997 23.9077299 62.12715305 20.23584209 68.44921875 16.4921875 C68.94421875 17.4821875 68.94421875 17.4821875 69.44921875 18.4921875 C68.12921875 18.8221875 66.80921875 19.1521875 65.44921875 19.4921875 C65.44921875 20.4821875 65.44921875 21.4721875 65.44921875 22.4921875 C64.78921875 22.4921875 64.12921875 22.4921875 63.44921875 22.4921875 C63.44921875 23.1521875 63.44921875 23.8121875 63.44921875 24.4921875 C64.10921875 24.8221875 64.76921875 25.1521875 65.44921875 25.4921875 C65.24296875 26.2759375 65.03671875 27.0596875 64.82421875 27.8671875 C64.63859375 29.1665625 64.63859375 29.1665625 64.44921875 30.4921875 C65.43921875 31.4821875 65.43921875 31.4821875 66.44921875 32.4921875 C62.82180685 34.67755451 59.19162566 36.85786735 55.5546875 39.02734375 C53.03856257 40.5302326 50.54690189 42.05730636 48.0625 43.61328125 C37.80517984 49.93052964 37.80517984 49.93052964 31.44921875 49.4921875 C26.11551624 46.3146626 22.65525657 41.20669447 18.81640625 36.3984375 C16.54698221 33.61221393 14.18949421 30.95316982 11.76171875 28.3046875 C8.45939929 24.69061061 5.46413409 20.98624142 2.640625 16.98828125 C1.50216116 15.34320684 1.50216116 15.34320684 -0.55078125 14.4921875 C-0.87755859 15.28496094 -0.87755859 15.28496094 -1.2109375 16.09375 C-3.04885886 19.38378998 -5.50395301 22.05903723 -7.98828125 24.8671875 C-12.83427261 30.41336854 -17.45614092 36.08382348 -21.89624023 41.96044922 C-27.41546119 49.15723533 -27.41546119 49.15723533 -32.33984375 49.9296875 C-36.53362555 49.35827198 -39.36596298 47.69199169 -42.92578125 45.4921875 C-43.88677734 44.91984375 -43.88677734 44.91984375 -44.8671875 44.3359375 C-46.4354088 43.39968598 -47.9941077 42.44751593 -49.55078125 41.4921875 C-48.56078125 40.9971875 -48.56078125 40.9971875 -47.55078125 40.4921875 C-46.62265625 41.018125 -46.62265625 41.018125 -45.67578125 41.5546875 C-44.97453125 41.8640625 -44.27328125 42.1734375 -43.55078125 42.4921875 C-41.50099208 41.71746698 -41.50099208 41.71746698 -39.55078125 40.4921875 C-38.84953125 40.3478125 -38.14828125 40.2034375 -37.42578125 40.0546875 C-35.15617554 39.59097729 -35.15617554 39.59097729 -33.55078125 36.4921875 C-34.87078125 36.1621875 -36.19078125 35.8321875 -37.55078125 35.4921875 C-36.99777344 35.43804687 -36.44476563 35.38390625 -35.875 35.328125 C-32.52447192 34.12306112 -30.64961744 31.72973942 -28.36328125 29.1171875 C-27.88060791 28.57843994 -27.39793457 28.03969238 -26.90063477 27.48461914 C-23.83850603 24.03928312 -20.89182694 20.51003832 -17.98828125 16.9296875 C-16.51044648 15.11610136 -15.03123979 13.30363244 -13.55078125 11.4921875 C-13.13940918 10.98139648 -12.72803711 10.47060547 -12.30419922 9.94433594 C-11.03187512 8.37936284 -9.73277223 6.84075672 -8.42578125 5.3046875 C-7.27722656 3.92216797 -7.27722656 3.92216797 -6.10546875 2.51171875 C-3.55078125 0.4921875 -3.55078125 0.4921875 0 0 Z " fill="#884A03" transform="translate(249.55078125,29.5078125)"/>
<path d="M0 0 C41.25 0 82.5 0 125 0 C125 4.62 125 9.24 125 14 C83.75 14 42.5 14 0 14 C0 9.38 0 4.76 0 0 Z " fill="#D5731F" transform="translate(188,109)"/>
<path d="M0 0 C4.99368836 3.89751287 8.62730526 8.95363117 10.5625 15 C10.86328125 18.15625 10.86328125 18.15625 10.875 21.5 C10.89175781 22.6034375 10.90851563 23.706875 10.92578125 24.84375 C10.52160091 28.35533833 9.67627186 30.19326992 7.5625 33 C-2.14657289 38.82544373 -17.00301856 39.46034457 -27.9375 37.3125 C-31.97891942 35.1907548 -33.04124772 32.18875683 -34.4375 28 C-35.23426982 18.91682407 -32.39413425 11.95997728 -26.5625 5 C-19.95523352 -2.49001868 -9.12985117 -2.6559567 0 0 Z " fill="#D4711C" transform="translate(277.4375,385)"/>
<path d="M0 0 C1.67797852 1.59887695 1.67797852 1.59887695 3 4 C3.05834961 7.15698242 3.05834961 7.15698242 2.65234375 10.85546875 C2.53952303 12.21396351 2.42958959 13.57270056 2.32226562 14.93164062 C2.13935581 17.05824267 1.93880169 19.17655286 1.68676758 21.29614258 C1.14579746 26.01377703 0.9308639 30.31880505 2 35 C5.42298453 39.08404732 9.34046706 41.48998457 14 44 C15.20861694 44.69234741 15.20861694 44.69234741 16.44165039 45.39868164 C18.45287857 46.49661857 20.4796021 47.48395886 22.5625 48.4375 C29.81035889 51.87357259 29.81035889 51.87357259 33 54 C33 54.66 33 55.32 33 56 C32.01 56.66 31.02 57.32 30 58 C29.34 58.66 28.68 59.32 28 60 C25 61 25 61 24 61 C23.01 61.33 22.02 61.66 21 62 C13.36680211 58.53225798 6.24686639 53.65523006 -0.625 48.875 C-1.20419189 48.48014404 -1.78338379 48.08528809 -2.38012695 47.6784668 C-6.24543765 44.91444256 -8.88439476 42.26750763 -11 38 C-11.18240877 35.04321274 -11.16362525 32.59301523 -10.875 29.6875 C-10.81296387 28.91075928 -10.75092773 28.13401855 -10.68701172 27.33374023 C-10.48205376 24.88634465 -10.24235883 22.44394649 -10 20 C-9.85926357 18.38282219 -9.71863667 16.76563485 -9.578125 15.1484375 C-9.43007553 13.61949897 -9.27914301 12.09083622 -9.125 10.5625 C-9.05909668 9.84731201 -8.99319336 9.13212402 -8.92529297 8.39526367 C-8.59811304 5.52670846 -8.3043491 3.4186902 -6.5859375 1.0546875 C-4.23553837 -0.50838582 -2.75268496 -0.48171987 0 0 Z " fill="#8A4904" transform="translate(179,314)"/>
<path d="M0 0 C2.71487617 2.8906003 3.42341085 5.0929153 3.73046875 9 C3.85192261 10.44656982 3.85192261 10.44656982 3.97583008 11.92236328 C4.04568115 12.9379834 4.11553223 13.95360352 4.1875 15 C4.30484497 16.55243408 4.30484497 16.55243408 4.42456055 18.13623047 C4.63746339 21.08993815 4.82610369 24.04376268 5 27 C5.06429199 28.07362793 5.06429199 28.07362793 5.12988281 29.16894531 C5.65339556 39.12626354 5.65339556 39.12626354 2 44 C-0.05918329 45.74347977 -2.04244814 47.28726573 -4.25 48.8125 C-4.85682617 49.23829346 -5.46365234 49.66408691 -6.08886719 50.1027832 C-10.66013971 53.23925545 -15.37583158 56.04920499 -20.25 58.6875 C-20.89356445 59.03852783 -21.53712891 59.38955566 -22.20019531 59.7512207 C-23.76634905 60.5690495 -25.38033591 61.29404694 -27 62 C-27.66 61.67 -28.32 61.34 -29 61 C-29.309375 60.01 -29.61875 59.02 -29.9375 58 C-30.4634375 56.515 -30.4634375 56.515 -31 55 C-34.47823115 53.84058962 -36.45895578 54.29179116 -40 55 C-37.97899651 52.97899651 -36.61251221 52.2542307 -34.03515625 51.1171875 C-33.23400391 50.75367188 -32.43285156 50.39015625 -31.60742188 50.015625 C-29.94881779 49.2722445 -28.28746683 48.53495342 -26.62304688 47.8046875 C-24.03032633 46.62038374 -21.51888883 45.33403355 -19 44 C-17.98856934 43.5057251 -16.97713867 43.0114502 -15.93505859 42.50219727 C-12.62898315 40.58780339 -10.39271073 38.99068279 -8 36 C-6.7375924 30.32499112 -7.0818926 24.95008379 -7.5 19.1875 C-7.62034204 16.91857117 -7.72472545 14.65006109 -7.81433105 12.37971497 C-7.9018807 10.33263165 -8.03282047 8.28754069 -8.16601562 6.24291992 C-8 3 -8 3 -6.66210938 1.07543945 C-4.26227381 -0.47733312 -2.79522935 -0.48916514 0 0 Z " fill="#894904" transform="translate(327,314)"/>
<path d="M0 0 C1.63001953 0.01353516 1.63001953 0.01353516 3.29296875 0.02734375 C4.12441406 0.03894531 4.95585937 0.05054688 5.8125 0.0625 C5.31878906 1.03832031 4.82507813 2.01414062 4.31640625 3.01953125 C3.66916469 4.30463405 3.02203512 5.58979325 2.375 6.875 C2.04951172 7.51759766 1.72402344 8.16019531 1.38867188 8.82226562 C-1.46357179 14.49734839 -2.34628813 18.7097768 -2.3125 25 C-2.31636719 25.71607422 -2.32023437 26.43214844 -2.32421875 27.16992188 C-2.31785293 30.60428156 -2.26700442 33.78114926 -1.1875 37.0625 C-7.92224921 37.43511932 -13.11438703 37.15232941 -19.1875 34.0625 C-22.2090106 30.74858515 -22.95774409 26.97870481 -23.31640625 22.6015625 C-23.0008016 16.38510727 -20.63986316 10.8500239 -16.75 6.0625 C-11.16783047 1.70568476 -7.10353555 -0.0763821 0 0 Z " fill="#D4721D" transform="translate(235.1875,383.9375)"/>
<path d="M0 0 C2.9375 0.375 2.9375 0.375 4.9375 2.375 C5.10107422 4.6340332 5.10107422 4.6340332 4.9921875 7.42578125 C4.96769531 8.43447266 4.94320312 9.44316406 4.91796875 10.48242188 C4.84803249 12.60770713 4.76999477 14.73274228 4.68359375 16.85742188 C4.44454621 22.99373463 4.44454621 22.99373463 6.9453125 28.4375 C7.60273438 29.076875 8.26015625 29.71625 8.9375 30.375 C8.9375 33.0625 8.9375 33.0625 7.9375 35.375 C5.06243487 37.79005471 1.64420425 37.80627787 -2.0234375 37.67578125 C-5.67868227 37.13659763 -7.50012268 36.00143675 -10.0625 33.375 C-11.11950007 27.00114706 -9.53428398 20.29711496 -8.25 14.0625 C-8.08435547 13.18271484 -7.91871094 12.30292969 -7.74804688 11.39648438 C-5.59270069 0.68482049 -5.59270069 0.68482049 0 0 Z " fill="#884904" transform="translate(250.0625,159.625)"/>
<path d="M0 0 C7.55258812 1.95325555 13.67400438 0.92202493 21.046875 -1.40625 C23.74680359 -2.09350455 25.8561244 -2.40154599 28.625 -2.0625 C30.78002531 1.17003796 31.09356135 2.18900923 30.625 5.9375 C28.05182681 9.59411454 24.16696526 10.62821046 19.9375 11.4765625 C10.34931206 12.8107679 -1.44966061 13.3104268 -10.375 8.9375 C-12.1796875 7.02734375 -12.1796875 7.02734375 -13.375 4.9375 C-13.1875 1.75 -13.1875 1.75 -12.375 -1.0625 C-8.47659923 -3.01170038 -3.97690997 -1.25199018 0 0 Z " fill="#894803" transform="translate(241.375,207.0625)"/>
<path d="M0 0 C1.02221993 3.16143514 1.1620951 3.6828574 -0.4375 6.8125 C-9.41167267 18.99393713 -20.88524371 21.73889826 -35 24 C-35 20.04 -35 16.08 -35 12 C-33.97261719 11.82984375 -32.94523437 11.6596875 -31.88671875 11.484375 C-20.23268461 9.47904628 -9.8381999 6.87828302 0 0 Z " fill="#D3721D" transform="translate(291,240)"/>
<path d="M0 0 C0.33 11.22 0.66 22.44 1 34 C-5.2731782 32.74536436 -8.32458023 30.401435 -11.875 25.3125 C-13.735861 19.83329815 -14.30796262 14.83391901 -11.828125 9.4609375 C-9.03539549 5.04151502 -5.76930317 0 0 0 Z " fill="#D4711A" transform="translate(176,154)"/>
<path d="M0 0 C1.08796875 0.54269531 2.1759375 1.08539063 3.296875 1.64453125 C13.97638948 6.87946787 24.10310898 10.64808057 36 12 C36 15.63 36 19.26 36 23 C26.6331518 23.85153165 17.56633179 20.12001559 10.04296875 14.70703125 C5.00849345 10.50040466 0.92570418 6.6766414 0 0 Z " fill="#D37420" transform="translate(208,240)"/>
<path d="M0 0 C5.54123537 1.38530884 8.63542371 4.0895932 11.875 8.625 C13.89570723 14.6871217 14.17367117 20.56237526 11.375 26.375 C8.71197577 29.31834257 6.21929668 31.67114708 3 34 C2.01 34 1.02 34 0 34 C0 22.78 0 11.56 0 0 Z " fill="#D3731D" transform="translate(324,154)"/>
<path d="M0 0 C3.10357196 2.06904798 3.83307574 3.42768824 4.875 7 C5.00658928 10.15814262 4.8163322 11.45713491 3 14 C-0.75047482 16.50031654 -2.55856266 16.53603554 -7 16 C-9.9375 13.9375 -9.9375 13.9375 -12 11 C-12.62491523 7.04220351 -12.61006839 4.99136114 -10.5 1.5625 C-6.98401025 -0.63499359 -4.04059653 -0.81309745 0 0 Z " fill="#8A4A05" transform="translate(254,72)"/>
<path d="M0 0 C0.66 0.33 1.32 0.66 2 1 C2 1.33 2 1.66 2 2 C2.33 2.66 2.66 3.32 3 4 C2.67 4.66 2.34 5.32 2 6 C2.66 6 3.32 6 4 6 C4.33 5.34 4.66 4.68 5 4 C5.99 4.99 6.98 5.98 8 7 C7.01 7.495 7.01 7.495 6 8 C6.66 8.66 7.32 9.32 8 10 C5.69 11.98 3.38 13.96 1 16 C0.34 14.35 -0.32 12.7 -1 11 C-1.99 11.495 -1.99 11.495 -3 12 C-3 11.34 -3 10.68 -3 10 C-3.66 10 -4.32 10 -5 10 C-5.71260075 11.75759218 -5.71260075 11.75759218 -6 14 C-5.443125 15.2065625 -5.443125 15.2065625 -4.875 16.4375 C-4 19 -4 19 -5.25 21.75 C-7 24 -7 24 -9 25 C-11.625 24.0625 -11.625 24.0625 -14 23 C-14 22.01 -14 21.02 -14 20 C-15.65 22.64 -17.3 25.28 -19 28 C-19.33 27.34 -19.66 26.68 -20 26 C-18.80291048 23.70040581 -17.56726357 21.56020931 -16.1875 19.375 C-15.63352539 18.45847656 -15.63352539 18.45847656 -15.06835938 17.5234375 C-14.10644326 15.97608232 -13.05880355 14.48274264 -12 13 C-11.34 13 -10.68 13 -10 13 C-9.75507813 12.43796875 -9.51015625 11.8759375 -9.2578125 11.296875 C-7.77073461 8.58134146 -5.95937218 6.53608562 -3.875 4.25 C-3.15054688 3.45078125 -2.42609375 2.6515625 -1.6796875 1.828125 C-1.12539062 1.22484375 -0.57109375 0.6215625 0 0 Z " fill="#8F5106" transform="translate(159,249)"/>
<path d="M0 0 C2.875 1 2.875 1 4.03125 2.6875 C5.07569498 5.5500529 5.21193678 7.95494269 5.25 11 C5.27835938 12.03125 5.30671875 13.0625 5.3359375 14.125 C4.76642582 17.67720847 3.70562643 18.84727497 0.875 21 C-1.6875 21 -1.6875 21 -4.125 20 C-7.20228113 16.80436191 -7.55703911 14.36871187 -7.5625 10 C-7.58183594 8.96875 -7.60117188 7.9375 -7.62109375 6.875 C-6.81511987 2.20415923 -4.77461529 0 0 0 Z " fill="#8A4A05" transform="translate(222.125,154)"/>
<path d="M0 0 C2.9375 0.8125 2.9375 0.8125 4.9375 2.8125 C5.18973659 5.34366486 5.30773663 7.71826643 5.3125 10.25 C5.34923828 11.2719043 5.34923828 11.2719043 5.38671875 12.31445312 C5.40604475 15.60309368 5.37248531 17.34827198 3.078125 19.796875 C0.26296375 21.13253545 -1.15142391 20.80839445 -4.0625 19.8125 C-6.53635671 17.33864329 -6.34821102 15.83745772 -6.38476562 12.45117188 C-6.38154297 11.76603516 -6.37832031 11.08089844 -6.375 10.375 C-6.39111328 9.69373047 -6.40722656 9.01246094 -6.42382812 8.31054688 C-6.42670646 5.37176551 -6.39444703 3.30846791 -4.734375 0.828125 C-3.0625 -0.1875 -3.0625 -0.1875 0 0 Z " fill="#874703" transform="translate(280.0625,154.1875)"/>
<path d="M0 0 C3.33794538 1.16102448 4.3364746 1.83747557 5.875 5 C6.40793835 8.65443439 6.3503727 10.30522452 4.25 13.375 C1.16313568 15.48706506 -0.4532913 15.61195145 -4.125 15 C-6.5 13.4375 -6.5 13.4375 -8.125 11 C-8.6875 7.5 -8.6875 7.5 -8.125 4 C-5.45946825 0.86408029 -4.13747529 0 0 0 Z " fill="#8A4903" transform="translate(271.125,296)"/>
<path d="M0 0 C2.375 1.625 2.375 1.625 4 4 C4.60605429 7.63632575 4.47161336 9.28314769 2.4375 12.375 C-0.92058549 14.61372366 -3.04745604 14.57491549 -7 14 C-9.62541413 11.79803976 -9.9445448 10.38026421 -10.4375 7 C-10 4 -10 4 -8.375 1.625 C-5.28813568 -0.48706506 -3.6717087 -0.61195145 0 0 Z " fill="#884603" transform="translate(273,334)"/>
<path d="M0 0 C4.25521761 1.90661633 8.16337732 4.30011309 12.125 6.75 C13.18332031 7.38421875 14.24164063 8.0184375 15.33203125 8.671875 C20.30174459 11.66492695 25.21390428 14.7209448 30 18 C29.01 18.495 29.01 18.495 28 19 C25.29785156 17.66064453 25.29785156 17.66064453 21.890625 15.6328125 C20.64844852 14.90492912 19.40626065 14.17706516 18.1640625 13.44921875 C16.20972156 12.29081867 14.25726013 11.12932654 12.30566406 9.96630859 C10.42178498 8.8473667 8.53153684 7.73981525 6.640625 6.6328125 C5.51172852 5.96137207 4.38283203 5.28993164 3.21972656 4.59814453 C0.00134751 3.00066885 -2.42338277 2.21636326 -6 2 C-9.20299181 3.53215473 -9.20299181 3.53215473 -11 7 C-11.26028932 11.07352784 -10.60803643 14.97622952 -10 19 C-9.63892216 21.68684395 -9.28358285 24.37375145 -8.9375 27.0625 C-8.84799072 27.73837158 -8.75848145 28.41424316 -8.66625977 29.1105957 C-7.94866463 34.76584738 -7.78299322 40.30959996 -8 46 C-10.68489293 43.31510707 -10.47250231 41.56599113 -10.8515625 37.8125 C-10.98046875 36.55566406 -11.109375 35.29882812 -11.2421875 34.00390625 C-11.3364502 33.01608154 -11.3364502 33.01608154 -11.43261719 32.00830078 C-11.62169975 30.03445161 -11.82633896 28.06211255 -12.03125 26.08984375 C-13.98098663 6.53279161 -13.98098663 6.53279161 -11 1.875 C-7.17386774 -0.51633266 -4.34050314 -0.86618544 0 0 Z " fill="#BE8014" transform="translate(181,43)"/>
<path d="M0 0 C37.29 0 74.58 0 113 0 C113.495 2.97 113.495 2.97 114 6 C113.505 5.01 113.505 5.01 113 4 C112.34 4 111.68 4 111 4 C111 3.34 111 2.68 111 2 C74.7 1.67 38.4 1.34 1 1 C0.67 1.66 0.34 2.32 0 3 C0 2.01 0 1.02 0 0 Z " fill="#D38132" transform="translate(194,135)"/>
<path d="M0 0 C2.59765625 1.7578125 2.59765625 1.7578125 5.0625 4.125 C5.91714844 4.94097656 6.77179688 5.75695313 7.65234375 6.59765625 C10.28662406 9.29330083 12.70297064 12.01386184 15 15 C14.67 15.66 14.34 16.32 14 17 C13.15695312 16.07316406 12.31390625 15.14632812 11.4453125 14.19140625 C10.33869553 12.98163007 9.23191627 11.77200233 8.125 10.5625 C7.29162109 9.64500977 7.29162109 9.64500977 6.44140625 8.70898438 C5.90644531 8.12568359 5.37148438 7.54238281 4.8203125 6.94140625 C4.32805176 6.40201416 3.83579102 5.86262207 3.32861328 5.30688477 C1.13970688 3.15377635 -0.17577748 2.97891505 -3.2890625 2.60546875 C-7.91732426 3.09752605 -9.57998772 4.8781502 -12.375 8.3125 C-12.84413818 8.85575928 -13.31327637 9.39901855 -13.79663086 9.95874023 C-15.22138854 11.62091731 -16.61446105 13.30505912 -18 15 C-18.77730469 15.94359375 -19.55460937 16.8871875 -20.35546875 17.859375 C-21.81623414 19.64848943 -23.27077231 21.44270797 -24.71875 23.2421875 C-28.64073834 27.98349533 -32.81872281 32.48701397 -37 37 C-38.65 36.34 -40.3 35.68 -42 35 C-41.443125 34.938125 -40.88625 34.87625 -40.3125 34.8125 C-31.67723986 31.77848968 -22.98605695 18.31471522 -17.25 11.125 C-7.43672952 -0.96229038 -7.43672952 -0.96229038 0 0 Z " fill="#BF7915" transform="translate(253,28)"/>
<path d="M0 0 C11.44702765 4.11292249 21.66064502 8.75979115 31.125 16.484375 C33.13299754 18.15487124 33.13299754 18.15487124 36 20 C35.67 20.66 35.34 21.32 35 22 C34.50371094 21.60167969 34.00742187 21.20335937 33.49609375 20.79296875 C30.20540909 18.22660937 27.16032363 15.89332523 23.25 14.375 C20 13 20 13 18.3125 11.1484375 C15.15579793 8.21569065 11.70065752 6.87633074 7.75 5.25 C7.00492187 4.93417969 6.25984375 4.61835938 5.4921875 4.29296875 C3.66510388 3.51997183 1.83302973 2.75878905 0 2 C0 1.34 0 0.68 0 0 Z " fill="#B1650E" transform="translate(306,229)"/>
<path d="M0 0 C0.99 0.66 1.98 1.32 3 2 C2.67 2.66 2.34 3.32 2 4 C1.01 3.34 0.02 2.68 -1 2 C-1.99 2 -2.98 2 -4 2 C-4.33 2.66 -4.66 3.32 -5 4 C-4.34 4 -3.68 4 -3 4 C-3.33 5.32 -3.66 6.64 -4 8 C-4.66 8 -5.32 8 -6 8 C-6.66 7.34 -7.32 6.68 -8 6 C-8.99 6.495 -8.99 6.495 -10 7 C-10 8.65 -10 10.3 -10 12 C-9.34 12 -8.68 12 -8 12 C-7.67 12.99 -7.34 13.98 -7 15 C-10.875 13.25 -10.875 13.25 -12 11 C-12.35173852 7.20122401 -12.52701444 4.85639847 -10.5 1.5625 C-6.77973621 -0.76266487 -4.35782859 -0.41503129 0 0 Z " fill="#864102" transform="translate(254,72)"/>
<path d="M0 0 C0.33 11.22 0.66 22.44 1 34 C-0.65 33.67 -2.3 33.34 -4 33 C-3.67 32.34 -3.34 31.68 -3 31 C-2.34 31 -1.68 31 -1 31 C-1.33 22.09 -1.66 13.18 -2 4 C-3.65 4.33 -5.3 4.66 -7 5 C-7 4.34 -7 3.68 -7 3 C-2.61538462 0 -2.61538462 0 0 0 Z " fill="#D37B29" transform="translate(176,154)"/>
<path d="M0 0 C0.61875 0.680625 1.2375 1.36125 1.875 2.0625 C6.74540403 6.94685934 12.7604996 11.07478388 19 14 C19 14.66 19 15.32 19 16 C13.31555133 14.74942129 10.22456331 13.02339363 6 9 C5.67 8.34 5.34 7.68 5 7 C3.68 7 2.36 7 1 7 C-0.0625 5.1875 -0.0625 5.1875 -1 3 C-0.67 2.01 -0.34 1.02 0 0 Z " fill="#D07625" transform="translate(201,255)"/>
<path d="M0 0 C4.97209562 1.76429199 9.43438061 4.3939166 14 7 C11 8 11 8 8.4375 8.5 C6.00585058 8.88942398 6.00585058 8.88942398 4 10 C4 8.35 4 6.7 4 5 C2.68 5.33 1.36 5.66 0 6 C-0.33 7.32 -0.66 8.64 -1 10 C-0.67 6.7 -0.34 3.4 0 0 Z " fill="#D07725" transform="translate(154,408)"/>
<path d="M0 0 C0 0.66 0 1.32 0 2 C-0.61875 2.061875 -1.2375 2.12375 -1.875 2.1875 C-4.27761141 2.828919 -4.27761141 2.828919 -5.25 5.5625 C-5.4975 6.366875 -5.745 7.17125 -6 8 C-6.99 8 -7.98 8 -9 8 C-9.33 7.67 -9.66 7.34 -10 7 C-10.33 8.32 -10.66 9.64 -11 11 C-13.64 11.66 -16.28 12.32 -19 13 C-19.33 12.34 -19.66 11.68 -20 11 C-19.28714844 10.62488281 -18.57429688 10.24976563 -17.83984375 9.86328125 C-13.37747561 7.47894726 -9.01157348 5.13739755 -4.9375 2.125 C-2 0 -2 0 0 0 Z " fill="#D07624" transform="translate(324,362)"/>
<path d="M0 0 C0.33 0 0.66 0 1 0 C1.19705341 20.29650092 1.19705341 20.29650092 0 27 C-0.66 27.66 -1.32 28.32 -2 29 C-2.72526532 21.15597666 -3.21074074 13.80255144 -2 6 C-1.34 6 -0.68 6 0 6 C0 4.02 0 2.04 0 0 Z " fill="#7A3E00" transform="translate(125,323)"/>
<path d="M0 0 C0.99 0.495 0.99 0.495 2 1 C1.67 3.64 1.34 6.28 1 9 C1.65226562 8.7834375 2.30453125 8.566875 2.9765625 8.34375 C7.77521132 6.81497692 11.89921898 5.59730676 17 6 C17 5.34 17 4.68 17 4 C21.625 1.875 21.625 1.875 25 3 C17.27839552 8.42657204 9.11905959 9.62374929 0 11 C0 7.37 0 3.74 0 0 Z " fill="#D07928" transform="translate(256,253)"/>
<path d="M0 0 C2.27734375 -0.36328125 2.27734375 -0.36328125 4.9375 -0.3125 C5.81277344 -0.30863281 6.68804687 -0.30476562 7.58984375 -0.30078125 C10 0 10 0 13 2 C13 2.66 13 3.32 13 4 C9.04 3.67 5.08 3.34 1 3 C1 8.65814459 1.00533317 9.75755532 4 14 C1.525 13.01 1.525 13.01 -1 12 C-1.2226746 10.56465159 -1.42761906 9.12654475 -1.625 7.6875 C-1.74101562 6.88699219 -1.85703125 6.08648437 -1.9765625 5.26171875 C-2 3 -2 3 0 0 Z " fill="#D07727" transform="translate(228,203)"/>
<path d="M0 0 C5.55478409 1.38869602 8.8397467 4.25962006 12 9 C11.67 9.99 11.34 10.98 11 12 C10.59007812 11.43410156 10.18015625 10.86820313 9.7578125 10.28515625 C9.21898437 9.55167969 8.68015625 8.81820312 8.125 8.0625 C7.59132813 7.33160156 7.05765625 6.60070312 6.5078125 5.84765625 C5.11987896 3.88901765 5.11987896 3.88901765 3 3 C2.67 10.26 2.34 17.52 2 25 C1.67 25 1.34 25 1 25 C0.67 16.75 0.34 8.5 0 0 Z " fill="#D17A28" transform="translate(324,154)"/>
<path d="M0 0 C4.30764815 1.56641751 8.06171464 3.68336156 12 6 C9.33440687 7.77706209 6.9719385 8.87548273 4 10 C3.34 9.34 2.68 8.68 2 8 C1.67 8 1.34 8 1 8 C0.67 5.36 0.34 2.72 0 0 Z " fill="#D17827" transform="translate(182,61)"/>
<path d="M0 0 C0.66 0.33 1.32 0.66 2 1 C1.01 1.33 0.02 1.66 -1 2 C-1.309375 2.639375 -1.61875 3.27875 -1.9375 3.9375 C-3.25475165 6.49451791 -4.45348612 6.80632162 -7 8 C-7.99 9.485 -7.99 9.485 -9 11 C-9.99 9.35 -10.98 7.7 -12 6 C-10.04669132 4.96958487 -8.08718472 3.9509107 -6.125 2.9375 C-5.03445313 2.36902344 -3.94390625 1.80054688 -2.8203125 1.21484375 C-1.42425781 0.61349609 -1.42425781 0.61349609 0 0 Z " fill="#CF7625" transform="translate(302,374)"/>
<path d="M0 0 C0.99 0.33 1.98 0.66 3 1 C2.979375 1.928125 2.95875 2.85625 2.9375 3.8125 C2.84230396 7.02286011 2.84230396 7.02286011 4 10 C3.360625 10.12375 2.72125 10.2475 2.0625 10.375 C1.381875 10.58125 0.70125 10.7875 0 11 C-0.33 11.66 -0.66 12.32 -1 13 C-1.66 13 -2.32 13 -3 13 C-4.37310707 14.29233607 -5.71034824 15.62437146 -7 17 C-7.66 16.67 -8.32 16.34 -9 16 C-8.27683594 15.31164062 -8.27683594 15.31164062 -7.5390625 14.609375 C-6.59160156 13.68898437 -6.59160156 13.68898437 -5.625 12.75 C-4.99851562 12.14671875 -4.37203125 11.5434375 -3.7265625 10.921875 C-1.20214072 8.11188514 -0.04719055 6.03819206 0.125 2.25 C0.063125 1.13625 0.063125 1.13625 0 0 Z " fill="#844100" transform="translate(291,239)"/>
<path d="M0 0 C-0.7425 0.5775 -1.485 1.155 -2.25 1.75 C-6.02604036 4.83948756 -9.05503431 7.46174673 -11 12 C-11.99 11.67 -12.98 11.34 -14 11 C-12.36575158 5.80011866 -9.43187184 2.57356413 -4.875 -0.375 C-3 -1 -3 -1 0 0 Z " fill="#D17827" transform="translate(229,386)"/>
<path d="M0 0 C2.14673568 3.50347263 2.32832389 6.42984282 2.375 10.5 C2.40335937 11.6240625 2.43171875 12.748125 2.4609375 13.90625 C2 17 2 17 0.2421875 19.390625 C-3.29721242 21.93110021 -5.74197579 21.28386828 -10 21 C-10 20.67 -10 20.34 -10 20 C-7.69 20 -5.38 20 -3 20 C-3 19.34 -3 18.68 -3 18 C-2.34 18 -1.68 18 -1 18 C-0.39034801 11.97968656 0.13451772 6.05329744 0 0 Z " fill="#925A07" transform="translate(368,456)"/>
<path d="M0 0 C0.598125 0.226875 1.19625 0.45375 1.8125 0.6875 C1.8125 1.3475 1.8125 2.0075 1.8125 2.6875 C-0.1675 3.0175 -2.1475 3.3475 -4.1875 3.6875 C-4.1153125 4.25855469 -4.043125 4.82960938 -3.96875 5.41796875 C-3.15532223 12.52416412 -3.08668057 19.54052234 -3.1875 26.6875 C-3.5175 26.6875 -3.8475 26.6875 -4.1875 26.6875 C-4.85997533 20.69526448 -5.30215663 14.7170473 -5.4375 8.6875 C-5.46328125 7.615 -5.4890625 6.5425 -5.515625 5.4375 C-5.1875 2.6875 -5.1875 2.6875 -3.80859375 0.79296875 C-2.1875 -0.3125 -2.1875 -0.3125 0 0 Z " fill="#843B00" transform="translate(324.1875,314.3125)"/>
<path d="M0 0 C0.33 0.66 0.66 1.32 1 2 C-0.36125 1.9071875 -0.36125 1.9071875 -1.75 1.8125 C-4.93765346 1.80340999 -4.93765346 1.80340999 -7.375 3.0625 C-9.33886738 5.02893614 -9.33886738 5.02893614 -9.3125 8.5 C-9.13832877 11.96935792 -9.13832877 11.96935792 -8 15 C-8.99 14.67 -9.98 14.34 -11 14 C-12.50444857 10.27469878 -13.31178805 8.02444644 -12.125 4.125 C-11.75375 3.42375 -11.3825 2.7225 -11 2 C-11 1.67 -11 1.34 -11 1 C-7.26562152 0.12132271 -3.83225427 -0.08912219 0 0 Z " fill="#D1782A" transform="translate(273,295)"/>
<path d="M0 0 C0.33 0 0.66 0 1 0 C1.22162329 1.62324086 1.42689803 3.248721 1.625 4.875 C1.74101562 5.77992188 1.85703125 6.68484375 1.9765625 7.6171875 C1.98429688 8.40351563 1.99203125 9.18984375 2 10 C1.34 10.66 0.68 11.32 0 12 C-0.67651207 14.19704511 -0.67651207 14.19704511 -1.125 16.625 C-1.29257813 17.44226563 -1.46015625 18.25953125 -1.6328125 19.1015625 C-1.75398437 19.72804688 -1.87515625 20.35453125 -2 21 C-2.33 21 -2.66 21 -3 21 C-2.48462048 13.86606248 -1.55994099 6.98187183 0 0 Z " fill="#D27929" transform="translate(152,419)"/>
<path d="M0 0 C2.97 0.33 5.94 0.66 9 1 C8.67 1.99 8.34 2.98 8 4 C9.32 4.33 10.64 4.66 12 5 C12 4.34 12 3.68 12 3 C12.99 3 13.98 3 15 3 C14.67 4.32 14.34 5.64 14 7 C10.2397015 6.41892368 7.46964968 5.34800504 4.1875 3.4375 C3.39730469 2.98246094 2.60710937 2.52742188 1.79296875 2.05859375 C1.20128906 1.70925781 0.60960937 1.35992187 0 1 C0 0.67 0 0.34 0 0 Z " fill="#CF7625" transform="translate(168,401)"/>
<path d="M0 0 C1.32 0 2.64 0 4 0 C2.53403275 3.9429464 0.62691725 5.01834588 -3.125 6.75 C-4.49011719 7.39195312 -4.49011719 7.39195312 -5.8828125 8.046875 C-6.58148438 8.36140625 -7.28015625 8.6759375 -8 9 C-7.40247743 5.43727166 -7.15000793 5.10938078 -4 2.8125 C-3.01 2.214375 -2.02 1.61625 -1 1 C-0.67 0.67 -0.34 0.34 0 0 Z " fill="#CC7524" transform="translate(283,227)"/>
<path d="M0 0 C0.66 1.32 1.32 2.64 2 4 C2.66 4 3.32 4 4 4 C4.33 4.66 4.66 5.32 5 6 C5.99 6.66 6.98 7.32 8 8 C7.67 8.66 7.34 9.32 7 10 C7.99 10.33 8.98 10.66 10 11 C9.67 11.66 9.34 12.32 9 13 C8.01 13 7.02 13 6 13 C4.39453125 10.91796875 4.39453125 10.91796875 2.8125 8.1875 C2.28269531 7.29417969 1.75289062 6.40085937 1.20703125 5.48046875 C0 3 0 3 0 0 Z " fill="#8F5709" transform="translate(128,377)"/>
<path d="M0 0 C0.33 0 0.66 0 1 0 C1.71033431 5.52967941 2.30267176 10.49983036 1 16 C0.34 16 -0.32 16 -1 16 C-1.33 17.32 -1.66 18.64 -2 20 C-2.31620422 13.20160929 -1.12676382 6.69016016 0 0 Z " fill="#915705" transform="translate(141,401)"/>
<path d="M0 0 C-6.99032342 3.7390102 -11.31553449 4.1722066 -19 3 C-19 2.67 -19 2.34 -19 2 C-16.58525383 1.46839543 -14.16891893 0.94945234 -11.75 0.4375 C-11.06808594 0.28603516 -10.38617188 0.13457031 -9.68359375 -0.02148438 C-6.18230962 -0.75233495 -3.39701827 -1.32203546 0 0 Z " fill="#D17728" transform="translate(288,432)"/>
<path d="M0 0 C0.66 0.33 1.32 0.66 2 1 C-1.50222763 6.11672973 -4.58627581 9.90644332 -10 13 C-8.48446596 9.52224821 -6.4226544 7.0442016 -3.875 4.25 C-3.15054688 3.45078125 -2.42609375 2.6515625 -1.6796875 1.828125 C-0.84824219 0.92320312 -0.84824219 0.92320312 0 0 Z " fill="#AC5C0D" transform="translate(159,249)"/>
<path d="M0 0 C3.83225427 -0.08912219 7.26562152 0.12132271 11 1 C11 1.99 11 2.98 11 4 C11.66 4.66 12.32 5.32 13 6 C3.40546697 4.44191344 3.40546697 4.44191344 0 0 Z " fill="#D27726" transform="translate(220,232)"/>
<path d="M0 0 C3 1 3 1 4.1875 3.0625 C4.455625 3.701875 4.72375 4.34125 5 5 C2 6 2 6 -1 6 C-2.68798827 7.43750191 -2.68798827 7.43750191 -4 9 C-4.66 8.67 -5.32 8.34 -6 8 C-4.02 5.36 -2.04 2.72 0 0 Z " fill="#D17826" transform="translate(249,44)"/>
<path d="M0 0 C0.99 0.66 1.98 1.32 3 2 C2.38125 2.721875 1.7625 3.44375 1.125 4.1875 C-0.83666353 6.78381938 -1.95316 8.94671666 -3 12 C-4.1484375 10.265625 -4.1484375 10.265625 -5 8 C-4.1015625 5.859375 -4.1015625 5.859375 -2.625 3.75 C-2.14289063 3.04359375 -1.66078125 2.3371875 -1.1640625 1.609375 C-0.77992188 1.07828125 -0.39578125 0.5471875 0 0 Z " fill="#CD7523" transform="translate(168,158)"/>
<path d="M0 0 C0.66 0.33 1.32 0.66 2 1 C1.52949219 1.56847656 1.05898437 2.13695312 0.57421875 2.72265625 C-3.13807403 7.32651418 -5.98623447 11.43253059 -8 17 C-8.93820902 14.46741124 -9.13196296 13.34226011 -8.14453125 10.78125 C-5.77505301 6.72325794 -3.62542668 3.08832643 0 0 Z " fill="#BE7D19" transform="translate(160,147)"/>
<path d="M0 0 C0.68707555 2.49064888 1 4.37886292 1 7 C1.66 7 2.32 7 3 7 C2.835 7.86625 2.67 8.7325 2.5 9.625 C2.02781452 12.81225199 1.92344882 15.78485027 2 19 C0.02462291 15.65395309 -0.3963055 12.78986003 -0.6875 8.9375 C-0.77386719 7.89464844 -0.86023438 6.85179687 -0.94921875 5.77734375 C-1 3 -1 3 0 0 Z " fill="#7D4101" transform="translate(355,442)"/>
<path d="M0 0 C2.23551759 3.35327639 2.17283528 3.90743657 1.625 7.6875 C1.51414062 8.49574219 1.40328125 9.30398438 1.2890625 10.13671875 C1.19367188 10.75160156 1.09828125 11.36648438 1 12 C-1.97 11.505 -1.97 11.505 -5 11 C-4.360625 10.29875 -3.72125 9.5975 -3.0625 8.875 C-0.83613898 5.77158767 -0.34919057 3.75379861 0 0 Z " fill="#D37827" transform="translate(277,338)"/>
<path d="M0 0 C0.66 0.33 1.32 0.66 2 1 C0.45899296 4.08201409 -0.48364519 5.72293156 -3.5625 7.375 C-6 8 -6 8 -8 7 C-5.36 4.69 -2.72 2.38 0 0 Z " fill="#D07827" transform="translate(174,254)"/>
<path d="M0 0 C0.66 0.66 1.32 1.32 2 2 C1.9765625 5.0390625 1.9765625 5.0390625 1.625 8.625 C1.51414063 9.81351563 1.40328125 11.00203125 1.2890625 12.2265625 C1.19367188 13.14179688 1.09828125 14.05703125 1 15 C-1 13 -1 13 -1.23046875 10.21484375 C-1.21628906 9.13332031 -1.20210937 8.05179688 -1.1875 6.9375 C-1.18105469 5.85339844 -1.17460937 4.76929688 -1.16796875 3.65234375 C-1 1 -1 1 0 0 Z " fill="#904400" transform="translate(216,157)"/>
<path d="M0 0 C0 4.53846154 0 4.53846154 -1 7 C-3.26546849 8.56840126 -5.5414529 9.77072645 -8 11 C-6.63629701 8.00779732 -5.05091917 5.70973471 -2.875 3.25 C-2.33617187 2.63640625 -1.79734375 2.0228125 -1.2421875 1.390625 C-0.62730469 0.70226562 -0.62730469 0.70226562 0 0 Z " fill="#D17827" transform="translate(233,64)"/>
<path d="M0 0 C-0.33 2.31 -0.66 4.62 -1 7 C-1.598125 6.649375 -2.19625 6.29875 -2.8125 5.9375 C-5.10813214 4.66695302 -5.10813214 4.66695302 -8 6 C-6.72879117 2.18637351 -4.19078006 0 0 0 Z " fill="#CE7A28" transform="translate(347,408)"/>
<path d="M0 0 C0.99 0.33 1.98 0.66 3 1 C1.54634731 2.17249353 0.08692581 3.33783816 -1.375 4.5 C-2.18710937 5.1496875 -2.99921875 5.799375 -3.8359375 6.46875 C-6 8 -6 8 -8 8 C-8 7.01 -8 6.02 -8 5 C-6.865625 4.54625 -5.73125 4.0925 -4.5625 3.625 C-0.95278308 2.42904194 -0.95278308 2.42904194 0 0 Z " fill="#CF7726" transform="translate(315,350)"/>
<path d="M0 0 C0.66 0 1.32 0 2 0 C1.93489583 1.98567708 1.86979167 3.97135417 1.8046875 5.95703125 C1.86745538 8.31359719 1.86745538 8.31359719 4 11 C4.99 11.33 5.98 11.66 7 12 C6.67 12.66 6.34 13.32 6 14 C2.535 12.02 2.535 12.02 -1 10 C-0.67 6.7 -0.34 3.4 0 0 Z " fill="#CE7628" transform="translate(262,336)"/>
<path d="M0 0 C0 0.99 0 1.98 0 3 C-0.33 2.67 -0.66 2.34 -1 2 C-4.36629251 1.85363946 -6.78419562 1.92806521 -10 3 C-9.67 1.68 -9.34 0.36 -9 -1 C-5.22102349 -2.0497157 -3.35080929 -2.10976881 0 0 Z " fill="#CC7526" transform="translate(274,333)"/>
<path d="M0 0 C2.375 -0.1875 2.375 -0.1875 5 0 C7.1519437 3.22791555 7.20086443 4.28400809 7 8 C6.01 8.495 6.01 8.495 5 9 C4.34 7.02 3.68 5.04 3 3 C3.33 2.67 3.66 2.34 4 2 C2.35 2 0.7 2 -1 2 C-0.67 1.34 -0.34 0.68 0 0 Z " fill="#843E03" transform="translate(265,205)"/>
<path d="M0 0 C0.33 0.66 0.66 1.32 1 2 C-1.64 1.67 -4.28 1.34 -7 1 C-7 1.99 -7 2.98 -7 4 C-8.98 4.99 -8.98 4.99 -11 6 C-10.63680051 3.3668037 -10.14494976 2.15568678 -8.3125 0.1875 C-5.16827607 -1.42710148 -3.33691324 -0.96399716 0 0 Z " fill="#7F4500" transform="translate(181,45)"/>
<path d="M0 0 C3.96 1.98 7.92 3.96 12 6 C12 6.33 12 6.66 12 7 C10.35 7 8.7 7 7 7 C7 6.34 7 5.68 7 5 C4.69 4.34 2.38 3.68 0 3 C0 2.01 0 1.02 0 0 Z " fill="#CD7728" transform="translate(188,369)"/>
<path d="M0 0 C0.763125 0.0825 1.52625 0.165 2.3125 0.25 C1.673125 0.848125 1.03375 1.44625 0.375 2.0625 C-1.89060389 4.15810337 -1.89060389 4.15810337 -2.6875 7.25 C-3.3475 7.25 -4.0075 7.25 -4.6875 7.25 C-5.0175 8.24 -5.3475 9.23 -5.6875 10.25 C-5.90929212 6.99704886 -5.97351103 4.82202207 -4.5 1.875 C-2.6875 0.25 -2.6875 0.25 0 0 Z " fill="#7F3F01" transform="translate(249.6875,159.75)"/>
<path d="M0 0 C0.66 1.32 1.32 2.64 2 4 C-1.74525799 7.74525799 -5.98270909 7.68909949 -11 8 C-7.66688525 6.2175082 -4.75519057 5.51207144 -1 5 C-0.67 3.35 -0.34 1.7 0 0 Z " fill="#D2792A" transform="translate(284,413)"/>
<path d="M0 0 C0.99 1.32 1.98 2.64 3 4 C2.01 4.33 1.02 4.66 0 5 C-0.33 8.63 -0.66 12.26 -1 16 C-1.33 16 -1.66 16 -2 16 C-2.20674944 10.21101581 -1.59162079 5.57067277 0 0 Z " fill="#D27929" transform="translate(139,315)"/>
<path d="M0 0 C2.625 0.3125 2.625 0.3125 4.4375 1.9375 C5.91101103 4.88452207 5.84679212 7.05954886 5.625 10.3125 C5.295 10.3125 4.965 10.3125 4.625 10.3125 C4.625 8.6625 4.625 7.0125 4.625 5.3125 C3.965 4.9825 3.305 4.6525 2.625 4.3125 C2.295 3.6525 1.965 2.9925 1.625 2.3125 C0.635 2.6425 -0.355 2.9725 -1.375 3.3125 C-2.035 2.6525 -2.695 1.9925 -3.375 1.3125 C-2.375 0.3125 -2.375 0.3125 0 0 Z " fill="#863C00" transform="translate(176.375,313.6875)"/>
<path d="M0 0 C0 3.9765245 -1.38011503 5.0890167 -4 8 C-6.25 9.8125 -6.25 9.8125 -8 11 C-8.66 10.67 -9.32 10.34 -10 10 C-8.37660195 8.29115995 -6.70680947 6.62553283 -5 5 C-4.34 5 -3.68 5 -3 5 C-2.690625 4.360625 -2.38125 3.72125 -2.0625 3.0625 C-1 1 -1 1 0 0 Z " fill="#873E01" transform="translate(356,382)"/>
<path d="M0 0 C0.33 0 0.66 0 1 0 C1.66 2.31 2.32 4.62 3 7 C5.76264289 7.59732819 8.16032769 8 11 8 C10.67 8.66 10.34 9.32 10 10 C6.46322336 10.32152515 4.6037896 10.4131192 1.625 8.375 C-0.4131192 5.3962104 -0.32152515 3.53677664 0 0 Z " fill="#823800" transform="translate(263,301)"/>
<path d="M0 0 C0.99 0 1.98 0 3 0 C3.66 2.31 4.32 4.62 5 7 C5.66 7 6.32 7 7 7 C7.33 7.99 7.66 8.98 8 10 C3.79236776 8.4972742 2.1972242 5.76667005 0 2 C0 1.34 0 0.68 0 0 Z " fill="#CE7A29" transform="translate(164,176)"/>
<path d="M0 0 C4.50802601 1.25805377 7.4912812 2.90407165 11 6 C8.69 6 6.38 6 4 6 C3.67 5.01 3.34 4.02 3 3 C1.50014391 1.33289654 1.50014391 1.33289654 0 0 Z " fill="#CD7829" transform="translate(201,72)"/>
<path d="M0 0 C0.33 0 0.66 0 1 0 C1.99 3.96 2.98 7.92 4 12 C3.01 12.495 3.01 12.495 2 13 C1.67 11.35 1.34 9.7 1 8 C0.01 7.67 -0.98 7.34 -2 7 C-1.34 4.69 -0.68 2.38 0 0 Z " fill="#854000" transform="translate(211,404)"/>
<path d="M0 0 C2.98093122 2.5550839 4.52359755 5.38281401 6 9 C5.6875 11.375 5.6875 11.375 5 13 C4.54625 12.05125 4.0925 11.1025 3.625 10.125 C2.19761746 6.99686321 2.19761746 6.99686321 0 5 C-0.125 2.375 -0.125 2.375 0 0 Z " fill="#843F01" transform="translate(292,384)"/>
<path d="M0 0 C0.99 0.66 1.98 1.32 3 2 C1.66666667 4.66666667 0.33333333 7.33333333 -1 10 C-1.66 10 -2.32 10 -3 10 C-2.01 6.7 -1.02 3.4 0 0 Z " fill="#CC7522" transform="translate(146,290)"/>
<path d="M0 0 C0.99 0 1.98 0 3 0 C2.67 1.98 2.34 3.96 2 6 C-0.97 5.505 -0.97 5.505 -4 5 C-3.01 4.34 -2.02 3.68 -1 3 C-0.67 2.01 -0.34 1.02 0 0 Z " fill="#D76F15" transform="translate(240,255)"/>
<path d="M0 0 C2.97 0.495 2.97 0.495 6 1 C6 1.66 6 2.32 6 3 C5.34 3 4.68 3 4 3 C3.67 4.32 3.34 5.64 3 7 C0 3.375 0 3.375 0 0 Z " fill="#974F08" transform="translate(338,250)"/>
<path d="M0 0 C0.69699552 1.45381897 1.38233866 2.91322953 2.0625 4.375 C2.63677734 5.59316406 2.63677734 5.59316406 3.22265625 6.8359375 C3.47917969 7.55007812 3.73570312 8.26421875 4 9 C3.67 9.66 3.34 10.32 3 11 C2.01 10.34 1.02 9.68 0 9 C-0.6875 5.375 -0.6875 5.375 -1 2 C-1.99 1.67 -2.98 1.34 -4 1 C-2 0 -2 0 0 0 Z " fill="#CD7A29" transform="translate(196,243)"/>
<path d="M0 0 C0 3 0 3 -1 5 C-1.0396713 6.66619446 -1.04384447 8.33391013 -1 10 C-2.32 9.34 -3.64 8.68 -5 8 C-3.8141763 4.62496331 -2.72426311 2.35277269 0 0 Z " fill="#D07927" transform="translate(159,269)"/>
<path d="M0 0 C3.08089673 2.77280706 4.68775452 5.06326356 6 9 C4.35 8.67 2.7 8.34 1 8 C0.67 5.36 0.34 2.72 0 0 Z " fill="#9B5309" transform="translate(353,264)"/>
<path d="M0 0 C-1.05041579 2.86477034 -1.70124563 3.83913226 -4.4375 5.3125 C-7 6 -7 6 -10 5 C-8.71186658 4.16121545 -7.41936744 3.32913217 -6.125 2.5 C-5.40570313 2.0359375 -4.68640625 1.571875 -3.9453125 1.09375 C-2 0 -2 0 0 0 Z " fill="#D07827" transform="translate(313,64)"/>
<path d="M0 0 C0.66 0 1.32 0 2 0 C1.67 3.3 1.34 6.6 1 10 C0.67 10 0.34 10 0 10 C-0.144375 9.236875 -0.28875 8.47375 -0.4375 7.6875 C-0.9632594 4.91827092 -0.9632594 4.91827092 -2 2 C-1.34 1.34 -0.68 0.68 0 0 Z " fill="#CC7C2A" transform="translate(316,61)"/>
<path d="M0 0 C0 0.66 0 1.32 0 2 C-2.31 2.66 -4.62 3.32 -7 4 C-7.66 3.34 -8.32 2.68 -9 2 C-5.5647952 -0.29013653 -4.014669 -0.17842973 0 0 Z " fill="#CD7624" transform="translate(273,235)"/>
<path d="M0 0 C2.33936818 2.12669835 3.80653848 4.06224856 5 7 C5 7.99 5 8.98 5 10 C3.76302083 8.50260417 2.52604167 7.00520833 1.2890625 5.5078125 C0.24749008 4.28948839 -0.86660097 3.13339903 -2 2 C-1.34 2 -0.68 2 0 2 C0 1.34 0 0.68 0 0 Z " fill="#823E00" transform="translate(251,41)"/>
<path d="M0 0 C0.33 0 0.66 0 1 0 C1.33 3.3 1.66 6.6 2 10 C1.67 9.34 1.34 8.68 1 8 C0.34 8 -0.32 8 -1 8 C-1.04241723 5.66705225 -1.04092937 3.33297433 -1 1 C-0.67 0.67 -0.34 0.34 0 0 Z " fill="#7C4602" transform="translate(125,360)"/>
<path d="M0 0 C1.4606285 2.64738916 2 3.89448334 2 7 C1.34 7 0.68 7 0 7 C0 8.98 0 10.96 0 13 C-0.33 13 -0.66 13 -1 13 C-1.0272415 11.58344207 -1.04650467 10.16672955 -1.0625 8.75 C-1.07410156 7.96109375 -1.08570312 7.1721875 -1.09765625 6.359375 C-1.00385306 4.09308998 -0.63241063 2.1711105 0 0 Z " fill="#975E06" transform="translate(125,316)"/>
<path d="M0 0 C1.33332095 2.6666419 0.67102033 4.16680303 0 7 C-0.99 7.33 -1.98 7.66 -3 8 C-3.36923077 3.44615385 -3.36923077 3.44615385 -1.5 1.1875 C-1.005 0.795625 -0.51 0.40375 0 0 Z " fill="#D17824" transform="translate(165,262)"/>
<path d="M0 0 C0.33 1.32 0.66 2.64 1 4 C-0.32 4.99 -1.64 5.98 -3 7 C-3.99 6.34 -4.98 5.68 -6 5 C-5.195625 4.731875 -4.39125 4.46375 -3.5625 4.1875 C-2.716875 3.795625 -1.87125 3.40375 -1 3 C-0.67 2.01 -0.34 1.02 0 0 Z " fill="#CF7727" transform="translate(258,83)"/>
<path d="M0 0 C1.98 0 3.96 0 6 0 C6.66 1.65 7.32 3.3 8 5 C4.62496331 3.8141763 2.35277269 2.72426311 0 0 Z " fill="#CF7828" transform="translate(160,396)"/>
<path d="M0 0 C3.83206182 0.41427695 6.08025204 1.51280729 9 4 C2.375 3.25 2.375 3.25 -1 1 C-0.67 0.67 -0.34 0.34 0 0 Z " fill="#CA7527" transform="translate(228,258)"/>
<path d="M0 0 C-1.75 2 -1.75 2 -4 4 C-5.32 4 -6.64 4 -8 4 C-7 1 -7 1 -4.5625 -0.25 C-2 -1 -2 -1 0 0 Z " fill="#D07827" transform="translate(335,416)"/>
<path d="M0 0 C0.86625 0.3403125 0.86625 0.3403125 1.75 0.6875 C0 2.25 0 2.25 -2.25 3.6875 C-4.5 3.375 -4.5 3.375 -6.25 2.6875 C-2.80384615 -0.38942308 -2.80384615 -0.38942308 0 0 Z " fill="#CE7728" transform="translate(259.25,385.3125)"/>
<path d="M0 0 C2.72426311 2.35277269 3.8141763 4.62496331 5 8 C3.68 8 2.36 8 1 8 C0.67 5.36 0.34 2.72 0 0 Z " fill="#834001" transform="translate(195,208)"/>
<path d="M0 0 C2.00720923 0.28674418 4.0085944 0.61866701 6 1 C6.33 2.32 6.66 3.64 7 5 C4.33333333 3.66666667 1.66666667 2.33333333 -1 1 C-0.67 0.67 -0.34 0.34 0 0 Z " fill="#8A3E00" transform="translate(219,154)"/>
<path d="M0 0 C4.455 0.99 4.455 0.99 9 2 C9 2.99 9 3.98 9 5 C8.1646875 4.505 8.1646875 4.505 7.3125 4 C4.69715478 2.8690399 2.8193354 2.84337026 0 3 C0 2.01 0 1.02 0 0 Z " fill="#D37A29" transform="translate(276,152)"/>
</svg>
