<?xml version="1.0" encoding="UTF-8"?>
<svg version="1.1" xmlns="http://www.w3.org/2000/svg" width="486" height="513">
<path d="M0 0 C18.53773349 14.64634151 31.51554047 33.40691211 34.61328125 57.1171875 C34.87517186 59.36583449 35.1294938 61.61544519 35.36328125 63.8671875 C36.11222656 64.11984375 36.86117187 64.3725 37.6328125 64.6328125 C42.84520733 66.98920272 46.28219042 71.70500584 48.80078125 76.7421875 C50.37126198 85.46708046 49.16887053 91.88224571 45.36328125 99.8671875 C44.70328125 99.8671875 44.04328125 99.8671875 43.36328125 99.8671875 C43.09515625 100.5065625 42.82703125 101.1459375 42.55078125 101.8046875 C41.36328125 103.8671875 41.36328125 103.8671875 38.36328125 104.8671875 C38.36328125 105.5271875 38.36328125 106.1871875 38.36328125 106.8671875 C36.71851946 107.8226006 35.04590527 108.73015201 33.36328125 109.6171875 C25.95552503 114.12875 23.12255008 120.36749329 19.36328125 127.8671875 C18.70328125 128.8571875 18.04328125 129.8471875 17.36328125 130.8671875 C16.70328125 130.8671875 16.04328125 130.8671875 15.36328125 130.8671875 C15.09773437 131.44984375 14.8321875 132.0325 14.55859375 132.6328125 C13.33025129 134.92892978 11.96013186 136.67074768 10.23828125 138.6171875 C9.69945312 139.23078125 9.160625 139.844375 8.60546875 140.4765625 C7.99058594 141.16492188 7.99058594 141.16492188 7.36328125 141.8671875 C7.96914063 142.02574219 8.575 142.18429688 9.19921875 142.34765625 C23.92713588 146.44881471 39.76772781 155.81167709 48.36328125 168.8671875 C48.36328125 169.5271875 48.36328125 170.1871875 48.36328125 170.8671875 C49.02328125 170.8671875 49.68328125 170.8671875 50.36328125 170.8671875 C73.23151595 196.57850003 81.6078284 237.68143539 80.36328125 270.8671875 C79.15696608 284.50312982 73.26573413 298.43578149 64.36328125 308.8671875 C63.70328125 308.8671875 63.04328125 308.8671875 62.36328125 308.8671875 C62.15703125 309.4034375 61.95078125 309.9396875 61.73828125 310.4921875 C59.83077699 313.78696759 57.31508741 316.46082378 54.36328125 318.8671875 C53.70328125 318.8671875 53.04328125 318.8671875 52.36328125 318.8671875 C52.5742041 319.855979 52.78512695 320.84477051 53.00244141 321.86352539 C56.84523717 339.89969624 60.64104876 357.93611003 64.05957031 376.05834961 C65.44303943 383.32438589 66.92860515 390.55645772 68.51171875 397.78125 C68.88413145 399.49413696 69.2565273 401.20702758 69.62890625 402.91992188 C70.34585649 406.21380509 71.08010929 409.50317681 71.82421875 412.79101562 C76.03455042 431.79378262 76.03455042 431.79378262 74.36328125 438.8671875 C70.96500364 442.27418423 68.11407093 443.69311483 63.36426306 443.99368733 C62.65407601 443.99439176 61.94388896 443.99509618 61.21218109 443.99582195 C60.38808573 443.9990464 59.56399037 444.00227085 58.71492243 444.005593 C57.81492942 444.0040444 56.91493642 444.0024958 55.9876709 444.00090027 C55.02744066 444.00316583 54.06721042 444.00543138 53.07788229 444.00776559 C49.85203959 444.01410878 46.62623888 444.01327602 43.40039062 444.01245117 C41.09104864 444.01544242 38.78170716 444.01884486 36.47236633 444.02262878 C30.19360657 444.03147535 23.91486044 444.03380714 17.63609505 444.03444457 C12.39968328 444.03539305 7.16327469 444.03907055 1.92686415 444.04261667 C-9.71693102 444.05029779 -21.36071952 444.05328506 -33.00451702 444.05261131 C-33.70314847 444.05257136 -34.40177993 444.0525314 -35.12158203 444.05249023 C-35.82106525 444.05244935 -36.52054848 444.05240847 -37.24122816 444.05236635 C-48.58380652 444.05195968 -59.92635172 444.06153492 -71.26892048 444.0756286 C-82.9127171 444.08998258 -94.556496 444.09671608 -106.20030165 444.09603482 C-112.73855543 444.09577938 -119.27677166 444.09865599 -125.8150177 444.10921288 C-131.96107629 444.11886549 -138.10706121 444.11899259 -144.25312233 444.11169624 C-146.51225199 444.11064694 -148.77138617 444.11303363 -151.03050804 444.1190567 C-154.10746256 444.1267307 -157.18415975 444.12216238 -160.2611084 444.11442566 C-161.1611014 444.11956922 -162.06109441 444.12471279 -162.98835993 444.13001221 C-163.81245529 444.12541342 -164.63655065 444.12081462 -165.48561859 444.11607647 C-166.19580564 444.11629384 -166.90599269 444.11651121 -167.63770056 444.11673516 C-170.03990887 443.81685522 -171.58901866 443.1535549 -173.63671875 441.8671875 C-178.38772073 434.74068453 -175.1611698 423.79433294 -173.63671875 415.8671875 C-172.9838296 413.05976417 -172.26758059 410.27413058 -171.54296875 407.484375 C-167.68686099 392.09318626 -164.75838508 376.49595252 -161.88110352 360.8984375 C-160.06604026 351.0697556 -158.14486131 341.26683171 -156.109375 331.48095703 C-155.91472656 330.53075684 -155.72007812 329.58055664 -155.51953125 328.6015625 C-155.26260498 327.36744629 -155.26260498 327.36744629 -155.00048828 326.10839844 C-154.52991026 323.58755593 -154.52991026 323.58755593 -154.63671875 319.8671875 C-155.62671875 319.2071875 -156.61671875 318.5471875 -157.63671875 317.8671875 C-157.63671875 317.2071875 -157.63671875 316.5471875 -157.63671875 315.8671875 C-158.23484375 315.5990625 -158.83296875 315.3309375 -159.44921875 315.0546875 C-161.63519729 313.86801344 -163.05004469 312.77119637 -164.63671875 310.8671875 C-164.63671875 310.2071875 -164.63671875 309.5471875 -164.63671875 308.8671875 C-165.29671875 308.8671875 -165.95671875 308.8671875 -166.63671875 308.8671875 C-180.35081363 291.00777427 -184.44321814 269.59416903 -182.19921875 247.546875 C-179.77814016 231.70898589 -175.84987014 216.63631241 -169.63671875 201.8671875 C-169.32863281 201.12742676 -169.02054688 200.38766602 -168.703125 199.62548828 C-162.13878324 184.12369989 -152.89083731 170.48307072 -140.63671875 158.8671875 C-139.97671875 158.8671875 -139.31671875 158.8671875 -138.63671875 158.8671875 C-138.63671875 158.2071875 -138.63671875 157.5471875 -138.63671875 156.8671875 C-130.1632009 149.70976923 -120.19722012 145.00472776 -109.63671875 141.8671875 C-110.89346758 138.09694101 -112.79537985 136.64538554 -115.63671875 133.8671875 C-120.41016828 128.96541943 -127.63671875 120.97892631 -127.63671875 113.8671875 C-128.72339844 113.48240234 -128.72339844 113.48240234 -129.83203125 113.08984375 C-138.13769564 109.46912933 -144.78594495 102.38811202 -149.63671875 94.8671875 C-151.62937143 88.88922947 -151.85849159 81.35718436 -149.765625 75.37890625 C-147.02874952 70.75762471 -143.10894876 66.84116413 -138.63671875 63.8671875 C-137.97671875 63.8671875 -137.31671875 63.8671875 -136.63671875 63.8671875 C-136.62253906 63.1865625 -136.60835937 62.5059375 -136.59375 61.8046875 C-135.93574892 48.43126012 -131.7101743 36.19897019 -124.63671875 24.8671875 C-124.09402344 23.98546875 -123.55132812 23.10375 -122.9921875 22.1953125 C-120.06743592 17.61249007 -120.06743592 17.61249007 -118.63671875 15.8671875 C-117.97671875 15.8671875 -117.31671875 15.8671875 -116.63671875 15.8671875 C-116.26546875 15.00867187 -116.26546875 15.00867187 -115.88671875 14.1328125 C-114.44355676 11.51708139 -112.75455653 9.71945294 -110.63671875 7.6171875 C-109.58484375 6.55757812 -109.58484375 6.55757812 -108.51171875 5.4765625 C-106.63671875 3.8671875 -106.63671875 3.8671875 -104.63671875 3.8671875 C-104.63671875 3.2071875 -104.63671875 2.5471875 -104.63671875 1.8671875 C-73.21454338 -20.96660279 -31.71115292 -23.35518627 0 0 Z " fill="#864108" transform="translate(290.63671875,45.1328125)"/>
<path d="M0 0 C4.79971405 21.80418506 9.16550093 43.69501155 13.48776627 65.59778595 C13.93839725 67.87954322 14.39013248 70.16107949 14.84213257 72.44256592 C15.56331049 76.08406944 16.28134762 79.72617866 16.9969101 83.36878967 C17.26556629 84.73442115 17.53514223 86.09987204 17.80567169 87.46513367 C18.17907084 89.35105753 18.54849729 91.23776666 18.91772461 93.12451172 C19.23246986 94.72394119 19.23246986 94.72394119 19.55357361 96.35568237 C20 99 20 99 20 102 C-52.6 102 -125.2 102 -200 102 C-194.54946562 72.56711436 -194.54946562 72.56711436 -191.4609375 58.01171875 C-189.51139526 48.72971598 -187.66798753 39.42616001 -185.8125 30.125 C-185.63810394 29.25106598 -185.46370789 28.37713196 -185.2840271 27.47671509 C-184.46682332 23.38077202 -183.6502978 19.28469444 -182.83447266 15.18847656 C-181.89236901 10.45843907 -180.94679134 5.72910135 -180 1 C-175.55401653 1.77225636 -172.53709079 3.27522495 -168.625 5.5625 C-145.70145805 18.28945638 -115.77384632 26.44855208 -89.5625 26.3125 C-88.47227539 26.30903564 -87.38205078 26.30557129 -86.25878906 26.30200195 C-73.36280878 26.14570167 -73.36280878 26.14570167 -61.5625 21.44921875 C-58.51963415 19.72832968 -56.21974814 19.46210823 -52.75 19.125 C-35.70354702 16.92316649 -15.08825807 0 0 0 Z " fill="#D7722A" transform="translate(330,373)"/>
<path d="M0 0 C4.10485211 0.22653709 6.6944761 2.98733568 9.75 5.5 C27.69384619 19.75968582 48.60387638 26.99504613 71 31 C72.16165032 39.9886923 73.27247184 48.96333446 74 58 C75.15628906 57.96519531 75.15628906 57.96519531 76.3359375 57.9296875 C77.33882812 57.91164062 78.34171875 57.89359375 79.375 57.875 C80.37273437 57.85179687 81.37046875 57.82859375 82.3984375 57.8046875 C85 58 85 58 87 60 C87.62389961 63.46610896 87.64143925 65.88350164 85.85546875 68.9921875 C82.41054139 73.30044216 79.00151348 75.59622158 74.0625 78 C67.64712627 81.47100445 65.70393474 85.54834321 62.86743164 91.94311523 C59.96954693 98.41733679 56.14050928 103.09688547 51 108 C50.08154297 108.93005859 50.08154297 108.93005859 49.14453125 109.87890625 C39.85429861 118.73334973 28.30295995 123.89797164 16 127 C15.37303223 127.1750708 14.74606445 127.3501416 14.10009766 127.53051758 C-3.52632136 131.47095047 -20.95459734 125.90392527 -36 117 C-47.39860878 109.40600029 -58.70561243 97.7509526 -62.80078125 84.38671875 C-64.52882995 80.94750781 -66.91283648 79.96120185 -70.25 78.125 C-80.27565987 72.30529393 -80.27565987 72.30529393 -83 67 C-83.5625 63.1875 -83.5625 63.1875 -83 60 C-79.68629 57.79086 -78.6553979 57.77518447 -74.8125 57.875 C-73.91144531 57.89304688 -73.01039063 57.91109375 -72.08203125 57.9296875 C-71.39496094 57.95289063 -70.70789063 57.97609375 -70 58 C-69.94465088 57.39526855 -69.88930176 56.79053711 -69.83227539 56.16748047 C-69.57796135 53.40310534 -69.32025918 50.63905593 -69.0625 47.875 C-68.97548828 46.92367187 -68.88847656 45.97234375 -68.79882812 44.9921875 C-68.35804822 40.29053519 -67.86831805 35.64667498 -67 31 C-65.84886719 30.79246094 -64.69773438 30.58492187 -63.51171875 30.37109375 C-41.9306972 26.27687874 -17.34253362 18.7037375 -2.0625 1.9375 C-1.381875 1.298125 -0.70125 0.65875 0 0 Z " fill="#D7712A" transform="translate(238,66)"/>
<path d="M0 0 C17.75226669 4.12386726 30.86583794 15.72051831 40.375 30.875 C48.75800095 44.83393402 54.28197755 59.45979245 59 75 C59.54720703 76.71703125 59.54720703 76.71703125 60.10546875 78.46875 C62.28429985 86.57031917 62.33351734 94.71285582 62.4375 103.0625 C62.45997803 104.23433838 62.48245605 105.40617676 62.50561523 106.61352539 C62.46230053 122.46337363 56.88603054 136.10812965 46 147.625 C39.60854074 153.6933937 32.54006311 158.47213954 25 163 C24.39140137 163.36754395 23.78280273 163.73508789 23.15576172 164.11376953 C13.9156709 169.59720068 0.95279912 177 -10 177 C-9.97381592 176.38592285 -9.94763184 175.7718457 -9.9206543 175.13916016 C-8.84653873 159.189935 -8.84653873 159.189935 -15 145 C-16.06030381 143.58103393 -17.12016443 142.16173663 -18.1796875 140.7421875 C-19.11911128 139.49427918 -20.05899113 138.24671349 -21 137 C-20.33170166 136.71914551 -19.66340332 136.43829102 -18.97485352 136.14892578 C-2.26220043 129.10398869 -2.26220043 129.10398869 13.75 120.625 C14.42087646 120.23328613 15.09175293 119.84157227 15.78295898 119.43798828 C20.84241957 116.36059116 25.96782179 112.79994645 28 107 C30.19891031 93.61194433 26.47856097 71.37948658 19 60 C14.43517217 58.74343987 14.43517217 58.74343987 10 59.9375 C6.73161435 66.6785454 12.12833614 78.81790926 13.91601562 85.625 C15.57322574 92.22173955 16.40283209 98.19851829 16 105 C0.47770083 114.11935076 -14.69939731 121.81340853 -32 127 C-32.88498169 127.27396606 -32.88498169 127.27396606 -33.7878418 127.5534668 C-39.70812923 128.74850109 -46.03049457 128.34011174 -52.0625 128.375 C-53.21008789 128.38234161 -53.21008789 128.38234161 -54.38085938 128.38983154 C-66.43485702 128.42182938 -77.70454099 127.6132444 -89 123 C-89.66 122.34 -90.32 121.68 -91 121 C-84.52146112 112.53995574 -77.98224354 104.13083004 -71.38671875 95.76171875 C-70.01582318 94.02010212 -68.64800009 92.27612115 -67.28125 90.53125 C-62.0564539 83.86331655 -56.79466513 77.22705453 -51.49169922 70.62109375 C-48.50165208 66.89203204 -45.53970582 63.14294077 -42.60131836 59.37304688 C-40.41382849 56.5717302 -38.20656475 53.78631504 -36 51 C-35.37609375 50.19433594 -34.7521875 49.38867188 -34.109375 48.55859375 C-31.09578923 44.84794024 -28.31457062 42.45468443 -24.125 40.125 C-12.95732145 33.81135802 -6.29728918 23.0011513 -2.74609375 10.90234375 C-1.74442797 7.28730619 -0.84855692 3.65378627 0 0 Z " fill="#D9732B" transform="translate(294,201)"/>
<path d="M0 0 C18.53773349 14.64634151 31.51554047 33.40691211 34.61328125 57.1171875 C34.87517186 59.36583449 35.1294938 61.61544519 35.36328125 63.8671875 C36.11222656 64.11984375 36.86117187 64.3725 37.6328125 64.6328125 C42.84520733 66.98920272 46.28219042 71.70500584 48.80078125 76.7421875 C50.37126198 85.46708046 49.16887053 91.88224571 45.36328125 99.8671875 C44.70328125 99.8671875 44.04328125 99.8671875 43.36328125 99.8671875 C43.36328125 100.5271875 43.36328125 101.1871875 43.36328125 101.8671875 C41.71328125 101.8671875 40.06328125 101.8671875 38.36328125 101.8671875 C38.36328125 101.2071875 38.36328125 100.5471875 38.36328125 99.8671875 C35.88828125 100.3621875 35.88828125 100.3621875 33.36328125 100.8671875 C33.36328125 99.8771875 33.36328125 98.8871875 33.36328125 97.8671875 C28.54133482 98.19223009 28.54133482 98.19223009 24.42578125 100.4296875 C24.07515625 100.9040625 23.72453125 101.3784375 23.36328125 101.8671875 C22.70328125 101.5371875 22.04328125 101.2071875 21.36328125 100.8671875 C22.51544359 97.41070047 23.32852889 96.93880223 26.23828125 94.9296875 C29.22492935 92.86327968 31.44256056 90.98090241 33.36328125 87.8671875 C33.69708939 84.24154936 33.69708939 84.24154936 33.36328125 80.8671875 C32.30786981 79.58211454 32.30786981 79.58211454 29.89453125 79.8046875 C28.89421875 79.8253125 27.89390625 79.8459375 26.86328125 79.8671875 C25.03033749 79.90498015 23.19602735 79.91358614 21.36328125 79.8671875 C19.56128333 78.06518958 19.99841111 75.30404881 19.828125 72.86328125 C19.69760742 71.04086914 19.69760742 71.04086914 19.56445312 69.18164062 C19.47744141 67.90224609 19.39042969 66.62285156 19.30078125 65.3046875 C19.16446289 63.37979492 19.16446289 63.37979492 19.02539062 61.41601562 C18.80059179 58.23333735 18.58008307 55.05041892 18.36328125 51.8671875 C17.39704834 51.77566406 16.43081543 51.68414062 15.43530273 51.58984375 C-7.05279245 49.32176191 -31.78646863 39.1857967 -47.8828125 23.0546875 C-49.55713236 21.66627575 -49.55713236 21.66627575 -51.61328125 21.95703125 C-54.11220745 23.08106562 -55.61738358 24.51041154 -57.57421875 26.4296875 C-73.42697281 40.8882254 -98.06210728 51.35461574 -119.63671875 51.8671875 C-120.10619207 57.23116991 -120.5684217 62.59364078 -120.890625 67.96875 C-120.93195557 68.64800537 -120.97328613 69.32726074 -121.01586914 70.02709961 C-121.13273823 71.98790324 -121.244199 73.94902691 -121.35546875 75.91015625 C-121.63671875 78.8671875 -121.63671875 78.8671875 -122.63671875 79.8671875 C-125.19235246 79.93930415 -127.73332328 79.86352466 -130.2890625 79.8046875 C-132.65917282 79.70205957 -132.65917282 79.70205957 -134.63671875 80.8671875 C-135.15371213 85.08930007 -135.04880584 87.93686422 -132.44921875 91.3046875 C-129.44670004 94.55026725 -126.0664297 96.33569079 -122.19921875 98.4296875 C-115.51396741 102.33320727 -113.26566965 106.42720459 -110.234375 113.3984375 C-103.04740935 129.00241181 -87.26153197 139.40812992 -71.63671875 145.3046875 C-54.3548297 151.32634571 -35.72023245 148.33887197 -19.61328125 140.6171875 C-16.51212069 139.44046255 -13.91507518 139.58817844 -10.63671875 139.8671875 C-11.11109375 140.6096875 -11.58546875 141.3521875 -12.07421875 142.1171875 C-13.443459 144.52705033 -14.11974155 146.19613863 -14.63671875 148.8671875 C-14.97005208 150.20052083 -15.30338542 151.53385417 -15.63671875 152.8671875 C-13.65671875 152.2071875 -11.67671875 151.5471875 -9.63671875 150.8671875 C-9.63671875 153.5071875 -9.63671875 156.1471875 -9.63671875 158.8671875 C-9.96671875 158.8671875 -10.29671875 158.8671875 -10.63671875 158.8671875 C-10.96671875 157.2171875 -11.29671875 155.5671875 -11.63671875 153.8671875 C-12.56871094 154.26550781 -13.50070312 154.66382813 -14.4609375 155.07421875 C-36.6545271 164.39077124 -59.62051825 166.45111273 -82.32421875 157.3046875 C-85.34937686 155.99064724 -87.88385978 154.70242682 -90.63671875 152.8671875 C-90.96671875 154.1871875 -91.29671875 155.5071875 -91.63671875 156.8671875 C-91.82421875 154.4921875 -91.82421875 154.4921875 -91.63671875 151.8671875 C-90.64671875 151.2071875 -89.65671875 150.5471875 -88.63671875 149.8671875 C-88.63671875 148.8771875 -88.63671875 147.8871875 -88.63671875 146.8671875 C-87.64671875 146.5371875 -86.65671875 146.2071875 -85.63671875 145.8671875 C-85.63671875 145.2071875 -85.63671875 144.5471875 -85.63671875 143.8671875 C-84.97671875 143.5371875 -84.31671875 143.2071875 -83.63671875 142.8671875 C-85.015868 141.80352991 -86.41586477 140.76686267 -87.82421875 139.7421875 C-88.60152344 139.16210938 -89.37882812 138.58203125 -90.1796875 137.984375 C-92.61693349 136.55919838 -92.61693349 136.55919838 -95.265625 137.59375 C-100.22644087 139.90638502 -100.22644087 139.90638502 -103.63671875 143.8671875 C-105.28671875 143.8671875 -106.93671875 143.8671875 -108.63671875 143.8671875 C-107.97671875 143.5371875 -107.31671875 143.2071875 -106.63671875 142.8671875 C-106.63671875 142.2071875 -106.63671875 141.5471875 -106.63671875 140.8671875 C-107.62671875 140.8671875 -108.61671875 140.8671875 -109.63671875 140.8671875 C-112.26514672 138.47948189 -114.40370942 135.6229136 -116.63671875 132.8671875 C-117.25417969 132.12339844 -117.87164062 131.37960938 -118.5078125 130.61328125 C-127.63671875 119.32484879 -127.63671875 119.32484879 -127.63671875 113.8671875 C-128.36117187 113.61066406 -129.085625 113.35414063 -129.83203125 113.08984375 C-138.13769564 109.46912933 -144.78594495 102.38811202 -149.63671875 94.8671875 C-151.62937143 88.88922947 -151.85849159 81.35718436 -149.765625 75.37890625 C-147.02874952 70.75762471 -143.10894876 66.84116413 -138.63671875 63.8671875 C-137.97671875 63.8671875 -137.31671875 63.8671875 -136.63671875 63.8671875 C-136.62253906 63.1865625 -136.60835937 62.5059375 -136.59375 61.8046875 C-135.93574892 48.43126012 -131.7101743 36.19897019 -124.63671875 24.8671875 C-124.09402344 23.98546875 -123.55132812 23.10375 -122.9921875 22.1953125 C-120.06743592 17.61249007 -120.06743592 17.61249007 -118.63671875 15.8671875 C-117.97671875 15.8671875 -117.31671875 15.8671875 -116.63671875 15.8671875 C-116.38921875 15.29484375 -116.14171875 14.7225 -115.88671875 14.1328125 C-114.44355676 11.51708139 -112.75455653 9.71945294 -110.63671875 7.6171875 C-109.58484375 6.55757812 -109.58484375 6.55757812 -108.51171875 5.4765625 C-106.63671875 3.8671875 -106.63671875 3.8671875 -104.63671875 3.8671875 C-104.63671875 3.2071875 -104.63671875 2.5471875 -104.63671875 1.8671875 C-73.21454338 -20.96660279 -31.71115292 -23.35518627 0 0 Z " fill="#824008" transform="translate(290.63671875,45.1328125)"/>
<path d="M0 0 C0.08636719 0.79921875 0.17273438 1.5984375 0.26171875 2.421875 C2.01923664 16.1595378 6.54767335 27.99894724 17.45703125 37.03515625 C19.913923 38.81272309 22.40283142 40.43584372 25 42 C25.64582031 42.39960938 26.29164063 42.79921875 26.95703125 43.2109375 C35.07739334 47.75834027 44.84469381 49.10242096 54 50 C52.70844815 52.7349848 51.28712231 55.10899635 49.453125 57.51171875 C48.94475098 58.17880859 48.43637695 58.84589844 47.91259766 59.53320312 C47.36394043 60.24412109 46.8152832 60.95503906 46.25 61.6875 C45.67942871 62.43064453 45.10885742 63.17378906 44.52099609 63.93945312 C39.18701337 70.84242506 33.64603354 77.56614171 28.07421875 84.27734375 C25.28342235 87.64313254 22.58195994 91.06612602 19.92578125 94.5390625 C16.47473414 98.94912271 12.90800073 103.26728567 9.35327148 107.59399414 C8.80614502 108.26293701 8.25901855 108.93187988 7.6953125 109.62109375 C7.20047363 110.2236499 6.70563477 110.82620605 6.19580078 111.44702148 C4.91872199 113.00310038 4.91872199 113.00310038 4 115 C-0.83914761 114.39979564 -4.54845469 112.31530243 -8.75 110 C-9.43449219 109.63132812 -10.11898437 109.26265625 -10.82421875 108.8828125 C-15.83698593 106.16301407 -15.83698593 106.16301407 -17 105 C-17.89425039 96.9807666 -15.96314365 89.52800825 -14 81.8125 C-10.4640313 70.8372869 -10.4640313 70.8372869 -12.125 60 C-14.98873147 58.47267655 -16.95300191 59.15721329 -20 60 C-24.00834061 64.00834061 -24.39503293 71.15801111 -25.625 76.625 C-25.78474304 77.32985535 -25.94448608 78.03471069 -26.10906982 78.76092529 C-30.28930701 95.25718581 -30.28930701 95.25718581 -27.8984375 111.6328125 C-25.4033337 114.74399132 -22.46473605 116.41273553 -19 118.25 C-18.30447021 118.62914551 -17.60894043 119.00829102 -16.89233398 119.39892578 C-11.35695714 122.3737243 -5.72857624 125.15878819 -0.0625 127.875 C1.08895508 128.42849121 1.08895508 128.42849121 2.26367188 128.99316406 C7.39754408 131.40063563 12.58474603 133.32230481 18 135 C16.4535221 139.10589882 14.52433526 142.92251678 12.5 146.8125 C7.27036181 157.20615481 6.7306628 165.50827939 7 177 C-11.29676359 172.3818265 -28.69901818 163.20880115 -43 151 C-43.57234375 150.56042969 -44.1446875 150.12085938 -44.734375 149.66796875 C-56.48880061 140.60979025 -61.62264069 126.16063723 -64 112 C-67.3722757 81.16241217 -53.10377954 46.9248427 -35.1953125 22.54296875 C-27.66255656 13.4063485 -12.69473304 0 0 0 Z " fill="#D8732B" transform="translate(187,201)"/>
<path d="M0 0 C2.8125 0.9375 2.8125 0.9375 4.8125 3.9375 C5.6676257 11.83672365 2.87575879 19.57120139 0.9453125 27.15820312 C-0.69761021 33.89027452 -1.61161372 40.00540057 -1.1875 46.9375 C1.58133196 48.42043582 4.3528973 49.89818862 7.125 51.375 C7.91068359 51.79587891 8.69636719 52.21675781 9.50585938 52.65039062 C10.26318359 53.05322266 11.02050781 53.45605469 11.80078125 53.87109375 C12.49727783 54.24290771 13.19377441 54.61472168 13.91137695 54.99780273 C15.94967004 56.05926989 15.94967004 56.05926989 18.8125 56.9375 C19.06 56.31875 19.3075 55.7 19.5625 55.0625 C21.01878639 52.58681313 22.19062506 51.98624998 24.8125 50.9375 C24.4825 52.5875 24.1525 54.2375 23.8125 55.9375 C22.8225 55.9375 21.8325 55.9375 20.8125 55.9375 C20.1525 57.2575 19.4925 58.5775 18.8125 59.9375 C19.740625 59.421875 20.66875 58.90625 21.625 58.375 C24.8125 56.9375 24.8125 56.9375 27.8125 57.9375 C29.95505793 57.54817144 29.95505793 57.54817144 31.8125 56.9375 C32.1425 57.5975 32.4725 58.2575 32.8125 58.9375 C32.998125 58.009375 32.998125 58.009375 33.1875 57.0625 C33.8125 54.9375 33.8125 54.9375 35.8125 52.9375 C35.8125 52.2775 35.8125 51.6175 35.8125 50.9375 C37.4625 50.2775 39.1125 49.6175 40.8125 48.9375 C39.46320536 52.77413072 37.73498975 55.58922569 35.1875 58.75 C34.24003906 59.93529297 34.24003906 59.93529297 33.2734375 61.14453125 C32.79132813 61.73621094 32.30921875 62.32789063 31.8125 62.9375 C43.98028155 67.85141178 55.46356435 69.52055286 68.5 69.4375 C69.25361816 69.43540527 70.00723633 69.43331055 70.78369141 69.43115234 C82.17978563 69.36578278 92.28916859 68.52812443 102.8125 63.9375 C104.29267535 63.33781696 105.77315879 62.73889397 107.25390625 62.140625 C117.54304047 57.85874381 127.21798467 52.5844082 136.8125 46.9375 C137.28492025 38.96108057 135.89475269 32.00327456 133.875 24.3125 C128.99465735 5.33464785 128.99465735 5.33464785 131.3125 1.375 C133.8125 -0.0625 133.8125 -0.0625 137.375 -0.125 C140.8125 0.9375 140.8125 0.9375 142.41333008 3.12353516 C148.85507939 16.07897095 154.21386534 37.06187585 150.12890625 51.32421875 C143.34431155 65.18379937 116.43457186 73.31839536 102.8125 78.9375 C102.8125 82.85333897 106.57180188 86.09801662 108.8671875 89.11328125 C112.79431094 94.81470744 113.10332709 99.26198627 113 106 C112.9990332 107.20366211 112.9990332 107.20366211 112.99804688 108.43164062 C112.97047768 112.12284993 112.81703545 115.36576272 111.8125 118.9375 C122.55940008 115.39801415 132.95745237 111.7317355 142.96484375 106.41796875 C146.49800149 104.58111445 150.03934873 103.19521709 153.8125 101.9375 C154.1425 102.9275 154.4725 103.9175 154.8125 104.9375 C154.4825 105.2675 154.1525 105.5975 153.8125 105.9375 C153.4825 106.9275 153.1525 107.9175 152.8125 108.9375 C155.1225 109.2675 157.4325 109.5975 159.8125 109.9375 C160.1425 112.5775 160.4725 115.2175 160.8125 117.9375 C159.8225 118.2675 158.8325 118.5975 157.8125 118.9375 C157.4825 117.6175 157.1525 116.2975 156.8125 114.9375 C155.7709375 115.51757812 154.729375 116.09765625 153.65625 116.6953125 C138.02439985 125.27010991 120.84618124 133.0455349 102.8125 134.4375 C98.96480823 134.7357143 96.3521491 136.06343464 93.00244141 137.90380859 C76.43238265 145.72517189 52.7918392 141.37608245 35.8125 136.9375 C34.9570459 136.71787598 34.1015918 136.49825195 33.22021484 136.27197266 C23.47366192 133.73056663 13.90506309 130.75009943 4.4375 127.3125 C3.67107178 127.03559326 2.90464355 126.75868652 2.11499023 126.47338867 C-2.62079529 124.69832275 -6.85793637 122.55351602 -11.1875 119.9375 C-10.1975 119.4425 -10.1975 119.4425 -9.1875 118.9375 C-7.0234375 119.71484375 -7.0234375 119.71484375 -4.5625 120.875 C-3.74523437 121.25527344 -2.92796875 121.63554687 -2.0859375 122.02734375 C-1.45945313 122.32769531 -0.83296875 122.62804687 -0.1875 122.9375 C-1.1775 120.9575 -2.1675 118.9775 -3.1875 116.9375 C-1.8675 115.2875 -0.5475 113.6375 0.8125 111.9375 C-0.8375 111.2775 -2.4875 110.6175 -4.1875 109.9375 C-3.1975 109.4425 -3.1975 109.4425 -2.1875 108.9375 C0.01164263 109.75035514 2.17357612 110.66480917 4.3125 111.625 C5.57508131 112.18458649 6.838106 112.74317362 8.1015625 113.30078125 C8.72708008 113.57873535 9.35259766 113.85668945 9.99707031 114.14306641 C13.89179232 115.84740011 17.8545705 117.38715895 21.8125 118.9375 C21.4825 118.2775 21.1525 117.6175 20.8125 116.9375 C19.41780246 101.82446596 24.55258485 89.32737273 32.8125 76.9375 C31.92433594 76.80988281 31.03617188 76.68226563 30.12109375 76.55078125 C20.4711877 74.76207375 11.5253668 69.37453868 2.875 64.9375 C1.86767822 64.42727295 0.86035645 63.9170459 -0.17749023 63.39135742 C-6.68775559 60.00169709 -11.07827756 57.10133366 -15.1875 50.9375 C-16.95960083 40.08534269 -14.30667327 29.25760838 -12 18.6875 C-11.85410431 17.99120483 -11.70820862 17.29490967 -11.55789185 16.57751465 C-11.12987629 14.56154448 -10.67349567 12.55425783 -10.20703125 10.546875 C-9.80641479 8.7829541 -9.80641479 8.7829541 -9.39770508 6.98339844 C-7.54579007 2.32241566 -5.10863154 -0.10016925 0 0 Z " fill="#854008" transform="translate(172.1875,259.0625)"/>
<path d="M0 0 C9.23211034 5.39283815 19.05949027 11.87428275 25 21 C25 21.66 25 22.32 25 23 C25.66 23 26.32 23 27 23 C49.8682347 48.71131253 58.24454715 89.81424789 57 123 C55.79368483 136.63594232 49.90245288 150.56859399 41 161 C40.34 161 39.68 161 39 161 C38.79375 161.53625 38.5875 162.0725 38.375 162.625 C36.46749574 165.91978009 33.95180616 168.59363628 31 171 C30.34 171 29.68 171 29 171 C29.21092285 171.9887915 29.4218457 172.97758301 29.63916016 173.99633789 C33.48195592 192.03250874 37.27776751 210.06892253 40.69628906 228.19116211 C42.07975818 235.45719839 43.5653239 242.68927022 45.1484375 249.9140625 C45.5208502 251.62694946 45.89324605 253.33984008 46.265625 255.05273438 C46.98257524 258.34661759 47.71682804 261.63598931 48.4609375 264.92382812 C52.67126917 283.92659512 52.67126917 283.92659512 51 291 C47.60172239 294.40699673 44.75078968 295.82592733 40.00098181 296.12649983 C39.29079476 296.12720426 38.58060771 296.12790868 37.84889984 296.12863445 C37.02480448 296.1318589 36.20070912 296.13508335 35.35164118 296.1384055 C34.45164817 296.1368569 33.55165517 296.1353083 32.62438965 296.13371277 C31.66415941 296.13597833 30.70392917 296.13824388 29.71460104 296.14057809 C26.48875834 296.14692128 23.26295763 296.14608852 20.03710938 296.14526367 C17.72776739 296.14825492 15.41842591 296.15165736 13.10908508 296.15544128 C6.83032532 296.16428785 0.55157919 296.16661964 -5.7271862 296.16725707 C-10.96359797 296.16820555 -16.20000656 296.17188305 -21.4364171 296.17542917 C-33.08021227 296.18311029 -44.72400077 296.18609756 -56.36779827 296.18542381 C-57.06642972 296.18538386 -57.76506118 296.1853439 -58.48486328 296.18530273 C-59.1843465 296.18526185 -59.88382973 296.18522097 -60.60450941 296.18517885 C-71.94708777 296.18477218 -83.28963297 296.19434742 -94.63220173 296.2084411 C-106.27599835 296.22279508 -117.91977725 296.22952858 -129.5635829 296.22884732 C-136.10183668 296.22859188 -142.64005291 296.23146849 -149.17829895 296.24202538 C-155.32435754 296.25167799 -161.47034246 296.25180509 -167.61640358 296.24450874 C-169.87553324 296.24345944 -172.13466742 296.24584613 -174.39378929 296.2518692 C-177.47074381 296.2595432 -180.547441 296.25497488 -183.62438965 296.24723816 C-184.52438265 296.25238172 -185.42437566 296.25752529 -186.35164118 296.26282471 C-187.17573654 296.25822592 -187.9998319 296.25362712 -188.84889984 296.24888897 C-189.55908689 296.24910634 -190.26927394 296.24932371 -191.00098181 296.24954766 C-193.40319012 295.94966772 -194.95229991 295.2863674 -197 294 C-201.75100198 286.87349703 -198.52445105 275.92714544 -197 268 C-196.34711085 265.19257667 -195.63086184 262.40694308 -194.90625 259.6171875 C-191.01592386 244.08942025 -188.08099034 228.35290531 -185.17407227 212.61816406 C-183.2787733 202.37517389 -181.22913474 192.17534447 -179 182 C-175 182 -175 182 -172 184 C-170.68 183.01 -169.36 182.02 -168 181 C-167.34 181.66 -166.68 182.32 -166 183 C-165.34 182.01 -164.68 181.02 -164 180 C-164.53561231 187.33952542 -165.51916529 194.43604027 -167.00390625 201.640625 C-167.20298584 202.63040344 -167.40206543 203.62018188 -167.60717773 204.63995361 C-168.25324362 207.84448786 -168.90764483 211.04725139 -169.5625 214.25 C-170.01272016 216.47191777 -170.46250415 218.69392396 -170.91186523 220.91601562 C-172.04879861 226.53048638 -173.19300688 232.14344893 -174.33886719 237.75610352 C-175.17351494 241.85136372 -176.00226395 245.94780349 -176.83045959 250.04437256 C-177.56595488 253.68007966 -178.30435356 257.31519123 -179.04391479 260.95007324 C-179.38861683 262.64500192 -179.73263546 264.34006973 -180.07595825 266.03527832 C-180.54905099 268.36787027 -181.02587749 270.69966535 -181.50390625 273.03125 C-181.71104248 274.0572934 -181.71104248 274.0572934 -181.92236328 275.10406494 C-182.88540069 279.77080139 -182.88540069 279.77080139 -184 282 C-111.4 282 -38.8 282 36 282 C33.525 270.12 33.525 270.12 31 258 C29.81010176 252.17437486 28.62312325 246.34837019 27.44921875 240.51953125 C27.29934824 239.77550238 27.14947773 239.0314735 26.99506569 238.2648983 C26.20934645 234.3624575 25.42489095 230.45976496 24.64135742 226.55688477 C23.99915197 223.35940372 23.35411309 220.16251272 22.70678711 216.96606445 C21.91221417 213.04242604 21.12233508 209.11787059 20.33585548 205.19260216 C20.03886447 203.71433412 19.74024514 202.23639219 19.43991661 200.7587986 C19.02402828 198.71092611 18.61420143 196.66192768 18.20581055 194.61254883 C17.85536934 192.87247307 17.85536934 192.87247307 17.49784851 191.09724426 C16.8335775 186.96464258 16.6721109 183.98366731 18 180 C17.67 179.01 17.34 178.02 17 177 C13.48809191 175.77030122 13.48809191 175.77030122 10 175 C10 172 10 172 11 170 C11.66 170.33 12.32 170.66 13 171 C12.34 170.34 11.68 169.68 11 169 C10.21625 169.515625 9.4325 170.03125 8.625 170.5625 C7.75875 171.036875 6.8925 171.51125 6 172 C5.34 171.67 4.68 171.34 4 171 C4.70177368 170.52542358 4.70177368 170.52542358 5.41772461 170.04125977 C21.74105162 158.93882711 35.34255455 147.97221163 40.42431641 128.02978516 C41.46144332 122.57145393 41.53075578 117.16757526 41.5 111.625 C41.49355469 110.39837646 41.48710937 109.17175293 41.48046875 107.90795898 C40.86192609 76.67358947 26.78312422 42.88958834 4.33203125 21.09375 C1.67759275 18.71053554 -0.96137656 16.85281917 -4 15 C-5.75 13.375 -5.75 13.375 -7 12 C-7.99 11.01 -7.99 11.01 -9 10 C-7.02 9.67 -5.04 9.34 -3 9 C-3 6.69 -3 4.38 -3 2 C-2.01 2 -1.02 2 0 2 C0 1.34 0 0.68 0 0 Z " fill="#814008" transform="translate(314,193)"/>
<path d="M0 0 C2.98999023 -0.31225586 2.98999023 -0.31225586 6.80859375 -0.21484375 C7.83062645 -0.18941246 7.83062645 -0.18941246 8.87330627 -0.16346741 C10.32194052 -0.12289107 11.77037203 -0.07444078 13.21850586 -0.01879883 C15.39773492 0.0610431 17.57559659 0.10559051 19.75585938 0.14648438 C29.27322394 0.40997738 37.54570308 1.79856485 45.875 6.6875 C51.84250892 13.18155383 53.85047297 19.04807526 53.48828125 27.90625 C52.5650126 33.75608017 49.77811616 37.22188384 45.6875 41.3125 C38.68317821 45.71056252 32.41080959 46.52361558 24.3125 46.4375 C23.32096924 46.43065186 22.32943848 46.42380371 21.30786133 46.41674805 C14.16678566 46.26567704 7.21967828 45.55433841 0.1875 44.3125 C-0.70735107 44.16417725 -1.60220215 44.01585449 -2.52416992 43.86303711 C-4.81487481 43.4042686 -6.86358148 42.9446809 -9 42 C-10.53515625 39.5 -10.53515625 39.5 -11 37 C-11.20625 36.236875 -11.4125 35.47375 -11.625 34.6875 C-13.51735864 21.12559642 -7.31500663 10.97250994 0 0 Z " fill="#D8732B" transform="translate(218,341)"/>
<path d="M0 0 C-0.51324056 12.2921114 -5.18592355 21.82722243 -14.25 30.1875 C-22.42269633 36.82329547 -32.37524115 40.61701017 -42.90625 40.37109375 C-54.41644927 38.99045116 -64.47805658 33.70605443 -71.83984375 24.765625 C-77.25431478 17.08740203 -79.58693688 10.3909901 -79 1 C-77.7625 1.4125 -76.525 1.825 -75.25 2.25 C-74.43273437 2.52070313 -73.61546875 2.79140625 -72.7734375 3.0703125 C-70.83696823 3.71943882 -68.90496932 4.38198745 -66.9765625 5.0546875 C-65.95304688 5.40789062 -64.92953125 5.76109375 -63.875 6.125 C-62.92367187 6.45757812 -61.97234375 6.79015625 -60.9921875 7.1328125 C-41.7931319 12.69702966 -20.99067702 8.92046402 -3.16015625 0.953125 C-1 0 -1 0 0 0 Z " fill="#D7722A" transform="translate(280,198)"/>
<path d="M0 0 C1.051875 0.515625 2.10375 1.03125 3.1875 1.5625 C8.75812696 4.04106089 14.99046876 4.03776939 20.71875 2.0625 C22.40721988 1.33015162 24.09113329 0.58717691 25.76953125 -0.16796875 C28.83212167 -1.31040616 30.94390889 -1.06963189 34 0 C36 2 36 2 36.5 5.3125 C36 9 36 9 33.75 11.75 C25.71118411 17.48120286 14.28631471 18.05579873 4.81640625 16.68359375 C0.00194299 15.64186778 -4.98110686 13.88681056 -9 11 C-10.55542434 8.51427439 -11.01938737 7.39744109 -10.875 4.4375 C-8.83141954 -1.25533129 -5.3861394 -1.47854807 0 0 Z " fill="#884008" transform="translate(227,159)"/>
<path d="M0 0 C3.5 0.4375 3.5 0.4375 5.19384766 1.625 C6.98498932 4.11050201 6.88781691 5.8284091 6.8984375 8.875 C6.90230469 9.93460938 6.90617188 10.99421875 6.91015625 12.0859375 C6.89855469 13.19195312 6.88695312 14.29796875 6.875 15.4375 C6.88660156 16.54351562 6.89820313 17.64953125 6.91015625 18.7890625 C6.90628906 19.84867188 6.90242187 20.90828125 6.8984375 22 C6.89505371 22.97066406 6.89166992 23.94132812 6.88818359 24.94140625 C6.5 27.4375 6.5 27.4375 5.15869141 29.25 C2.53483628 31.12848562 0.62941868 30.88455981 -2.5 30.4375 C-4.6640625 29.09765625 -4.6640625 29.09765625 -6.5 26.4375 C-7.07872187 22.76352218 -7.01181954 19.14868208 -6.9375 15.4375 C-6.94458984 14.43976563 -6.95167969 13.44203125 -6.95898438 12.4140625 C-6.8582886 0.85728608 -6.8582886 0.85728608 0 0 Z " fill="#864007" transform="translate(239.5,115.5625)"/>
<path d="M0 0 C3.80866621 0.25821466 5.09061751 0.55323741 7.6875 3.25 C9.33098093 8.1804428 9.50014925 12.51388569 7.3125 17.1875 C5.6875 19.25 5.6875 19.25 3.6875 20.25 C0.33830137 20.54123466 -1.67006835 20.61462337 -4.625 18.9375 C-7.29703131 16.26546869 -7.32155829 14.10959652 -7.5625 10.375 C-7.51233681 4.92727743 -5.71907176 0.43162806 0 0 Z " fill="#884008" transform="translate(272.3125,108.75)"/>
<path d="M0 0 C3.5 0.5625 3.5 0.5625 5.9375 2.4375 C8.14975235 6.86200471 8.41481535 10.71000118 7.5 15.5625 C5.375 18.6875 5.375 18.6875 2.5 20.5625 C-0.8516668 21.10971091 -2.64556829 21.01065021 -5.65234375 19.43359375 C-7.5 17.5625 -7.5 17.5625 -8.03125 14.56640625 C-8.0209375 13.43074219 -8.010625 12.29507813 -8 11.125 C-8.0103125 9.99191406 -8.020625 8.85882813 -8.03125 7.69140625 C-7.16440436 2.58594037 -5.02770919 0.80802469 0 0 Z " fill="#833C05" transform="translate(207.5,108.4375)"/>
<path d="M0 0 C0.33 0.99 0.66 1.98 1 3 C23.44 3 45.88 3 69 3 C69 3.33 69 3.66 69 4 C61.54970486 5.18564719 54.18766662 5.12721915 46.65625 5.09765625 C45.27762911 5.09578788 43.89900754 5.09436596 42.52038574 5.09336853 C38.916851 5.08957635 35.31335748 5.07977478 31.70983887 5.06866455 C28.02271075 5.05837896 24.33557588 5.05385569 20.6484375 5.04882812 C13.43227301 5.03814909 6.21614231 5.02111299 -1 5 C-0.67 3.35 -0.34 1.7 0 0 Z " fill="#CF7738" transform="translate(131,470)"/>
<path d="M0 0 C1.00016187 2.00032373 1.49396008 3.83125748 2 6 C2.99 6 3.98 6 5 6 C5 6.66 5 7.32 5 8 C5.66 8 6.32 8 7 8 C7 6.02 7 4.04 7 2 C7.66 2 8.32 2 9 2 C9.66 1.34 10.32 0.68 11 0 C11 3.63 11 7.26 11 11 C10.34 11 9.68 11 9 11 C9 11.99 9 12.98 9 14 C5.92859432 14.91004613 3.20100846 15.33694826 0 15 C-2.34825713 11.4776143 -2.13467414 10.45883133 -1.6875 6.375 C-1.58824219 5.39273438 -1.48898438 4.41046875 -1.38671875 3.3984375 C-1 1 -1 1 0 0 Z " fill="#86430D" transform="translate(202,113)"/>
<path d="M0 0 C0.99 0 1.98 0 3 0 C3 0.66 3 1.32 3 2 C3.66 2 4.32 2 5 2 C5 2.66 5 3.32 5 4 C-13.48 4 -31.96 4 -51 4 C-51 3.67 -51 3.34 -51 3 C-34.5 3 -18 3 -1 3 C-0.67 2.01 -0.34 1.02 0 0 Z " fill="#7F4118" transform="translate(353,483)"/>
<path d="M0 0 C4.22395248 1.36113355 6.42893626 3.15484885 9.3125 6.5 C10.00988281 7.2940625 10.70726562 8.088125 11.42578125 8.90625 C13 11 13 11 13 13 C13.66 13 14.32 13 15 13 C16.76171875 15.046875 16.76171875 15.046875 18.6875 17.75 C19.33074219 18.63171875 19.97398437 19.5134375 20.63671875 20.421875 C22 23 22 23 21.70703125 25.328125 C21.47371094 25.87984375 21.24039062 26.4315625 21 27 C20.47792969 26.20078125 19.95585937 25.4015625 19.41796875 24.578125 C14.54004424 17.25337786 9.26223939 10.72781469 3.1875 4.36328125 C1 2 1 2 0 0 Z " fill="#833302" transform="translate(326,203)"/>
<path d="M0 0 C4.39277853 3.60306554 6.07529672 8.0714504 8.1875 13.1875 C8.72020508 14.40663086 8.72020508 14.40663086 9.26367188 15.65039062 C11.57707188 21.16831057 12.59794679 26.02920976 13 32 C10.77225819 28.65838729 9.534587 25.24731948 8.1875 21.5 C6.00982579 15.54211016 3.63191993 9.76204714 0.8828125 4.0390625 C0 2 0 2 0 0 Z " fill="#833A03" transform="translate(351,236)"/>
<path d="M0 0 C0.33 0 0.66 0 1 0 C0.98839844 0.84304688 0.97679687 1.68609375 0.96484375 2.5546875 C0.95582031 3.65039062 0.94679688 4.74609375 0.9375 5.875 C0.92589844 6.96554687 0.91429687 8.05609375 0.90234375 9.1796875 C0.80255697 11.95177546 0.80255697 11.95177546 2 14 C3.98 13.67 5.96 13.34 8 13 C8 12.01 8 11.02 8 10 C9.65 10 11.3 10 13 10 C13 11.32 13 12.64 13 14 C10.87607494 14.6700834 8.75082476 15.33596797 6.625 16 C5.44164062 16.37125 4.25828125 16.7425 3.0390625 17.125 C0 18 0 18 -2 18 C-1.34 12.06 -0.68 6.12 0 0 Z " fill="#D47B36" transform="translate(286,360)"/>
<path d="M0 0 C2.46428234 0.15236154 4.9259513 0.35324975 7.3828125 0.59765625 C9.27386719 0.73010742 9.27386719 0.73010742 11.203125 0.86523438 C14.31033203 1.08885912 17.40772999 1.35497501 20.5078125 1.66015625 C20.5078125 1.99015625 20.5078125 2.32015625 20.5078125 2.66015625 C19.77143555 2.66426514 19.03505859 2.66837402 18.27636719 2.67260742 C14.93603555 2.70552617 11.59753199 2.77616939 8.2578125 2.84765625 C6.51951172 2.85635742 6.51951172 2.85635742 4.74609375 2.86523438 C-1.85886228 2.80616316 -1.85886228 2.80616316 -7.1640625 6.2109375 C-7.60234375 7.01917969 -8.040625 7.82742188 -8.4921875 8.66015625 C-9.1521875 8.66015625 -9.8121875 8.66015625 -10.4921875 8.66015625 C-10.8221875 9.65015625 -11.1521875 10.64015625 -11.4921875 11.66015625 C-11.8221875 11.00015625 -12.1521875 10.34015625 -12.4921875 9.66015625 C-9.74968335 3.12052601 -7.36966245 0.02388028 0 0 Z " fill="#DC813B" transform="translate(224.4921875,340.33984375)"/>
<path d="M0 0 C7.07403834 0.3215472 12.97386577 3.41663627 19 7 C19.33 7.66 19.66 8.32 20 9 C19.01 9 18.02 9 17 9 C17.66 9.66 18.32 10.32 19 11 C14.4923533 10.46968862 11.58045212 8.74778884 8 6 C8 5.34 8 4.68 8 4 C5.36 3.01 2.72 2.02 0 1 C0 0.67 0 0.34 0 0 Z " fill="#9B4715" transform="translate(264,33)"/>
<path d="M0 0 C0.33 0 0.66 0 1 0 C1 8.91 1 17.82 1 27 C-3.20203852 18.59592296 -2.59326782 8.84761961 0 0 Z " fill="#713100" transform="translate(110,293)"/>
<path d="M0 0 C2.11523139 3.62083278 2.88605963 7.43357843 3.6875 11.5 C3.82994141 12.16386719 3.97238281 12.82773437 4.11914062 13.51171875 C4.80884122 16.94992771 5.26537309 19.67096477 4 23 C4 22.01 4 21.02 4 20 C3.01 20.33 2.02 20.66 1 21 C1 19.68 1 18.36 1 17 C0.55632671 13.57737745 0.03910688 10.19944509 -0.625 6.8125 C-0.9829414 4.12793953 -0.87536625 2.52883583 0 0 Z " fill="#8D4506" transform="translate(360,452)"/>
<path d="M0 0 C0.90234375 -0.01224609 1.8046875 -0.02449219 2.734375 -0.03710938 C3.60578125 -0.03904297 4.4771875 -0.04097656 5.375 -0.04296875 C6.16648438 -0.04707764 6.95796875 -0.05118652 7.7734375 -0.05541992 C10 0.1875 10 0.1875 14 2.1875 C8.06 1.8575 2.12 1.5275 -4 1.1875 C-4 1.8475 -4 2.5075 -4 3.1875 C-2.35 3.1875 -0.7 3.1875 1 3.1875 C1 3.5175 1 3.8475 1 4.1875 C-0.7492214 4.26892927 -2.49954542 4.32688541 -4.25 4.375 C-5.22453125 4.40980469 -6.1990625 4.44460937 -7.203125 4.48046875 C-10.37468742 4.14825202 -11.67040307 3.30077721 -14 1.1875 C-9.34472043 -0.14438292 -4.80905163 0.00343504 0 0 Z " fill="#904C12" transform="translate(241,28.8125)"/>
<path d="M0 0 C0.33 0.99 0.66 1.98 1 3 C-0.14453125 5.26171875 -0.14453125 5.26171875 -1.8125 7.6875 C-2.35519531 8.49574219 -2.89789063 9.30398438 -3.45703125 10.13671875 C-3.96621094 10.75160156 -4.47539062 11.36648438 -5 12 C-5.66 12 -6.32 12 -7 12 C-7.2475 12.5775 -7.495 13.155 -7.75 13.75 C-9.16683317 16.3002997 -10.87627537 18.01785701 -13 20 C-13.99 19.67 -14.98 19.34 -16 19 C-15.32453125 18.35933594 -14.6490625 17.71867187 -13.953125 17.05859375 C-9.04811465 12.30243487 -5.05587111 8.11174222 -2 2 C-1.34 1.34 -0.68 0.68 0 0 Z " fill="#783002" transform="translate(360,342)"/>
<path d="M0 0 C0.66 0.33 1.32 0.66 2 1 C-2.27011452 8.25919469 -6.74996414 14.33438308 -13 20 C-13 16.86248779 -12.64820195 15.60242414 -11 13 C-10.01 12.67 -9.02 12.34 -8 12 C-7.67 11.01 -7.34 10.02 -7 9 C-6.34 8.67 -5.68 8.34 -5 8 C-5 7.01 -5 6.02 -5 5 C-3.68 4.67 -2.36 4.34 -1 4 C-0.67 2.68 -0.34 1.36 0 0 Z " fill="#D57B38" transform="translate(349,332)"/>
<path d="M0 0 C4.50727647 0.60266785 7.8587963 2.36599794 11.8125 4.5625 C12.7087207 5.0565332 12.7087207 5.0565332 13.62304688 5.56054688 C15.08533998 6.36773267 16.5431399 7.18304917 18 8 C14.17591794 9.27469402 12.76261161 8.25420387 9 7 C4.84227161 6.71045383 4.84227161 6.71045383 1 8 C2.875 4.125 2.875 4.125 4 3 C3.01 2.67 2.02 2.34 1 2 C0.67 2.99 0.34 3.98 0 5 C0 3.35 0 1.7 0 0 Z " fill="#D67C36" transform="translate(150,374)"/>
<path d="M0 0 C0.66 0.33 1.32 0.66 2 1 C1.1913257 4.29261876 0.37741268 7.58392016 -0.4375 10.875 C-0.78264648 12.28072266 -0.78264648 12.28072266 -1.13476562 13.71484375 C-1.35712891 14.61074219 -1.57949219 15.50664062 -1.80859375 16.4296875 C-2.01282959 17.25710449 -2.21706543 18.08452148 -2.42749023 18.93701172 C-3 21 -3 21 -4 23 C-4.66 22.67 -5.32 22.34 -6 22 C-5.38153536 19.08180761 -4.75551865 16.16558978 -4.125 13.25 C-3.95097656 12.425 -3.77695313 11.6 -3.59765625 10.75 C-3.42363281 9.95078125 -3.24960938 9.1515625 -3.0703125 8.328125 C-2.91320801 7.5949707 -2.75610352 6.86181641 -2.59423828 6.10644531 C-1.97058111 3.89571644 -1.08856601 2.01763516 0 0 Z " fill="#872F02" transform="translate(115,267)"/>
<path d="M0 0 C2 1 2 1 2.62597656 2.79418945 C3.18155021 5.29769706 3.72763188 7.80182226 4.25 10.3125 C4.44851563 11.18068359 4.64703125 12.04886719 4.8515625 12.94335938 C5.02945312 13.78318359 5.20734375 14.62300781 5.390625 15.48828125 C5.55594727 16.25696533 5.72126953 17.02564941 5.89160156 17.81762695 C6.02160092 20.43488874 5.33867852 21.78450594 4 24 C3.32492934 20.93929066 2.66145078 17.8761791 2 14.8125 C1.80921875 13.94818359 1.6184375 13.08386719 1.421875 12.19335938 C1.24140625 11.35224609 1.0609375 10.51113281 0.875 9.64453125 C0.70742188 8.87471924 0.53984375 8.10490723 0.3671875 7.31176758 C-0.02550915 4.83939753 -0.06185285 2.49924191 0 0 Z " fill="#833102" transform="translate(345,383)"/>
<path d="M0 0 C0.33 0 0.66 0 1 0 C0.98839844 0.83144531 0.97679687 1.66289062 0.96484375 2.51953125 C0.95582031 3.60621094 0.94679687 4.69289063 0.9375 5.8125 C0.92589844 6.89144531 0.91429687 7.97039062 0.90234375 9.08203125 C0.86375234 12.06512169 0.86375234 12.06512169 2 15 C1.01 15.66 0.02 16.32 -1 17 C-2.2188121 20.55672179 -2.2188121 20.55672179 -3 24 C-3.33 24 -3.66 24 -4 24 C-3.52087184 15.75569133 -2.02214499 7.99955473 0 0 Z " fill="#D67A35" transform="translate(149,381)"/>
<path d="M0 0 C0.66 0 1.32 0 2 0 C0.24933204 3.88609811 -2.18324006 7.27812258 -4.625 10.75 C-5.04523438 11.35199219 -5.46546875 11.95398438 -5.8984375 12.57421875 C-6.92993137 14.05113043 -7.96464579 15.52579194 -9 17 C-9.7734375 15.38671875 -9.7734375 15.38671875 -10 13 C-8.6178935 10.75628243 -7.27032918 8.84222901 -5.625 6.8125 C-5.19960937 6.26658203 -4.77421875 5.72066406 -4.3359375 5.15820312 C-1.36638393 1.36638393 -1.36638393 1.36638393 0 0 Z " fill="#7F3803" transform="translate(141,214)"/>
<path d="M0 0 C0.66 0.33 1.32 0.66 2 1 C1.67 1.66 1.34 2.32 1 3 C1.99 3.33 2.98 3.66 4 4 C2.02 4.33 0.04 4.66 -2 5 C-2 5.66 -2 6.32 -2 7 C-3.64333504 8.03789581 -5.31243867 9.03567924 -7 10 C-7.66 10.66 -8.32 11.32 -9 12 C-9.66 11.34 -10.32 10.68 -11 10 C-10.4946875 9.67386719 -9.989375 9.34773438 -9.46875 9.01171875 C-8.8190625 8.57472656 -8.169375 8.13773438 -7.5 7.6875 C-6.8503125 7.25824219 -6.200625 6.82898437 -5.53125 6.38671875 C-4.77328125 5.70029297 -4.77328125 5.70029297 -4 5 C-4 4.01 -4 3.02 -4 2 C-2.125 0.9375 -2.125 0.9375 0 0 Z " fill="#87450E" transform="translate(199,39)"/>
<path d="M0 0 C0.66 1.32 1.32 2.64 2 4 C1.53980469 4.40863281 1.07960938 4.81726563 0.60546875 5.23828125 C-1.15914771 7.17463654 -1.83971622 8.72488998 -2.6875 11.1875 C-2.93886719 11.90292969 -3.19023438 12.61835938 -3.44921875 13.35546875 C-3.72185547 14.16951172 -3.72185547 14.16951172 -4 15 C-4.66 15 -5.32 15 -6 15 C-5.88610125 13.20759337 -5.75852313 11.41605165 -5.625 9.625 C-5.55539063 8.62726563 -5.48578125 7.62953125 -5.4140625 6.6015625 C-5 4 -5 4 -3 2 C-2.67 2.33 -2.34 2.66 -2 3 C-1.34 2.01 -0.68 1.02 0 0 Z " fill="#8E460E" transform="translate(126,243)"/>
<path d="M0 0 C1 3 1 3 -0.3125 5.6875 C-0.869375 6.450625 -1.42625 7.21375 -2 8 C-2.66 8 -3.32 8 -4 8 C-4.66 9.32 -5.32 10.64 -6 12 C-6.66 12 -7.32 12 -8 12 C-6.71999898 6.99635967 -4.82671924 4.43423522 -1 1 C-0.67 0.67 -0.34 0.34 0 0 Z " fill="#813006" transform="translate(310,168)"/>
<path d="M0 0 C0.66 0 1.32 0 2 0 C2.72559658 2.74647302 3.43079805 5.4955858 4.125 8.25 C4.33253906 9.02730469 4.54007812 9.80460937 4.75390625 10.60546875 C4.94082031 11.35957031 5.12773437 12.11367188 5.3203125 12.890625 C5.58739014 13.92751465 5.58739014 13.92751465 5.85986328 14.98535156 C6.03605301 17.51830907 5.28488954 18.85149617 4 21 C3.32944715 18.06333774 2.66340947 15.12577641 2 12.1875 C1.80921875 11.35412109 1.6184375 10.52074219 1.421875 9.66210938 C1.24140625 8.85966797 1.0609375 8.05722656 0.875 7.23046875 C0.70742188 6.49207764 0.53984375 5.75368652 0.3671875 4.99291992 C0 3 0 3 0 0 Z " fill="#7D3402" transform="translate(364,269)"/>
<path d="M0 0 C0.66 0.33 1.32 0.66 2 1 C-0.26504965 2.19984797 -2.53589888 3.38494769 -4.8125 4.5625 C-5.45509766 4.90474609 -6.09769531 5.24699219 -6.75976562 5.59960938 C-8.46926395 6.4765023 -10.23321294 7.24515617 -12 8 C-12.99 7.67 -13.98 7.34 -15 7 C-14.195625 6.566875 -13.39125 6.13375 -12.5625 5.6875 C-9.72153646 4.19525998 -9.72153646 4.19525998 -9 1 C-7.88625 1.020625 -6.7725 1.04125 -5.625 1.0625 C-2.16784079 1.26380718 -2.16784079 1.26380718 0 0 Z " fill="#7D3605" transform="translate(216,81)"/>
<path d="M0 0 C0 3.07868526 -0.43386841 4.35430616 -1.75 7.0625 C-2.07484375 7.75472656 -2.3996875 8.44695312 -2.734375 9.16015625 C-4.24755491 11.35987149 -5.59014585 11.93264334 -8 13 C-8.66 13.66 -9.32 14.32 -10 15 C-9.45230629 10.81761166 -7.10111111 8.40131455 -4.4375 5.25 C-3.19806641 3.77273438 -3.19806641 3.77273438 -1.93359375 2.265625 C-1.29550781 1.51796875 -0.65742188 0.7703125 0 0 Z " fill="#D77A37" transform="translate(248,265)"/>
<path d="M0 0 C3.875 1.875 3.875 1.875 5 3 C5.14475933 6.8361222 5.17661508 10.32307787 4 14 C3.01 13.67 2.02 13.34 1 13 C1.09539062 12.37351562 1.19078125 11.74703125 1.2890625 11.1015625 C1.39992187 10.28429687 1.51078125 9.46703125 1.625 8.625 C1.74101562 7.81289063 1.85703125 7.00078125 1.9765625 6.1640625 C1.98429688 5.44992187 1.99203125 4.73578125 2 4 C1.34 3.34 0.68 2.68 0 2 C0 1.34 0 0.68 0 0 Z " fill="#852B01" transform="translate(134,361)"/>
<path d="M0 0 C0.66 0 1.32 0 2 0 C1.67 1.65 1.34 3.3 1 5 C0.01 5 -0.98 5 -2 5 C-2.99 6.485 -2.99 6.485 -4 8 C-6.97 7.505 -6.97 7.505 -10 7 C-10 6.34 -10 5.68 -10 5 C-10.99 5 -11.98 5 -13 5 C-13 4.34 -13 3.68 -13 3 C-10.03 3.99 -7.06 4.98 -4 6 C-3.34 4.68 -2.68 3.36 -2 2 C-1.34 1.34 -0.68 0.68 0 0 Z " fill="#823603" transform="translate(195,310)"/>
<path d="M0 0 C2 3 2 3 2 7 C1.34 7 0.68 7 0 7 C-0.12117188 7.91523438 -0.24234375 8.83046875 -0.3671875 9.7734375 C-0.53476563 10.96195312 -0.70234375 12.15046875 -0.875 13.375 C-1.03742188 14.55835938 -1.19984375 15.74171875 -1.3671875 16.9609375 C-2 20 -2 20 -4 22 C-3.32692542 16.97481209 -2.45601155 12.02835295 -1.4375 7.0625 C-1.29892578 6.37865234 -1.16035156 5.69480469 -1.01757812 4.99023438 C-0.68016936 3.32646014 -0.34034121 1.66317685 0 0 Z " fill="#95480A" transform="translate(121,444)"/>
<path d="M0 0 C0.05386629 2.12472576 0.09273071 4.24983652 0.125 6.375 C0.14820313 7.55835938 0.17140625 8.74171875 0.1953125 9.9609375 C0 13 0 13 -2 15 C-2 13.68 -2 12.36 -2 11 C-2.66 11 -3.32 11 -4 11 C-4.33 11.66 -4.66 12.32 -5 13 C-4.719172 11.01926635 -4.42503386 9.04041552 -4.125 7.0625 C-3.96257812 5.96035156 -3.80015625 4.85820312 -3.6328125 3.72265625 C-3.42398437 2.82417969 -3.21515625 1.92570312 -3 1 C-1 0 -1 0 0 0 Z " fill="#91490C" transform="translate(351,403)"/>
<path d="M0 0 C0.33 0 0.66 0 1 0 C0.5464821 7.02952752 -1.12059087 12.5849443 -4 19 C-4.66 19 -5.32 19 -6 19 C-5.72736328 18.19949219 -5.72736328 18.19949219 -5.44921875 17.3828125 C-3.5063945 11.62408217 -1.71615568 5.83006078 0 0 Z " fill="#7A2F02" transform="translate(368,321)"/>
<path d="M0 0 C2.62697064 -0.22137393 5.00893964 -0.28162025 7.625 -0.1875 C8.33140625 -0.17396484 9.0378125 -0.16042969 9.765625 -0.14648438 C11.51074128 -0.1111104 13.25546608 -0.05730221 15 0 C9.64153053 3.57231298 4.234225 3.12223971 -2 3 C-1.34 2.01 -0.68 1.02 0 0 Z " fill="#7F3601" transform="translate(273,390)"/>
<path d="M0 0 C0.33 0 0.66 0 1 0 C1.33 5.28 1.66 10.56 2 16 C-5.71484375 13.8515625 -5.71484375 13.8515625 -8 13 C-8.33 12.34 -8.66 11.68 -9 11 C-4.545 11.99 -4.545 11.99 0 13 C0 8.71 0 4.42 0 0 Z " fill="#D9813E" transform="translate(192,362)"/>
<path d="M0 0 C0.33 0.66 0.66 1.32 1 2 C-0.21484375 4.8203125 -0.21484375 4.8203125 -1.9375 8.125 C-2.50339844 9.22070312 -3.06929688 10.31640625 -3.65234375 11.4453125 C-4.09707031 12.28835937 -4.54179688 13.13140625 -5 14 C-5.33 14 -5.66 14 -6 14 C-5.5414571 8.26821381 -4.14522 4.14522 0 0 Z " fill="#873503" transform="translate(129,233)"/>
<path d="M0 0 C0.33 0.66 0.66 1.32 1 2 C-2.37607126 5.6739599 -5.39120786 8.05406554 -10 10 C-10.66 10 -11.32 10 -12 10 C-10.7308453 6.1925359 -9.42849251 5.81326707 -6 3.875 C-2.81043387 2.19447491 -2.81043387 2.19447491 0 0 Z " fill="#7D2B00" transform="translate(329,148)"/>
<path d="M0 0 C0.66 0.33 1.32 0.66 2 1 C1.67 1.99 1.34 2.98 1 4 C0.64763503 5.99673484 0.31165441 7.99650739 0 10 C-0.66 10 -1.32 10 -2 10 C-2.33 11.32 -2.66 12.64 -3 14 C-3.33 10.37 -3.66 6.74 -4 3 C-3.34 3.66 -2.68 4.32 -2 5 C-1.34 3.35 -0.68 1.7 0 0 Z " fill="#8C490B" transform="translate(132,406)"/>
<path d="M0 0 C0.33 0 0.66 0 1 0 C1 1.65 1 3.3 1 5 C4.465 4.505 4.465 4.505 8 4 C5 6 5 6 3 6 C2.67 7.65 2.34 9.3 2 11 C1.01 10.67 0.02 10.34 -1 10 C-1.125 3.375 -1.125 3.375 0 0 Z " fill="#7F3905" transform="translate(283,373)"/>
<path d="M0 0 C0 0.99 0 1.98 0 3 C-1.98 3.99 -1.98 3.99 -4 5 C-3.67 5.66 -3.34 6.32 -3 7 C-4.43503555 7.36402369 -5.87316506 7.71586591 -7.3125 8.0625 C-8.11300781 8.25972656 -8.91351563 8.45695313 -9.73828125 8.66015625 C-12 9 -12 9 -15 8 C-14.16855469 7.59007812 -13.33710938 7.18015625 -12.48046875 6.7578125 C-11.39378906 6.21898437 -10.30710938 5.68015625 -9.1875 5.125 C-8.10855469 4.59132812 -7.02960938 4.05765625 -5.91796875 3.5078125 C-2.92161735 2.02778861 -2.92161735 2.02778861 0 0 Z " fill="#803502" transform="translate(265,228)"/>
<path d="M0 0 C0.7425 0.763125 1.485 1.52625 2.25 2.3125 C4.823554 4.95571199 4.823554 4.95571199 7.3125 6.6875 C7.869375 7.120625 8.42625 7.55375 9 8 C9 8.66 9 9.32 9 10 C9.66 10 10.32 10 11 10 C11 10.66 11 11.32 11 12 C9.35 12 7.7 12 6 12 C6.66 11.67 7.32 11.34 8 11 C8 10.34 8 9.68 8 9 C7.01 9 6.02 9 5 9 C2.3125 6.75 2.3125 6.75 0 4 C0 2.68 0 1.36 0 0 Z " fill="#703301" transform="translate(176,177)"/>
<path d="M0 0 C2.37948772 0.17625835 3.70225849 0.69719773 5.37890625 2.40234375 C6.62115486 3.90649092 7.81376056 5.45129851 9 7 C8.67 7.66 8.34 8.32 8 9 C4.68470727 8.01437243 3.25050621 7.34552581 1.1875 4.5 C0 2 0 2 0 0 Z " fill="#913B08" transform="translate(301,57)"/>
<path d="M0 0 C1.98 1.65 3.96 3.3 6 5 C5.01 5.495 5.01 5.495 4 6 C4.33 6.99 4.66 7.98 5 9 C4.34 9 3.68 9 3 9 C1.64613064 7.34997172 0.31321858 5.6825613 -1 4 C-1.66 3.67 -2.32 3.34 -3 3 C-2.67 2.34 -2.34 1.68 -2 1 C-1.34 1.33 -0.68 1.66 0 2 C0 1.34 0 0.68 0 0 Z " fill="#8B4812" transform="translate(297,51)"/>
<path d="M0 0 C2.97 0 5.94 0 9 0 C7.21844267 3.56311466 5.83236991 5.35645475 3 8 C3 6.02 3 4.04 3 2 C2.01 1.67 1.02 1.34 0 1 C0 0.67 0 0.34 0 0 Z " fill="#D97D37" transform="translate(232,251)"/>
<path d="M0 0 C0.33 0 0.66 0 1 0 C1.21192221 5.19209404 0.5912689 9.126739 -1 14 C-1.66 14 -2.32 14 -3 14 C-2.814375 13.236875 -2.62875 12.47375 -2.4375 11.6875 C-1.77180827 8.91032625 -1.77180827 8.91032625 -3 6 C-3 5.34 -3 4.68 -3 4 C-2.01 4 -1.02 4 0 4 C0 2.68 0 1.36 0 0 Z " fill="#843603" transform="translate(292,202)"/>
<path d="M0 0 C2.31 0.66 4.62 1.32 7 2 C5.03617993 3.50559539 3.21736634 4.89131683 1 6 C0.34 6.99 -0.32 7.98 -1 9 C-0.67 6.03 -0.34 3.06 0 0 Z " fill="#D77C3A" transform="translate(294,201)"/>
<path d="M0 0 C0.66 0 1.32 0 2 0 C2 0.66 2 1.32 2 2 C2.66 2.33 3.32 2.66 4 3 C2.88121617 4.17262904 1.75476949 5.33795138 0.625 6.5 C-0.00148437 7.1496875 -0.62796875 7.799375 -1.2734375 8.46875 C-3 10 -3 10 -5 10 C-5 9.34 -5 8.68 -5 8 C-4.54625 7.566875 -4.0925 7.13375 -3.625 6.6875 C-1.65690769 4.64371183 -0.93273129 2.65469676 0 0 Z " fill="#7B3704" transform="translate(234,64)"/>
<path d="M0 0 C1.46067199 0.45082469 2.91848032 0.91093537 4.375 1.375 C5.18710938 1.63023437 5.99921875 1.88546875 6.8359375 2.1484375 C9 3 9 3 11 5 C9.9275 4.79375 8.855 4.5875 7.75 4.375 C4.12380904 4.0123809 2.91708924 4.01637931 0 6 C0 4.02 0 2.04 0 0 Z " fill="#D67D38" transform="translate(201,199)"/>
<path d="M0 0 C0.66 1.32 1.32 2.64 2 4 C2.66 3.67 3.32 3.34 4 3 C3.67 6.63 3.34 10.26 3 14 C0.23508718 8.47017435 -0.09858498 6.11226863 0 0 Z " fill="#8D480D" transform="translate(342,375)"/>
<path d="M0 0 C0.66 0.33 1.32 0.66 2 1 C0.3811004 2.03048037 -1.24532489 3.04914678 -2.875 4.0625 C-3.77992188 4.63097656 -4.68484375 5.19945312 -5.6171875 5.78515625 C-6.40351563 6.18605469 -7.18984375 6.58695312 -8 7 C-8.66 6.67 -9.32 6.34 -10 6 C-9.67 5.01 -9.34 4.02 -9 3 C-9.33 2.34 -9.66 1.68 -10 1 C-9.278125 1.391875 -8.55625 1.78375 -7.8125 2.1875 C-4.94222864 3.37110847 -4.94222864 3.37110847 -2.3125 1.5625 C-1.549375 1.046875 -0.78625 0.53125 0 0 Z " fill="#D97D36" transform="translate(306,306)"/>
<path d="M0 0 C1.32 0.33 2.64 0.66 4 1 C4 2.65 4 4.3 4 6 C4.99 6.33 5.98 6.66 7 7 C7.33 8.65 7.66 10.3 8 12 C4.72257902 8.89973691 2.06895163 6.02901106 0 2 C0 1.34 0 0.68 0 0 Z " fill="#9B3A0D" transform="translate(166,165)"/>
<path d="M0 0 C0.66 1.32 1.32 2.64 2 4 C0.90751403 5.50852857 -0.19938499 7.00662831 -1.3125 8.5 C-1.92738281 9.3353125 -2.54226563 10.170625 -3.17578125 11.03125 C-3.77777344 11.6809375 -4.37976563 12.330625 -5 13 C-5.99 13 -6.98 13 -8 13 C-7.236875 12.154375 -6.47375 11.30875 -5.6875 10.4375 C-2.9508582 7.17996332 -1.50585211 3.96276872 0 0 Z " fill="#7C3503" transform="translate(271,369)"/>
<path d="M0 0 C0.99 0.33 1.98 0.66 3 1 C2.07456291 2.34173403 1.13422595 3.67320159 0.1875 5 C-0.33457031 5.7425 -0.85664063 6.485 -1.39453125 7.25 C-1.92433594 7.8275 -2.45414063 8.405 -3 9 C-3.99 9 -4.98 9 -6 9 C-4.63016497 5.83884224 -4.0109362 5.0072908 -1 3 C-0.67 2.01 -0.34 1.02 0 0 Z " fill="#D27834" transform="translate(209,288)"/>
<path d="M0 0 C0.33 0.66 0.66 1.32 1 2 C0.06981474 3.46300982 -0.86944027 4.92025579 -1.8125 6.375 C-2.33457031 7.18710938 -2.85664063 7.99921875 -3.39453125 8.8359375 C-5 11 -5 11 -8 13 C-6.40956621 7.91061189 -3.2553049 4.12543357 0 0 Z " fill="#8D4711" transform="translate(141,217)"/>
<path d="M0 0 C3.91402949 1.26941497 5.79072873 2.51167694 8 6 C4.95613276 6.08226668 2.92824652 5.97608217 0 5 C0 3.35 0 1.7 0 0 Z " fill="#D77A35" transform="translate(311,209)"/>
<path d="M0 0 C0.66 0.33 1.32 0.66 2 1 C1.51789063 1.32613281 1.03578125 1.65226563 0.5390625 1.98828125 C-0.09257812 2.42527344 -0.72421875 2.86226562 -1.375 3.3125 C-2.31472656 3.95638672 -2.31472656 3.95638672 -3.2734375 4.61328125 C-5.26378845 6.06920339 -5.26378845 6.06920339 -7 9 C-8.32 8.67 -9.64 8.34 -11 8 C-9.5433323 6.85204994 -8.08461063 5.70670581 -6.625 4.5625 C-5.40683594 3.60537109 -5.40683594 3.60537109 -4.1640625 2.62890625 C-2 1 -2 1 0 0 Z " fill="#D37D38" transform="translate(173,206)"/>
<path d="M0 0 C0.53625 0.680625 1.0725 1.36125 1.625 2.0625 C0.70267578 2.02769531 0.70267578 2.02769531 -0.23828125 1.9921875 C-1.04652344 1.97414063 -1.85476563 1.95609375 -2.6875 1.9375 C-3.88826172 1.90269531 -3.88826172 1.90269531 -5.11328125 1.8671875 C-7.65888576 1.90432678 -7.65888576 1.90432678 -10.375 4.0625 C-9.75 1.625 -9.75 1.625 -8.375 -0.9375 C-4.57524659 -2.34175669 -3.19684602 -2.60795333 0 0 Z " fill="#D47936" transform="translate(276.375,107.9375)"/>
<path d="M0 0 C0.598125 0.165 1.19625 0.33 1.8125 0.5 C4.11344336 1.1114124 4.11344336 1.1114124 7 1 C7.99 2.98 8.98 4.96 10 7 C5.56541027 5.6062718 3.12621626 3.39417765 0 0 Z " fill="#D97D37" transform="translate(151,356)"/>
<path d="M0 0 C0.66 0.33 1.32 0.66 2 1 C2.40729228 3.32156597 2.74438677 5.6568787 3 8 C2.67 7.34 2.34 6.68 2 6 C1.21625 5.690625 0.4325 5.38125 -0.375 5.0625 C-2.95982105 4.01626291 -4.2046169 3.07886465 -6 1 C-5.38125 1.20625 -4.7625 1.4125 -4.125 1.625 C-3.073125 1.810625 -3.073125 1.810625 -2 2 C-1.34 1.34 -0.68 0.68 0 0 Z " fill="#783704" transform="translate(162,152)"/>
<path d="M0 0 C0.33 0 0.66 0 1 0 C1.25 6.625 1.25 6.625 -1 10 C-1.66 10 -2.32 10 -3 10 C-2.25 2.25 -2.25 2.25 0 0 Z " fill="#D37935" transform="translate(324,126)"/>
<path d="M0 0 C0.99 0 1.98 0 3 0 C4 7.625 4 7.625 4 11 C1.29727467 8.12835434 0.05208163 6.69008159 -0.25 2.6875 C-0.1675 1.800625 -0.085 0.91375 0 0 Z " fill="#D17A38" transform="translate(155,127)"/>
<path d="M0 0 C0.33 0.99 0.66 1.98 1 3 C1.66 3 2.32 3 3 3 C3 6.96 3 10.92 3 15 C1.1155829 11.2311658 0.66570538 9.31987525 0.375 5.25 C0.30023438 4.26515625 0.22546875 3.2803125 0.1484375 2.265625 C0.09945313 1.51796875 0.05046875 0.7703125 0 0 Z " fill="#7C3604" transform="translate(345,445)"/>
<path d="M0 0 C0.33 1.32 0.66 2.64 1 4 C0.34 3.67 -0.32 3.34 -1 3 C-3.05270463 4.84188612 -3.05270463 4.84188612 -4 7 C-5.65 6.67 -7.3 6.34 -9 6 C-6.11912454 3.59927045 -3.43595166 1.52708963 0 0 Z " fill="#D37D38" transform="translate(329,373)"/>
<path d="M0 0 C5.29860806 1.2976183 9.34525646 3.15015702 14 6 C11 7 11 7 8.30078125 5.78515625 C7.31464844 5.21667969 6.32851562 4.64820313 5.3125 4.0625 C4.31863281 3.49660156 3.32476562 2.93070312 2.30078125 2.34765625 C1.54152344 1.90292969 0.78226563 1.45820313 0 1 C0 0.67 0 0.34 0 0 Z " fill="#D47C3A" transform="translate(163,364)"/>
<path d="M0 0 C2.78117672 1.0197648 3.81833102 1.66391238 5.25 4.3125 C6.00511726 7.01833686 6.1595955 9.20707882 6 12 C4.02433812 10.02433812 3.10420928 8.47662906 1.875 6 C1.52179688 5.29875 1.16859375 4.5975 0.8046875 3.875 C0 2 0 2 0 0 Z " fill="#D47B38" transform="translate(279,344)"/>
<path d="M0 0 C0.33 0 0.66 0 1 0 C1 2.64 1 5.28 1 8 C-0.98 8.99 -0.98 8.99 -3 10 C-3 10.66 -3 11.32 -3 12 C-3.66 11.67 -4.32 11.34 -5 11 C-4.360625 9.9275 -3.72125 8.855 -3.0625 7.75 C-1.59398727 5.19177818 -0.47145458 2.94659114 0 0 Z " fill="#D67B37" transform="translate(323,304)"/>
<path d="M0 0 C7.66742597 5.96583144 7.66742597 5.96583144 9 11 C8.51789063 10.57847656 8.03578125 10.15695313 7.5390625 9.72265625 C6.90742188 9.17480469 6.27578125 8.62695312 5.625 8.0625 C4.99851562 7.51722656 4.37203125 6.97195312 3.7265625 6.41015625 C2.04367666 4.93041376 2.04367666 4.93041376 0 4 C0 2.68 0 1.36 0 0 Z " fill="#D87C3A" transform="translate(322,218)"/>
<path d="M0 0 C3.3 0.33 6.6 0.66 10 1 C10 1.33 10 1.66 10 2 C4.39 2.66 -1.22 3.32 -7 4 C-4 2 -4 2 0 2 C0 1.34 0 0.68 0 0 Z " fill="#782F00" transform="translate(225,30)"/>
<path d="M0 0 C1.1725131 0.95117134 2.33787015 1.91117009 3.5 2.875 C4.47453125 3.67550781 4.47453125 3.67550781 5.46875 4.4921875 C5.9740625 4.98976562 6.479375 5.48734375 7 6 C7 6.66 7 7.32 7 8 C7.66 8.33 8.32 8.66 9 9 C6.75 8.875 6.75 8.875 4 8 C0 2.91891892 0 2.91891892 0 0 Z " fill="#7D3105" transform="translate(146,143)"/>
<path d="M0 0 C2 1 2 1 2.625 2.5625 C3.16368951 6.06398181 3.05903219 9.45806833 3 13 C2.67 13 2.34 13 2 13 C0.54815522 8.46298506 -0.23509196 4.81938524 0 0 Z " fill="#7A3703" transform="translate(350,408)"/>
<path d="M0 0 C0 2.83967231 -0.40267181 5.23735711 -1 8 C-1.99 8 -2.98 8 -4 8 C-4.99 8.495 -4.99 8.495 -6 9 C-4.47291037 5.56404834 -2.40072955 2.88087546 0 0 Z " fill="#833703" transform="translate(229,267)"/>
<path d="M0 0 C0.99 0 1.98 0 3 0 C3 0.66 3 1.32 3 2 C3.66 2 4.32 2 5 2 C5 2.66 5 3.32 5 4 C2.69 4 0.38 4 -2 4 C-1.34 2.68 -0.68 1.36 0 0 Z " fill="#8A4711" transform="translate(353,483)"/>
<path d="M0 0 C9.41002278 0.96355353 9.41002278 0.96355353 14 2 C14 2.33 14 2.66 14 3 C4.58997722 3.3690205 4.58997722 3.3690205 0 1 C0 0.67 0 0.34 0 0 Z " fill="#D97E3B" transform="translate(225,234)"/>
<path d="M0 0 C0.99 0 1.98 0 3 0 C3 1.98 3 3.96 3 6 C3.99 6.33 4.98 6.66 6 7 C5.67 8.32 5.34 9.64 5 11 C2.36620292 7.34666857 0.53115106 4.51478398 0 0 Z " fill="#D57C3A" transform="translate(203,211)"/>
<path d="M0 0 C0.33 0 0.66 0 1 0 C1 3.3 1 6.6 1 10 C0.34 10 -0.32 10 -1 10 C-1.33 8.35 -1.66 6.7 -2 5 C-1.34 5 -0.68 5 0 5 C-0.33 4.01 -0.66 3.02 -1 2 C-0.67 1.34 -0.34 0.68 0 0 Z " fill="#914B0F" transform="translate(362,474)"/>
<path d="M0 0 C2.72426311 2.35277269 3.8141763 4.62496331 5 8 C4.01 8 3.02 8 2 8 C0.23537317 4.91190305 0 3.76687864 0 0 Z " fill="#892F03" transform="translate(117,339)"/>
<path d="M0 0 C3.23475448 1.61737724 4.70572021 2.47629223 7 5 C6.01 5.99 5.02 6.98 4 8 C2.68 5.36 1.36 2.72 0 0 Z " fill="#D87A37" transform="translate(312,259)"/>
<path d="M0 0 C3.59391114 1.33488128 6.75490696 2.96022723 10 5 C9.67 5.99 9.34 6.98 9 8 C7.49712782 6.85793642 5.99776716 5.71125043 4.5 4.5625 C3.6646875 3.92441406 2.829375 3.28632813 1.96875 2.62890625 C1.3190625 2.09136719 0.669375 1.55382812 0 1 C0 0.67 0 0.34 0 0 Z " fill="#7C3403" transform="translate(165,143)"/>
<path d="M0 0 C0.33 0 0.66 0 1 0 C1.33 2.64 1.66 5.28 2 8 C2.99 8.33 3.98 8.66 5 9 C3.68 9.33 2.36 9.66 1 10 C-1.56687367 6.1496895 -0.83288724 4.41430237 0 0 Z " fill="#933C05" transform="translate(324,101)"/>
<path d="M0 0 C1.39195915 4.17587745 -0.17676781 6.13474776 -2 10 C-2.33 10 -2.66 10 -3 10 C-3.36923077 3.47692308 -3.36923077 3.47692308 -1.5 1.0625 C-1.005 0.711875 -0.51 0.36125 0 0 Z " fill="#773903" transform="translate(163,78)"/>
<path d="M0 0 C2 3 2 3 1.875 5.0625 C1 7 1 7 -3 9 C-2.01 6.03 -1.02 3.06 0 0 Z " fill="#8F480B" transform="translate(346,396)"/>
<path d="M0 0 C0 3.99904969 -1.72586967 5.80200422 -4 9 C-5 7 -5 7 -4.25 4.5 C-3 2 -3 2 0 0 Z " fill="#803504" transform="translate(149,226)"/>
<path d="M0 0 C0 3.17370278 -0.30933342 4.3794668 -2 7 C-4.125 8.25 -4.125 8.25 -6 9 C-4.68775452 5.06326356 -3.08089673 2.77280706 0 0 Z " fill="#D27B37" transform="translate(154,222)"/>
<path d="M0 0 C1.65 1.65 3.3 3.3 5 5 C4.01 6.485 4.01 6.485 3 8 C1.02 4.535 1.02 4.535 -1 1 C-0.67 0.67 -0.34 0.34 0 0 Z " fill="#934710" transform="translate(337,216)"/>
<path d="M0 0 C-0.33 2.64 -0.66 5.28 -1 8 C-1.33 8 -1.66 8 -2 8 C-2 6.35 -2 4.7 -2 3 C-3.32 3.33 -4.64 3.66 -6 4 C-2.17391304 0 -2.17391304 0 0 0 Z " fill="#D27C3D" transform="translate(280,198)"/>
<path d="M0 0 C0.33 0.66 0.66 1.32 1 2 C0.0625 4.125 0.0625 4.125 -1 6 C-1.66 6 -2.32 6 -3 6 C-3.33 6.99 -3.66 7.98 -4 9 C-4.33 8.34 -4.66 7.68 -5 7 C-3.35 4.69 -1.7 2.38 0 0 Z " fill="#D57D39" transform="translate(217,343)"/>
<path d="M0 0 C3.24299151 2.38957269 5.50902342 4.2047869 7 8 C6.01 8.495 6.01 8.495 5 9 C4.896875 8.360625 4.79375 7.72125 4.6875 7.0625 C4.3471875 6.0415625 4.3471875 6.0415625 4 5 C3.01 4.67 2.02 4.34 1 4 C0.3125 1.9375 0.3125 1.9375 0 0 Z " fill="#823904" transform="translate(133,341)"/>
<path d="M0 0 C0.33 0.66 0.66 1.32 1 2 C-0.98 4.31 -2.96 6.62 -5 9 C-5 4.61031544 -2.87194899 3.23094261 0 0 Z " fill="#D77F3B" transform="translate(225,294)"/>
</svg>
