<?xml version="1.0" encoding="UTF-8"?>
<svg version="1.1" xmlns="http://www.w3.org/2000/svg" width="504" height="495">
<path d="M0 0 C0.84575592 -0.0066568 1.69151184 -0.0133136 2.56289673 -0.02017212 C4.34985178 -0.03028373 6.13684449 -0.0349896 7.92382812 -0.03466797 C10.64777353 -0.03903638 13.37009163 -0.07535689 16.09375 -0.11328125 C17.83332782 -0.11915083 19.5729133 -0.12311928 21.3125 -0.125 C22.52684219 -0.14655655 22.52684219 -0.14655655 23.76571655 -0.16854858 C29.08148917 -0.12592753 32.04791606 0.85263127 36.2890625 4.3359375 C40.51710965 9.00136884 40.40165706 13.16123576 40.16796875 19.2890625 C40.13255226 20.27939484 40.13255226 20.27939484 40.09642029 21.28973389 C40.0201344 23.3887065 39.93596097 25.48727699 39.8515625 27.5859375 C39.7983066 29.01300147 39.74556646 30.44008478 39.69335938 31.8671875 C39.56553125 35.35709825 39.42703265 38.8463541 39.2890625 42.3359375 C45.8890625 42.3359375 52.4890625 42.3359375 59.2890625 42.3359375 C59.2684375 40.7271875 59.2478125 39.1184375 59.2265625 37.4609375 C59.23308843 31.97263045 59.39842513 26.50425274 59.6640625 21.0234375 C59.7103479 19.89542725 59.7103479 19.89542725 59.75756836 18.74462891 C60.37350965 7.15571271 60.37350965 7.15571271 64.7890625 2.9609375 C69.19178381 0.09916865 72.66273652 0.1593349 77.8046875 0.1328125 C79.07756622 0.12426239 79.07756622 0.12426239 80.37615967 0.11553955 C82.17507682 0.10608352 83.97401134 0.09955318 85.77294922 0.09570312 C88.5143092 0.08602489 91.2549107 0.05501909 93.99609375 0.0234375 C95.74478722 0.0169046 97.49348605 0.01165526 99.2421875 0.0078125 C100.05802307 -0.0045343 100.87385864 -0.0168811 101.7144165 -0.02960205 C106.60753647 -0.01062709 110.16426984 0.41862604 114.2890625 3.3359375 C117.31642656 7.77051052 117.75235008 11.90433416 117.80078125 17.140625 C117.81873245 17.8646048 117.83668365 18.58858459 117.85517883 19.33450317 C117.90897388 21.62659027 117.94307652 23.91847291 117.9765625 26.2109375 C118.00976299 27.77346577 118.04425516 29.33596716 118.08007812 30.8984375 C118.16709434 34.71096184 118.22741964 38.52258242 118.2890625 42.3359375 C124.8890625 42.3359375 131.4890625 42.3359375 138.2890625 42.3359375 C138.27746094 39.90476563 138.26585937 37.47359375 138.25390625 34.96875 C138.24611168 32.61897919 138.24003719 30.26920982 138.23413086 27.91943359 C138.22909629 26.28401039 138.22226823 24.6485917 138.21362305 23.01318359 C138.20151915 20.66502775 138.1958255 18.31693131 138.19140625 15.96875 C138.18624496 15.23536407 138.18108368 14.50197815 138.17576599 13.74636841 C138.17519079 8.56368091 138.17519079 8.56368091 139.2890625 6.3359375 C139.9490625 6.3359375 140.6090625 6.3359375 141.2890625 6.3359375 C141.6190625 5.3459375 141.9490625 4.3559375 142.2890625 3.3359375 C146.99969683 0.24015729 151.27529332 -0.09382166 156.7578125 -0.02734375 C157.9556134 -0.02809151 157.9556134 -0.02809151 159.1776123 -0.02885437 C160.85850526 -0.02652379 162.53940236 -0.01685551 164.22021484 -0.00024414 C166.78124466 0.02336543 169.34123252 0.02030688 171.90234375 0.01367188 C173.54167282 0.01924912 175.18099754 0.02635929 176.8203125 0.03515625 C177.57985229 0.03424484 178.33939209 0.03333344 179.12194824 0.03239441 C183.54191767 0.09083299 187.21607984 0.58657701 191.2890625 2.3359375 C194.86741662 6.44907861 195.17431811 11.42673499 195.8515625 16.6484375 C195.97740723 17.54651123 196.10325195 18.44458496 196.23291016 19.36987305 C196.93706585 24.45579344 197.56055385 29.54963543 198.1640625 34.6484375 C199.318067 44.25527835 200.94141519 53.79157517 202.52490234 63.33520508 C203.98473242 72.1956088 205.40507639 80.96153693 205.5390625 89.9609375 C205.56484375 91.00507812 205.590625 92.04921875 205.6171875 93.125 C204.87799591 100.35851769 200.59669579 106.49874988 196.9765625 112.6484375 C196.48816895 113.48713379 195.99977539 114.32583008 195.49658203 115.18994141 C192.51994953 120.28948962 189.49008847 125.35051531 186.3125 130.328125 C183.43991002 135.96366412 184.56053762 141.35476907 185.3515625 147.3984375 C185.4844165 148.45699951 185.61727051 149.51556152 185.75415039 150.60620117 C186.25215879 154.51796373 186.76771733 158.4272336 187.2890625 162.3359375 C187.39665894 163.14329346 187.50425537 163.95064941 187.6151123 164.7824707 C190.31580678 185.00947731 193.10504716 205.22329587 196.03100586 225.41894531 C196.86807588 231.23811076 197.64039302 237.05537816 198.2890625 242.8984375 C199.6260626 254.75551731 201.50637848 266.53933172 203.2890625 278.3359375 C203.82597372 281.88885545 204.36200008 285.44188185 204.89355469 288.99560547 C205.23774936 291.28711543 205.58727162 293.57783214 205.94238281 295.86767578 C206.68831047 300.76834807 207.36316299 305.61057927 207.6328125 310.5625 C207.81480659 318.19968223 207.81480659 318.19968223 211.421875 324.63671875 C214.0054053 326.43261795 214.0054053 326.43261795 216.74609375 327.88671875 C222.61351656 331.23051885 225.27686417 336.53947854 227.1640625 342.8359375 C229.4334395 352.72879053 228.31031044 360.75157119 222.91015625 369.59375 C221.75818488 371.21504304 220.53150371 372.78288599 219.2890625 374.3359375 C219.9078125 374.5834375 220.5265625 374.8309375 221.1640625 375.0859375 C223.67616546 376.56364512 224.05013594 377.77548927 225.2890625 380.3359375 C226.2790625 380.6659375 227.2690625 380.9959375 228.2890625 381.3359375 C234.99557784 390.27795795 235.4475075 401.68271235 235.4921875 412.39453125 C235.49788757 413.45704605 235.50358765 414.51956085 235.50946045 415.61427307 C235.51888279 417.85587577 235.5254334 420.09749215 235.52929688 422.33911133 C235.53901923 425.75822114 235.5700762 429.17673374 235.6015625 432.59570312 C235.60809174 434.77864228 235.61334252 436.96158571 235.6171875 439.14453125 C235.6295343 440.16139511 235.6418811 441.17825897 235.65460205 442.22593689 C235.62683526 451.11843748 233.46191916 456.86913529 227.2890625 463.3359375 C222.87199074 466.46020777 219.1473963 467.45783602 213.79552269 467.47015858 C212.89500943 467.47461642 211.99449616 467.47907426 211.06669462 467.48366719 C209.58860647 467.48339065 209.58860647 467.48339065 208.08065796 467.48310852 C207.03073941 467.48678521 205.98082086 467.4904619 204.89908659 467.49425 C201.36940568 467.50529193 197.8397542 467.50913156 194.31005859 467.51293945 C191.78385321 467.51920372 189.25764876 467.52585049 186.73144531 467.53285217 C179.14234433 467.55208199 171.55324852 467.56268084 163.96412939 467.57157996 C160.38807904 467.57596568 156.81203017 467.58133177 153.23598099 467.58656883 C141.34452052 467.60357969 129.45306096 467.61807305 117.56159019 467.62531757 C114.47676975 467.62722739 111.39194932 467.62914773 108.30712891 467.63110352 C107.15708866 467.63182913 107.15708866 467.63182913 105.98381527 467.6325694 C93.56858172 467.64086671 81.15344461 467.66619919 68.73825316 467.69868419 C55.98475635 467.73178165 43.23130851 467.74976877 30.47776854 467.75296181 C23.32000155 467.75512446 16.16237518 467.76383699 9.00465012 467.78942299 C2.26919706 467.81344428 -4.46595954 467.81693885 -11.20146179 467.80666161 C-13.67093624 467.80616601 -16.14042311 467.81249328 -18.60985947 467.82621765 C-21.98708559 467.84393408 -25.36340393 467.83683062 -28.7406311 467.82368469 C-29.71263887 467.83465394 -30.68464664 467.84562318 -31.68610919 467.85692483 C-39.23909301 467.78618243 -46.58292124 466.38374822 -52.1484375 460.9609375 C-52.6640625 460.0946875 -53.1796875 459.2284375 -53.7109375 458.3359375 C-54.22922119 457.54856201 -54.74750488 456.76118652 -55.28149414 455.94995117 C-57.38879388 450.62213597 -57.15891354 445.56712933 -57.14453125 439.88671875 C-57.1497731 438.67831833 -57.15501495 437.46991791 -57.16041565 436.22489929 C-57.16683033 433.67052985 -57.16550608 431.11613085 -57.15698242 428.56176758 C-57.1485049 424.67930552 -57.17719242 420.79833127 -57.20898438 416.91601562 C-57.21059749 414.42708377 -57.21001676 411.93814934 -57.20703125 409.44921875 C-57.21826523 408.29988358 -57.22949921 407.1505484 -57.24107361 405.96638489 C-57.16033084 396.49026944 -55.09925855 388.24708059 -49.7109375 380.3359375 C-49.0509375 380.3359375 -48.3909375 380.3359375 -47.7109375 380.3359375 C-47.4634375 379.7171875 -47.2159375 379.0984375 -46.9609375 378.4609375 C-45.50465111 375.98525063 -44.33281244 375.38468748 -41.7109375 374.3359375 C-41.7109375 373.3459375 -41.7109375 372.3559375 -41.7109375 371.3359375 C-42.7009375 371.0059375 -43.6909375 370.6759375 -44.7109375 370.3359375 C-45.84375 368.59375 -45.84375 368.59375 -46.8359375 366.4609375 C-47.16851562 365.76226562 -47.50109375 365.06359375 -47.84375 364.34375 C-51.08342555 356.84287958 -50.91662349 347.15368303 -47.94921875 339.53125 C-43.81656553 332.20459035 -38.05841196 327.16274712 -30.7109375 323.3359375 C-29.57028087 319.91396761 -29.21981251 316.58717269 -28.8359375 313.0234375 C-28.08422487 306.36541133 -27.24908442 299.72374301 -26.3359375 293.0859375 C-26.21178467 292.18302979 -26.08763184 291.28012207 -25.9597168 290.34985352 C-25.54501417 287.34499704 -25.12825397 284.34043207 -24.7109375 281.3359375 C-24.19722913 277.63581451 -23.68381622 273.93565191 -23.17138672 270.23535156 C-22.83427853 267.80225509 -22.49614074 265.36930094 -22.15673828 262.93652344 C-20.58863317 251.63024677 -19.19755002 240.30347115 -17.80723572 228.97436523 C-17.38411072 225.53050849 -16.9590952 222.08688647 -16.53369141 218.64331055 C-16.31743577 216.88791019 -16.10227727 215.13237434 -15.88818359 213.37670898 C-14.85536793 204.91435969 -13.81227453 196.50248516 -12.19335938 188.12915039 C-11.08297921 181.70007169 -10.44652318 175.1918496 -9.7109375 168.7109375 C-9.46140806 166.54461257 -9.21087956 164.37840648 -8.95976257 162.21226501 C-8.79421967 160.77163469 -8.63145731 159.33068207 -8.47151184 157.88941956 C-8.05297886 154.14238052 -7.5869608 150.41031549 -7.04174805 146.67944336 C-6.93624634 145.91818146 -6.83074463 145.15691956 -6.7220459 144.37258911 C-6.52031862 142.9264493 -6.30490873 141.48212378 -6.07312012 140.04049683 C-5.05745569 132.53600572 -8.40695129 128.13035002 -12.7109375 122.3359375 C-13.90679275 120.52553154 -15.0704736 118.69710663 -16.23120117 116.86401367 C-17.3379429 115.11882943 -18.46604971 113.38927549 -19.59765625 111.66015625 C-28.81718599 97.15771667 -27.43310221 87.05302192 -25.0090332 70.71069336 C-23.81776498 62.49907296 -22.88393727 54.26605389 -21.96817017 46.02032471 C-19.51487727 23.9951157 -19.51487727 23.9951157 -18.2109375 14.9609375 C-18.06978516 13.86724854 -18.06978516 13.86724854 -17.92578125 12.75146484 C-17.23188074 8.25099302 -15.9379102 5.55121827 -12.7109375 2.3359375 C-8.85601844 -0.3626242 -4.52025312 0.01236525 0 0 Z " fill="#794207" transform="translate(170.7109375,18.6640625)"/>
<path d="M0 0 C52.8 0 105.6 0 160 0 C169 66 169 66 172.25 90 C174.06545772 103.3300735 175.95250017 116.64441467 177.93408203 129.95043945 C179.44838345 140.12396848 180.8875666 150.30497992 182.25 160.5 C182.41322754 161.71671387 182.57645508 162.93342773 182.74462891 164.18701172 C183.617372 170.79067489 184.33644763 177.36447628 185 184 C168.83 184 152.66 184 136 184 C135.95101562 179.23046875 135.90203125 174.4609375 135.8515625 169.546875 C135.8161247 166.50258456 135.78013549 163.45832017 135.7421875 160.4140625 C135.68217267 155.59541812 135.62406175 150.77680966 135.578125 145.95800781 C135.54090879 142.06751231 135.49445739 138.17722129 135.44193649 134.28690338 C135.42358341 132.81200036 135.40840728 131.33705383 135.39665604 129.86208344 C135.24999824 112.06991476 133.18711265 96.70407393 121 83 C120.45085937 82.32324219 119.90171875 81.64648438 119.3359375 80.94921875 C110.68258985 71.13319664 97.00031362 65.5694076 84.171875 64.7578125 C67.76713009 64.10296981 54.59321667 68.58188634 41.875 79 C30.51776693 89.69651354 25.25378436 104.80249865 24.51176262 120.17937565 C24.41209061 123.74512038 24.392648 127.30805433 24.390625 130.875 C24.37559168 132.42156661 24.35885407 133.96811749 24.34051514 135.51464844 C24.29740583 139.5257656 24.27697032 143.53666662 24.26177979 147.54797363 C24.23850568 152.39260568 24.1861444 157.23700586 24.13883972 162.08145142 C24.07066225 169.38769357 24.03870087 176.69327534 24 184 C8.16 184 -7.68 184 -24 184 C-21.70230541 161.02305407 -21.70230541 161.02305407 -20.73828125 153.6640625 C-20.62707443 152.79670471 -20.51586761 151.92934692 -20.40129089 151.03570557 C-20.04108414 148.23177819 -19.67688137 145.42838764 -19.3125 142.625 C-19.05056108 140.59394114 -18.78884863 138.56285307 -18.52734375 136.53173828 C-17.97390151 132.23772968 -17.41859911 127.94396734 -16.86181641 123.65039062 C-16.13818675 118.06983767 -15.41796518 112.48885146 -14.69885254 106.90771484 C-11.50843275 82.15055624 -8.27874972 57.39905766 -4.953125 32.65966797 C-4.72263731 30.94238535 -4.49216798 29.22510028 -4.26171875 27.5078125 C-4.15266205 26.6979892 -4.04360535 25.88816589 -3.9312439 25.05380249 C-3.40553182 21.12796156 -2.89762138 17.20108259 -2.42431641 13.26855469 C-2.33438919 12.52475555 -2.24446198 11.78095642 -2.15180969 11.01461792 C-1.9111744 9.00610313 -1.6757309 6.99696822 -1.44067383 4.98779297 C-1 2 -1 2 0 0 Z " fill="#E07629" transform="translate(180,158)"/>
<path d="M0 0 C0.33 0 0.66 0 1 0 C1.325169 10.83896679 0.88644579 18.30133164 -6 27 C-5.38125 27.2475 -4.7625 27.495 -4.125 27.75 C-1.61289704 29.22770762 -1.23892656 30.43955177 0 33 C0.99 33.33 1.98 33.66 3 34 C9.70651534 42.94202045 10.158445 54.34677485 10.203125 65.05859375 C10.20882507 66.12110855 10.21452515 67.18362335 10.22039795 68.27833557 C10.22982029 70.51993827 10.2363709 72.76155465 10.24023438 75.00317383 C10.24995673 78.42228364 10.2810137 81.84079624 10.3125 85.25976562 C10.31902924 87.44270478 10.32428002 89.62564821 10.328125 91.80859375 C10.3404718 92.82545761 10.3528186 93.84232147 10.36553955 94.88999939 C10.33777276 103.78249998 8.17285666 109.53319779 2 116 C-2.41707176 119.12427027 -6.1416662 120.12189852 -11.49353981 120.13422108 C-12.39405307 120.13867892 -13.29456634 120.14313676 -14.22236788 120.14772969 C-15.70045603 120.14745315 -15.70045603 120.14745315 -17.20840454 120.14717102 C-18.25832309 120.15084771 -19.30824164 120.1545244 -20.38997591 120.1583125 C-23.91965682 120.16935443 -27.4493083 120.17319406 -30.97900391 120.17700195 C-33.50520929 120.18326622 -36.03141374 120.18991299 -38.55761719 120.19691467 C-46.14671817 120.21614449 -53.73581398 120.22674334 -61.32493311 120.23564246 C-64.90098346 120.24002818 -68.47703233 120.24539427 -72.05308151 120.25063133 C-83.94454198 120.26764219 -95.83600154 120.28213555 -107.72747231 120.28938007 C-110.81229275 120.29128989 -113.89711318 120.29321023 -116.98193359 120.29516602 C-118.13197384 120.29589163 -118.13197384 120.29589163 -119.30524723 120.2966319 C-131.72048078 120.30492921 -144.13561789 120.33026169 -156.55080934 120.36274669 C-169.30430615 120.39584415 -182.05775399 120.41383127 -194.81129396 120.41702431 C-201.96906095 120.41918696 -209.12668732 120.42789949 -216.28441238 120.45348549 C-223.01986544 120.47750678 -229.75502204 120.48100135 -236.49052429 120.47072411 C-238.95999874 120.47022851 -241.42948561 120.47655578 -243.89892197 120.49028015 C-247.27614809 120.50799658 -250.65246643 120.50089312 -254.0296936 120.48774719 C-255.00170137 120.49871644 -255.97370914 120.50968568 -256.97517169 120.52098733 C-264.52815551 120.45024493 -271.87198374 119.04781072 -277.4375 113.625 C-277.953125 112.75875 -278.46875 111.8925 -279 111 C-279.51828369 110.21262451 -280.03656738 109.42524902 -280.57055664 108.61401367 C-282.67785638 103.28619847 -282.44797604 98.23119183 -282.43359375 92.55078125 C-282.4388356 91.34238083 -282.44407745 90.13398041 -282.44947815 88.88896179 C-282.45589283 86.33459235 -282.45456858 83.78019335 -282.44604492 81.22583008 C-282.4375674 77.34336802 -282.46625492 73.46239377 -282.49804688 69.58007812 C-282.49965999 67.09114627 -282.49907926 64.60221184 -282.49609375 62.11328125 C-282.50732773 60.96394608 -282.51856171 59.8146109 -282.53013611 58.63044739 C-282.44939334 49.15433194 -280.38832105 40.91114309 -275 33 C-274.34 33 -273.68 33 -273 33 C-272.7525 32.38125 -272.505 31.7625 -272.25 31.125 C-271 29 -271 29 -268.9375 28 C-266.78719721 27.1704178 -266.78719721 27.1704178 -266.25 24.875 C-266.12625 23.946875 -266.12625 23.946875 -266 23 C-265.01 24.65 -264.02 26.3 -263 28 C-263.66 28 -264.32 28 -265 28 C-265 28.66 -265 29.32 -265 30 C-265.66 30 -266.32 30 -267 30 C-267.66 31.32 -268.32 32.64 -269 34 C-267.8509288 35.2981424 -267.8509288 35.2981424 -265 36 C-263.875 37.9375 -263.875 37.9375 -263 40 C-262.67 40.66 -262.34 41.32 -262 42 C-263.32 44.97 -264.64 47.94 -266 51 C-266.66 58.26 -267.32 65.52 -268 73 C-181.21 73 -94.42 73 -5 73 C-5.07590857 53.61810916 -5.07590857 53.61810916 -9 42 C-8.34 42.33 -7.68 42.66 -7 43 C-7 43.66 -7 44.32 -7 45 C-5.05000871 44.80528889 -5.05000871 44.80528889 -3 44 C-1.71563266 42.0162233 -1.71563266 42.0162233 -1 40 C-0.01 40 0.98 40 2 40 C1.34 38.02 0.68 36.04 0 34 C-0.58007812 34.11859375 -1.16015625 34.2371875 -1.7578125 34.359375 C-8.93263957 35.54333986 -8.93263957 35.54333986 -12.5625 33.0625 C-13.7690625 32.0415625 -13.7690625 32.0415625 -15 31 C-14.34 30.01 -13.68 29.02 -13 28 C-12.34 28 -11.68 28 -11 28 C-10.67 27.34 -10.34 26.68 -10 26 C-9.67 25.67 -9.34 25.34 -9 25 C-7.45428722 22.68143083 -6.20381448 20.49361571 -5 18 C-4.34 18 -3.68 18 -3 18 C-1.33318124 11.99945246 -0.48320848 6.2054142 0 0 Z " fill="#774208" transform="translate(396,366)"/>
<path d="M0 0 C2.11828979 -0.00570815 4.2365765 -0.01267413 6.3548584 -0.02079773 C12.08847191 -0.0386966 17.82193209 -0.03756667 23.55556512 -0.03185534 C28.35153618 -0.02875826 33.14747801 -0.03486185 37.94344491 -0.04089409 C49.26359101 -0.05492746 60.58366163 -0.05338836 71.90380859 -0.04199219 C83.55996944 -0.03051663 95.21590005 -0.04458005 106.87203056 -0.07138866 C116.89954502 -0.09358319 126.92698742 -0.10017444 136.9545247 -0.09431225 C142.93466245 -0.09094993 148.9146527 -0.0933094 154.89476967 -0.11056328 C160.52147859 -0.12608973 166.14784797 -0.12201361 171.77454376 -0.10325813 C173.83155187 -0.09958779 175.88858545 -0.10263499 177.94556999 -0.11314392 C203.50782422 -0.23369915 203.50782422 -0.23369915 211.45879078 6.30053043 C221.22868299 16.26497855 219.15112305 27.63876599 219.15112305 41.40405273 C132.36112305 41.40405273 45.57112305 41.40405273 -43.84887695 41.40405273 C-43.84887695 16.91937307 -43.84887695 16.91937307 -36.84887695 7.40405273 C-26.74003761 -1.52934017 -12.57405203 -0.030581 0 0 Z " fill="#DC7427" transform="translate(171.848876953125,397.595947265625)"/>
<path d="M0 0 C1.084021 0.00523682 2.16804199 0.01047363 3.28491211 0.01586914 C4.45473633 0.0190918 5.62456055 0.02231445 6.82983398 0.02563477 C8.0615332 0.03401367 9.29323242 0.04239258 10.56225586 0.05102539 C12.41560547 0.05779297 12.41560547 0.05779297 14.30639648 0.06469727 C17.37089703 0.07652931 20.43530307 0.09301366 23.49975586 0.11352539 C23.56706909 1.46716187 23.56706909 1.46716187 23.63574219 2.84814453 C23.80988174 6.22402303 23.99577725 9.5988402 24.18945312 12.97363281 C24.27060875 14.42910972 24.34718946 15.88484972 24.41894531 17.34082031 C24.52343544 19.44431459 24.64482705 21.54628542 24.76928711 23.64868164 C24.83736572 24.91075439 24.90544434 26.17282715 24.97558594 27.47314453 C25.70553602 32.54267675 26.75106213 36.61551919 30.73242188 40.02612305 C34.21994975 41.39651997 37.03012405 41.50202836 40.77709961 41.51196289 C41.46606827 41.51483307 42.15503693 41.51770325 42.86488342 41.5206604 C44.31634344 41.52269402 45.76783131 41.51721334 47.21923828 41.50463867 C49.42730774 41.48859766 51.63354033 41.5044965 53.84155273 41.52368164 C55.25757236 41.5216986 56.67359085 41.51785367 58.08959961 41.51196289 C59.36697998 41.5085791 60.64436035 41.50519531 61.96044922 41.50170898 C66.89086856 40.96095112 70.13693704 39.75472102 73.34277344 35.89404297 C74.81586932 32.35382582 74.93513599 29.45744295 75.01147461 25.62524414 C75.02942581 24.92204544 75.04737701 24.21884674 75.06587219 23.49433899 C75.11976066 21.26329423 75.15379997 19.03246069 75.18725586 16.80102539 C75.2204481 15.28211592 75.25493953 13.76323425 75.29077148 12.24438477 C75.37790609 8.53407159 75.43815078 4.82470041 75.49975586 1.11352539 C84.07975586 1.11352539 92.65975586 1.11352539 101.49975586 1.11352539 C102.81462425 5.71556475 103.83002096 9.57622059 104.46118164 14.21313477 C104.62119659 15.37123657 104.78121155 16.52933838 104.94607544 17.72253418 C105.1107431 18.95499878 105.27541077 20.18746338 105.44506836 21.45727539 C105.61980682 22.74033569 105.79454529 24.023396 105.97457886 25.34533691 C106.34257758 28.05132087 106.70692238 30.75776422 107.06860352 33.46459961 C107.53036641 36.91845985 108.0009114 40.3710549 108.47416878 43.82335663 C108.92741994 47.13820988 109.37344475 50.45402259 109.82006836 53.76977539 C109.98878448 55.00223999 110.15750061 56.23470459 110.33132935 57.5045166 C110.48503998 58.66261841 110.63875061 59.82072021 110.79711914 61.01391602 C110.93320587 62.02538696 111.0692926 63.03685791 111.20950317 64.07897949 C111.52811581 67.41002424 111.49975586 70.76727777 111.49975586 74.11352539 C44.83975586 74.11352539 -21.82024414 74.11352539 -90.50024414 74.11352539 C-90.50024414 62.86291906 -90.50024414 62.86291906 -89.78173828 57.73339844 C-89.62479996 56.58908859 -89.46786163 55.44477875 -89.3061676 54.26579285 C-89.13431442 53.06441177 -88.96246124 51.8630307 -88.78540039 50.62524414 C-88.6102037 49.36388138 -88.43500702 48.10251862 -88.25450134 46.80293274 C-87.8852146 44.15262752 -87.51351271 41.50281754 -87.13720703 38.85351562 C-86.65625267 35.4674129 -86.18254572 32.08034947 -85.71158695 28.69284344 C-85.25926758 25.44082897 -84.80371523 22.18927027 -84.34790039 18.93774414 C-84.17807144 17.72624191 -84.00824249 16.51473969 -83.83326721 15.26652527 C-83.67317673 14.13797623 -83.51308624 13.00942719 -83.34814453 11.84667969 C-83.13829674 10.36303169 -83.13829674 10.36303169 -82.92420959 8.84941101 C-82.52269253 6.25838675 -82.01445087 3.68455905 -81.50024414 1.11352539 C-72.59024414 1.11352539 -63.68024414 1.11352539 -54.50024414 1.11352539 C-54.44416992 4.49151367 -54.44416992 4.49151367 -54.38696289 7.93774414 C-54.34069594 10.12883993 -54.28948135 12.31976837 -54.23779297 14.51074219 C-54.20462498 16.0285416 -54.17656782 17.54646195 -54.15380859 19.06445312 C-54.12011136 21.25190558 -54.0677921 23.43825803 -54.01196289 25.62524414 C-53.98577881 26.93968506 -53.95959473 28.25412598 -53.93261719 29.60839844 C-53.35780147 34.26826815 -51.77650836 36.83726117 -48.50024414 40.11352539 C-43.12431227 42.05435951 -36.93617685 41.37707226 -31.28344727 41.40869141 C-29.8481257 41.42021944 -28.41284727 41.44068476 -26.9777832 41.47021484 C-24.89383092 41.51305217 -22.81114541 41.52907901 -20.72680664 41.53930664 C-18.86403076 41.56118042 -18.86403076 41.56118042 -16.96362305 41.58349609 C-12.80974237 41.01982626 -10.70586391 39.77960569 -7.50024414 37.11352539 C-4.94119103 33.68853242 -5.11523243 29.92931845 -4.90258789 25.75805664 C-4.86339737 25.05581467 -4.82420685 24.35357269 -4.78382874 23.63005066 C-4.66013577 21.39573083 -4.54813596 19.1610388 -4.43774414 16.92602539 C-4.3223329 14.68042502 -4.20438125 12.43503921 -4.08094788 10.18986511 C-3.97000928 8.16057852 -3.86761839 6.13083007 -3.765625 4.10107422 C-3.41510513 0.15506531 -3.41510513 0.15506531 0 0 Z " fill="#E1772A" transform="translate(249.500244140625,33.886474609375)"/>
<path d="M0 0 C0.7915114 -0.00384115 1.5830228 -0.00768229 2.3985194 -0.01163983 C3.69393474 -0.01034011 3.69393474 -0.01034011 5.0155201 -0.00901413 C5.93758723 -0.01198525 6.85965437 -0.01495637 7.80966294 -0.01801753 C10.90645886 -0.0267051 14.00321612 -0.02821282 17.10002327 -0.02970505 C19.31745168 -0.03433311 21.5348793 -0.03935776 23.75230598 -0.04475021 C29.78120503 -0.05787579 35.81009294 -0.06431928 41.83900404 -0.06876087 C45.60402228 -0.07169085 49.36903747 -0.07579548 53.13405418 -0.08026505 C63.56034058 -0.09237261 73.98662482 -0.10275554 84.41291809 -0.10614014 C85.07994838 -0.1063597 85.74697866 -0.10657927 86.43422199 -0.10680549 C87.10283508 -0.10702377 87.77144817 -0.10724204 88.46032226 -0.10746694 C89.81515749 -0.1079104 91.16999273 -0.10835696 92.52482796 -0.10880661 C93.19687103 -0.10902804 93.8689141 -0.10924947 94.56132211 -0.10947761 C105.4531424 -0.11342645 116.34489582 -0.13088426 127.23669027 -0.15416613 C138.42170753 -0.17788169 149.60670041 -0.19008407 160.79174531 -0.19150805 C167.07075108 -0.19255729 173.34966249 -0.19849066 179.62864494 -0.21632767 C185.53342827 -0.23277551 191.43804597 -0.23497979 197.34284401 -0.22618866 C199.51083379 -0.22541657 201.67883237 -0.22978352 203.84679985 -0.23964691 C206.80493113 -0.25231679 209.76247135 -0.24651647 212.72059822 -0.23606491 C213.57974701 -0.24412132 214.4388958 -0.25217772 215.32407939 -0.26047826 C220.29314107 -0.21937843 223.68578522 0.38734781 227.9950428 3.13142776 C231.39895178 6.81132937 232.864121 9.39671394 233.2450428 14.44392776 C232.96588753 18.561468 232.2781054 20.70683387 229.9950428 24.13142776 C224.01767297 28.73898368 219.47079263 29.27924042 212.13278389 29.27186966 C210.75709015 29.27632634 210.75709015 29.27632634 209.35360461 29.28087306 C206.26752214 29.2895738 203.18147838 29.29106947 200.0953846 29.29256058 C197.88795577 29.29718776 195.68052775 29.30221228 193.47310066 29.30760574 C187.46686895 29.32074096 181.46064843 29.32717684 175.45440459 29.3316164 C171.70396508 29.33454519 167.95352864 29.33864961 164.20309067 29.34312057 C153.8188788 29.35523054 143.4346691 29.36561233 133.05045033 29.36899567 C132.38585253 29.36921523 131.72125473 29.3694348 131.03651761 29.36966102 C130.03723825 29.36998843 130.03723825 29.36998843 129.01777142 29.37032247 C127.66782868 29.37076593 126.31788593 29.3712125 124.96794319 29.37166214 C123.96351626 29.37199428 123.96351626 29.37199428 122.93879787 29.37233314 C112.08894629 29.37628103 101.23916188 29.3937349 90.38933625 29.41702166 C79.24955114 29.44073774 68.10979053 29.45293966 56.96997768 29.45436358 C50.71554907 29.4554129 44.46121519 29.46134761 38.20681 29.4791832 C32.32420068 29.49563191 26.44175762 29.4978349 20.55913353 29.48904419 C18.39920736 29.48827211 16.23927237 29.4926389 14.07936859 29.50250244 C11.13213073 29.51517287 8.18548608 29.50937167 5.23825264 29.49892044 C4.38231268 29.50697685 3.52637272 29.51503325 2.64449519 29.52333379 C-2.31674215 29.48215049 -5.70187924 28.86948863 -10.0049572 26.13142776 C-14.13298199 21.66869827 -15.3136007 18.30668571 -15.2237072 12.19392776 C-14.78464325 8.05418198 -13.06562329 5.12366379 -10.0674572 2.31892776 C-6.79056453 0.43223199 -3.74318798 0.00684384 0 0 Z " fill="#DF7628" transform="translate(151.00495719909668,355.8685722351074)"/>
<path d="M0 0 C0.33 0 0.66 0 1 0 C1.67826889 4.23511094 2.35111195 8.47104501 3.02059937 12.70755005 C3.37390993 14.93064112 3.7332716 17.15269824 4.09301758 19.37475586 C5.19128396 26.2368927 6.16078729 33.03204626 6.55810547 39.97705078 C6.88558381 46.20236766 6.88558381 46.20236766 10.12890625 51.28125 C12.71299591 53.09742892 12.71299591 53.09742892 15.45703125 54.55078125 C21.32445406 57.89458135 23.98780167 63.20354104 25.875 69.5 C27.50740681 76.48361021 27.72023322 82.19941696 25 89 C24.67 88.01 24.34 87.02 24 86 C23.690625 86.61875 23.38125 87.2375 23.0625 87.875 C22.375 89.25 21.6875 90.625 21 92 C20.34 92 19.68 92 19 92 C18.87625 92.7425 18.7525 93.485 18.625 94.25 C18.03438237 96.84871755 17.43713552 98.76445586 16 101 C14.515 101.495 14.515 101.495 13 102 C11.33289654 103.49985609 11.33289654 103.49985609 10 105 C12.10960374 106.70208018 12.10960374 106.70208018 15 108 C16.175625 107.814375 17.35125 107.62875 18.5625 107.4375 C22 107 22 107 24.3125 108.5625 C26.20172435 111.29137962 27.12967853 113.80882127 28 117 C26.35 116.34 24.7 115.68 23 115 C22.38125 115.66 21.7625 116.32 21.125 117 C19 119 19 119 17 119 C15.31066078 117.3563186 13.64740076 115.6857124 12 114 C3.83415277 105.83415277 -8.28535667 106.61330215 -19.02864075 106.59341431 C-21.02243133 106.59924573 -23.01622101 106.60539015 -25.01000977 106.61181641 C-27.13331369 106.60774635 -29.2566155 106.60240204 -31.37991333 106.59588623 C-37.12153906 106.5822594 -42.86300229 106.58749193 -48.60463071 106.59702349 C-54.62574261 106.60464312 -60.64684102 106.59756818 -66.66795349 106.59286499 C-76.77630093 106.58741457 -86.8845825 106.59458079 -96.99291992 106.60888672 C-108.66560121 106.62521623 -120.33812531 106.61991959 -132.01080281 106.6034075 C-142.04932801 106.58977761 -152.087806 106.58788021 -162.12633747 106.59572351 C-168.11471853 106.60039117 -174.10302579 106.60104972 -180.09140205 106.59111404 C-185.721355 106.58242465 -191.35110593 106.58850244 -196.98103714 106.60579681 C-199.04252856 106.60975091 -201.10403709 106.60864614 -203.16552162 106.60200882 C-205.98834641 106.59376068 -208.81053155 106.60415411 -211.63331604 106.61904907 C-212.84487211 106.60901082 -212.84487211 106.60901082 -214.08090407 106.59876978 C-222.70966549 106.68654978 -231.73651677 108.73651677 -238 115 C-238.99 114.67 -239.98 114.34 -241 114 C-241.4640625 113.01 -241.4640625 113.01 -241.9375 112 C-242.82027141 109.79394438 -242.82027141 109.79394438 -245.125 109.25 C-245.74375 109.1675 -246.3625 109.085 -247 109 C-245.71937515 107.2925002 -244.38232443 105.62626404 -243 104 C-242.34 104 -241.68 104 -241 104 C-240.67 103.01 -240.34 102.02 -240 101 C-242.05233685 98.7522025 -243.00667261 97.9977758 -246 97 C-247.1328125 95.2578125 -247.1328125 95.2578125 -248.125 93.125 C-248.62386719 92.07699219 -248.62386719 92.07699219 -249.1328125 91.0078125 C-252.4077664 83.42526159 -252.12960734 73.84930907 -249.19921875 66.14453125 C-246.81588712 61.88248218 -243.42598652 58.44226199 -240 55 C-239.38125 55.165 -238.7625 55.33 -238.125 55.5 C-236.03936614 56.07634644 -236.03936614 56.07634644 -234 56 C-232.515 56.495 -232.515 56.495 -231 57 C-232.32 59.97 -233.64 62.94 -235 66 C-234.34 66.33 -233.68 66.66 -233 67 C-233.495 67.804375 -233.99 68.60875 -234.5 69.4375 C-236.30313046 73.71993484 -236.67416888 77.40339403 -236 82 C-231.74814173 88.5646796 -231.74814173 88.5646796 -225 92 C-221.96908079 92.28656519 -218.95338094 92.27844187 -215.91069031 92.26742554 C-214.99326343 92.27195665 -214.07583655 92.27648776 -213.13060886 92.28115618 C-210.05536452 92.29382001 -206.98029683 92.29217852 -203.9050293 92.29052734 C-201.70054903 92.29651136 -199.49607086 92.30331661 -197.29159546 92.31088257 C-191.3018648 92.32856289 -185.31219128 92.33323882 -179.32243705 92.33451414 C-174.32245365 92.33641285 -169.32248357 92.34377009 -164.3225053 92.35085833 C-153.19951157 92.36621719 -142.07653896 92.37219556 -130.95353689 92.37084763 C-130.28639169 92.37076772 -129.61924649 92.3706878 -128.93188477 92.37060547 C-127.92994127 92.37048283 -127.92994127 92.37048283 -126.90775649 92.37035771 C-116.0852205 92.369545 -105.26282375 92.38867956 -94.44032802 92.4168822 C-83.32080306 92.44562959 -72.20133551 92.45905542 -61.08177119 92.45769465 C-54.84181634 92.45718469 -48.60201904 92.46288677 -42.36209679 92.48405075 C-36.49253854 92.50341474 -30.62328845 92.50356993 -24.75371933 92.48901749 C-22.60108172 92.48692601 -20.44842492 92.49165039 -18.29582024 92.5037384 C-15.35360519 92.51918859 -12.41245299 92.50988381 -9.47026062 92.49447632 C-8.62151058 92.50476344 -7.77276055 92.51505057 -6.89829081 92.52564943 C-1.21695178 92.46005308 3.29666826 91.30287059 8 88 C11.07156169 83.68061638 11.53106618 80.22215073 11 75 C10.1492296 71.93918235 9.13065164 68.96796055 8 66 C9.485 65.505 9.485 65.505 11 65 C11 64.01 11 63.02 11 62 C11.185625 61.360625 11.37125 60.72125 11.5625 60.0625 C12.09452205 57.55439606 12.05894133 56.34479866 11 54 C9.79114136 53.47321655 9.79114136 53.47321655 8.55786133 52.93579102 C5.21972952 50.40949083 5.12782027 48.67547594 4.51872253 44.66551208 C4.41328629 43.81554153 4.30785004 42.96557098 4.19921875 42.08984375 C4.07311722 41.20776749 3.94701569 40.32569122 3.8170929 39.41688538 C3.55406447 37.54799921 3.30173908 35.67758004 3.05932617 33.8059082 C2.69161291 30.96922857 2.29333021 28.1382614 1.88867188 25.30664062 C1.63619991 23.48462639 1.38549379 21.66236643 1.13671875 19.83984375 C0.96338264 18.58614235 0.96338264 18.58614235 0.7865448 17.30711365 C0.04306656 11.51283643 -0.12670065 5.83863093 0 0 Z " fill="#784107" transform="translate(372,292)"/>
<path d="M0 0 C87.12 0 174.24 0 264 0 C264 12 264 12 261 17 C258.6892264 18.1553868 257.37266112 18.12921161 254.80105877 18.13701439 C253.47253715 18.1446262 253.47253715 18.1446262 252.11717671 18.15239179 C251.13811213 18.15288955 250.15904754 18.15338731 249.15031433 18.15390015 C247.59720935 18.16047353 247.59720935 18.16047353 246.01272851 18.1671797 C242.52044679 18.18060445 239.02819032 18.18675477 235.53588867 18.19287109 C233.04127385 18.20076907 230.54666018 18.20903783 228.05204773 18.21765137 C220.54964616 18.24163694 213.04724874 18.25680329 205.54482195 18.26971143 C203.42651091 18.27342253 201.30820053 18.27739583 199.18989015 18.2814641 C186.04071183 18.30669841 172.8915325 18.32875555 159.74233532 18.34119225 C156.69598067 18.34412203 153.64962605 18.34708368 150.60327148 18.35009766 C149.46751109 18.35121673 149.46751109 18.35121673 148.30880604 18.35235842 C136.03877298 18.36501627 123.76888469 18.39824461 111.49891933 18.43989949 C98.9071027 18.48229731 86.31536025 18.50588473 73.72347242 18.51111281 C66.65131084 18.51452926 59.57937556 18.52631172 52.50728416 18.55921555 C45.85641601 18.59010857 39.20587133 18.59564502 32.55491829 18.58383179 C30.11075242 18.58361019 27.66656875 18.59198588 25.22246552 18.60948563 C21.89137451 18.63204236 18.56173307 18.62394386 15.2306366 18.60800171 C14.25826418 18.6218838 13.28589176 18.63576588 12.2840535 18.65006864 C8.1077569 18.60065471 5.56389631 18.30993137 1.86058521 16.27449989 C0 13 0 13 0 0 Z " fill="#D77227" transform="translate(128,453)"/>
<path d="M0 0 C0.84575592 -0.0066568 1.69151184 -0.0133136 2.56289673 -0.02017212 C4.34985178 -0.03028373 6.13684449 -0.0349896 7.92382812 -0.03466797 C10.64777353 -0.03903638 13.37009163 -0.07535689 16.09375 -0.11328125 C17.83332782 -0.11915083 19.5729133 -0.12311928 21.3125 -0.125 C22.52684219 -0.14655655 22.52684219 -0.14655655 23.76571655 -0.16854858 C29.08148917 -0.12592753 32.04791606 0.85263127 36.2890625 4.3359375 C40.51710965 9.00136884 40.40165706 13.16123576 40.16796875 19.2890625 C40.13255226 20.27939484 40.13255226 20.27939484 40.09642029 21.28973389 C40.0201344 23.3887065 39.93596097 25.48727699 39.8515625 27.5859375 C39.7983066 29.01300147 39.74556646 30.44008478 39.69335938 31.8671875 C39.56553125 35.35709825 39.42703265 38.8463541 39.2890625 42.3359375 C45.8890625 42.3359375 52.4890625 42.3359375 59.2890625 42.3359375 C59.2684375 40.7271875 59.2478125 39.1184375 59.2265625 37.4609375 C59.23308843 31.97263045 59.39842513 26.50425274 59.6640625 21.0234375 C59.7103479 19.89542725 59.7103479 19.89542725 59.75756836 18.74462891 C60.37350965 7.15571271 60.37350965 7.15571271 64.7890625 2.9609375 C69.19178381 0.09916865 72.66273652 0.1593349 77.8046875 0.1328125 C79.07756622 0.12426239 79.07756622 0.12426239 80.37615967 0.11553955 C82.17507682 0.10608352 83.97401134 0.09955318 85.77294922 0.09570312 C88.5143092 0.08602489 91.2549107 0.05501909 93.99609375 0.0234375 C95.74478722 0.0169046 97.49348605 0.01165526 99.2421875 0.0078125 C100.05802307 -0.0045343 100.87385864 -0.0168811 101.7144165 -0.02960205 C106.64337049 -0.01048813 110.02388303 0.59371569 114.2890625 3.3359375 C117.93157424 8.36061827 117.65114295 13.26624943 117.4765625 19.2109375 C117.46302734 20.09007813 117.44949219 20.96921875 117.43554688 21.875 C117.40042873 24.02891302 117.34662944 26.18250754 117.2890625 28.3359375 C116.9590625 28.3359375 116.6290625 28.3359375 116.2890625 28.3359375 C116.43085938 29.58890625 116.57265625 30.841875 116.71875 32.1328125 C116.86883119 33.78370557 117.01717834 35.43475692 117.1640625 37.0859375 C117.31101562 38.3234375 117.31101562 38.3234375 117.4609375 39.5859375 C117.65297693 41.96722646 117.73804018 43.98761376 117.2890625 46.3359375 C113.75902457 49.65477658 112.15451407 50.3359375 107.2890625 50.3359375 C108.76070612 52.4884581 108.76070612 52.4884581 111.2890625 54.3359375 C114.24834529 54.68492723 116.82359771 54.80377949 119.7734375 54.7265625 C120.58903137 54.72090271 121.40462524 54.71524292 122.24493408 54.70941162 C124.84358022 54.68706477 127.44083492 54.63687372 130.0390625 54.5859375 C131.80336547 54.56587021 133.5676901 54.54761984 135.33203125 54.53125 C139.65157578 54.4872058 143.97008343 54.41819172 148.2890625 54.3359375 C147.9590625 54.9959375 147.6290625 55.6559375 147.2890625 56.3359375 C141.98748673 58.10312942 136.27258906 57.60122385 130.72045898 57.63110352 C129.22980249 57.64261876 127.73918709 57.6630638 126.2487793 57.69262695 C124.08874655 57.73545911 121.9299368 57.75149278 119.76953125 57.76171875 C118.47942139 57.77630127 117.18931152 57.79088379 115.86010742 57.8059082 C111.65577326 57.25259288 109.54329882 56.01148284 106.2890625 53.3359375 C103.51275626 48.41672538 102.780995 43.83455865 102.6015625 38.2734375 C102.56812744 37.54261963 102.53469238 36.81180176 102.50024414 36.05883789 C102.21215923 29.15003805 102.21628216 22.25006936 102.2890625 15.3359375 C93.7090625 15.6659375 85.1290625 15.9959375 76.2890625 16.3359375 C76.19109375 18.57632813 76.093125 20.81671875 75.9921875 23.125 C75.88396883 25.30966443 75.76943438 27.49391322 75.65429688 29.67822266 C75.57803233 31.1889715 75.50827224 32.70006401 75.4453125 34.21142578 C75.35330907 36.39219455 75.2374696 38.57062966 75.1171875 40.75 C75.0543457 42.0592041 74.99150391 43.3684082 74.92675781 44.71728516 C74.02049067 49.85996954 72.04018829 52.92973604 67.98242188 56.18823242 C64.57004129 57.6423297 61.9017761 57.70812389 58.1953125 57.69921875 C57.19159607 57.69996651 57.19159607 57.69996651 56.16760254 57.70072937 C54.75900285 57.69839868 53.35039821 57.68872961 51.94189453 57.67211914 C49.79551643 57.64850849 47.65038149 57.65156758 45.50390625 57.65820312 C31.92184984 57.60305993 31.92184984 57.60305993 27.0390625 53.3984375 C23.81827504 49.60250943 24.15582826 45.76123547 24.19140625 41.04296875 C24.1928212 40.33694016 24.19423615 39.63091156 24.19569397 38.90348816 C24.20128486 36.65176124 24.21383562 34.40013429 24.2265625 32.1484375 C24.23157868 30.62044415 24.23614138 29.09244923 24.24023438 27.56445312 C24.2503998 23.82154522 24.26997681 20.07885307 24.2890625 16.3359375 C15.3790625 16.3359375 6.4690625 16.3359375 -2.7109375 16.3359375 C-3.0409375 19.9659375 -3.3709375 23.5959375 -3.7109375 27.3359375 C-3.94070862 29.29251399 -4.18369062 31.24768419 -4.45117188 33.19946289 C-4.58801392 34.20743423 -4.72485596 35.21540558 -4.86584473 36.25392151 C-5.0830719 37.82785927 -5.0830719 37.82785927 -5.3046875 39.43359375 C-5.45627319 40.54850693 -5.60785889 41.6634201 -5.76403809 42.81211853 C-6.24404562 46.34120865 -6.72718658 49.86985871 -7.2109375 53.3984375 C-7.69445367 56.93061733 -8.17721656 60.46289305 -8.65783691 63.99546814 C-8.95549287 66.18284983 -9.25478749 68.37000942 -9.55603027 70.55690002 C-10.31001859 76.09337054 -10.95501509 81.60396218 -11.35290527 87.17845154 C-11.74494433 89.54086112 -12.54187744 91.25856145 -13.7109375 93.3359375 C-14.1440625 92.8615625 -14.5771875 92.3871875 -15.0234375 91.8984375 C-16.73403363 90.09906793 -16.73403363 90.09906793 -19.7109375 89.3359375 C-20.3709375 88.3459375 -21.0309375 87.3559375 -21.7109375 86.3359375 C-21.7109375 88.6459375 -21.7109375 90.9559375 -21.7109375 93.3359375 C-22.7009375 93.3359375 -23.6909375 93.3359375 -24.7109375 93.3359375 C-24.3809375 88.0559375 -24.0509375 82.7759375 -23.7109375 77.3359375 C-24.0409375 78.9859375 -24.3709375 80.6359375 -24.7109375 82.3359375 C-25.0409375 82.3359375 -25.3709375 82.3359375 -25.7109375 82.3359375 C-25.7670463 80.89892874 -25.80463317 79.46120048 -25.8359375 78.0234375 C-25.85914063 77.22292969 -25.88234375 76.42242187 -25.90625 75.59765625 C-25.73845243 72.79543687 -25.35711483 70.28929326 -24.82421875 67.54296875 C-23.50570146 60.61491883 -22.77773213 53.6354846 -22.02246094 46.62969971 C-19.70485593 25.28217185 -19.70485593 25.28217185 -18.2109375 14.9609375 C-18.06990601 13.86845703 -18.06990601 13.86845703 -17.92602539 12.75390625 C-17.23227271 8.25246596 -15.93865154 5.55195692 -12.7109375 2.3359375 C-8.85601844 -0.3626242 -4.52025312 0.01236525 0 0 Z " fill="#794308" transform="translate(170.7109375,18.6640625)"/>
<path d="M0 0 C63.03 0 126.06 0 191 0 C190.34 1.98 189.68 3.96 189 6 C188.72392001 7.09301013 188.72392001 7.09301013 188.44226265 8.20810127 C186.85553569 14.33117041 184.35947702 19.41227499 179 23 C168.09312045 26.22114903 155.98876956 25.32990834 144.72928381 25.15180731 C140.12855837 25.09361563 135.52823194 25.12209117 130.92727661 25.13772583 C123.20443043 25.1503302 115.48439732 25.09424644 107.76220703 24.99658203 C98.84592745 24.88461859 89.93444939 24.87950053 81.01772964 24.93196189 C72.42181639 24.98023353 63.82764007 24.95482203 55.23184586 24.89535904 C51.58169851 24.87127052 47.932865 24.8724325 44.28271103 24.89410019 C39.98124117 24.91615483 35.68506222 24.8733835 31.38456726 24.78138733 C29.81101311 24.75789547 28.23695197 24.75621874 26.66337967 24.77846146 C21.86979232 24.83792619 17.55835464 24.67296877 13 23 C9.28898374 19.02525372 7.26303165 14.95142174 5 10 C4.0267184 8.42071878 3.03088088 6.85480051 2 5.3125 C0 2 0 2 0 0 Z " fill="#E07729" transform="translate(164,121)"/>
<path d="M0 0 C8.82132301 7.19586184 13.8734699 16.1022507 16.625 27.125 C16.86550903 30.66221619 16.86550903 30.66221619 16.85205078 34.43725586 C16.85234283 35.13078156 16.85263489 35.82430725 16.85293579 36.53884888 C16.85155474 38.80597941 16.83605222 41.07277142 16.8203125 43.33984375 C16.816578 44.92167481 16.81373309 46.5035082 16.81173706 48.08534241 C16.80413501 52.22981253 16.78451633 56.3741404 16.7623291 60.51855469 C16.74179647 64.75518876 16.73271954 68.99184603 16.72265625 73.22851562 C16.70126688 81.52741601 16.66611304 89.82617387 16.625 98.125 C12.005 98.125 7.385 98.125 2.625 98.125 C2.6156543 96.08715332 2.60630859 94.04930664 2.59667969 91.94970703 C2.56277209 85.18418176 2.50714754 78.41895709 2.44109726 71.65367317 C2.40174344 67.55555852 2.36949621 63.45765484 2.35400391 59.359375 C2.33875685 55.39741352 2.30417116 51.43603253 2.25669098 47.4743309 C2.24195949 45.96987862 2.23396376 44.46534341 2.23311615 42.96081924 C2.2205255 31.80883468 1.21436063 22.08941197 -6.66015625 13.59375 C-12.98184028 8.17927803 -20.12783609 6.75960558 -28.23828125 6.84765625 C-35.79472305 7.51578498 -42.39573376 11.46027632 -47.375 17.125 C-51.28223962 23.27682408 -52.48762736 28.65639888 -52.58032227 35.91308594 C-52.59517166 36.92345665 -52.59517166 36.92345665 -52.61032104 37.95423889 C-52.64181658 40.17258229 -52.66664597 42.39094707 -52.69140625 44.609375 C-52.71198611 46.15066066 -52.73298285 47.6919408 -52.75437927 49.23321533 C-52.8094934 53.28391038 -52.85894954 57.33465547 -52.90722656 61.38543701 C-52.95751956 65.52132606 -53.01316487 69.65714272 -53.06835938 73.79296875 C-53.17581054 81.90358621 -53.2767895 90.01426538 -53.375 98.125 C-57.995 98.125 -62.615 98.125 -67.375 98.125 C-67.46578413 88.94462963 -67.53899251 79.76456301 -67.58224869 70.58384323 C-67.60302152 66.31972166 -67.63114765 62.05592616 -67.67675781 57.79199219 C-67.72058736 53.6681732 -67.74421434 49.54466556 -67.75450897 45.42063141 C-67.76183443 43.85632687 -67.77613711 42.29203714 -67.79792023 40.72786713 C-67.97336764 27.59345864 -66.45620417 16.2346779 -57.375 6.125 C-56.58802734 5.20074219 -56.58802734 5.20074219 -55.78515625 4.2578125 C-41.25714562 -11.67172386 -16.87441728 -11.84393062 0 0 Z " fill="#DF772A" transform="translate(285.375,243.875)"/>
<path d="M0 0 C0.99 0.33 1.98 0.66 3 1 C4.125 4.4375 4.125 4.4375 5 8 C5.33 8.66 5.66 9.32 6 10 C5.29494578 11.85877932 4.58472173 13.71722595 3.7890625 15.5390625 C1.29804712 23.30807085 1.78959526 31.84387546 1.68359375 39.90625 C1.66298337 41.24003686 1.64198595 42.57381779 1.62062073 43.90759277 C1.56582116 47.39269157 1.51622894 50.87784511 1.46777344 54.36303711 C1.41724785 57.92957342 1.36172507 61.4960317 1.30664062 65.0625 C1.19957542 72.04160017 1.09848183 79.02077348 1 86 C-2.63 86 -6.26 86 -10 86 C-10.17705797 76.94240785 -10.3430069 67.88470016 -10.49477577 58.82664871 C-10.5655972 54.62063749 -10.64024388 50.41476669 -10.72363281 46.20898438 C-10.80396656 42.15019302 -10.87425182 38.09134063 -10.93757248 34.03224945 C-10.96349642 32.48364603 -10.99304096 30.93509885 -11.02626419 29.38663483 C-11.07218033 27.21775514 -11.10521962 25.0490325 -11.13525391 22.87988281 C-11.15746002 21.64522278 -11.17966614 20.41056274 -11.20254517 19.13848877 C-10.85402148 13.7380258 -7.95012688 10.42519032 -5 6 C-4.30570621 4.6808418 -3.62469505 3.35350594 -3 2 C-2.34 2.33 -1.68 2.66 -1 3 C-0.67 2.01 -0.34 1.02 0 0 Z " fill="#DE7426" transform="translate(229,254)"/>
<path d="M0 0 C63.03 0 126.06 0 191 0 C188.75 6.75 188.75 6.75 186 9 C186.66 7.02 187.32 5.04 188 3 C127.61 2.67 67.22 2.34 5 2 C5.99 5.63 6.98 9.26 8 13 C5.61318325 10.61318325 4.05776184 8.7414492 2.3125 5.9375 C1.87550781 5.24527344 1.43851563 4.55304688 0.98828125 3.83984375 C0 2 0 2 0 0 Z " fill="#DA8440" transform="translate(164,121)"/>
<path d="M0 0 C1.1978009 -0.00074776 1.1978009 -0.00074776 2.4197998 -0.00151062 C4.10069276 0.00081996 5.78158986 0.01048824 7.46240234 0.02709961 C10.02343216 0.05070918 12.58342002 0.04765063 15.14453125 0.04101562 C16.78386032 0.04659287 18.42318504 0.05370304 20.0625 0.0625 C20.82203979 0.06158859 21.58157959 0.06067719 22.36413574 0.05973816 C26.78324791 0.1181654 30.46372003 0.60004538 34.53125 2.36328125 C37.54143628 5.97550478 37.85360852 8.74280914 37.53125 13.36328125 C36.54125 13.36328125 35.55125 13.36328125 34.53125 13.36328125 C34.53125 12.37328125 34.53125 11.38328125 34.53125 10.36328125 C33.891875 10.09515625 33.2525 9.82703125 32.59375 9.55078125 C30.53125 8.36328125 30.53125 8.36328125 29.53125 5.36328125 C28.54125 5.03328125 27.55125 4.70328125 26.53125 4.36328125 C26.53125 6.01328125 26.53125 7.66328125 26.53125 9.36328125 C25.87125 9.36328125 25.21125 9.36328125 24.53125 9.36328125 C24.53125 7.71328125 24.53125 6.06328125 24.53125 4.36328125 C19.74406308 4.33856387 14.9569133 4.320413 10.16967773 4.30834961 C8.54109042 4.3033206 6.91250763 4.2964966 5.28393555 4.2878418 C2.94318528 4.27571356 0.6024947 4.27003862 -1.73828125 4.265625 C-2.46650589 4.26046371 -3.19473053 4.25530243 -3.94502258 4.24998474 C-7.06477288 4.24963846 -9.48508188 4.36872521 -12.46875 5.36328125 C-13.56041275 7.29658728 -13.56041275 7.29658728 -14.46875 9.36328125 C-15.12875 10.02328125 -15.78875 10.68328125 -16.46875 11.36328125 C-16.84221668 14.56866528 -16.84221668 14.56866528 -16.8828125 18.33984375 C-16.90217865 19.02509125 -16.9215448 19.71033875 -16.9414978 20.41635132 C-17.00131831 22.60686769 -17.04768756 24.79743655 -17.09375 26.98828125 C-17.13192763 28.47267927 -17.17097924 29.95705509 -17.2109375 31.44140625 C-17.30702084 35.0818281 -17.39104282 38.72241561 -17.46875 42.36328125 C-17.79875 42.36328125 -18.12875 42.36328125 -18.46875 42.36328125 C-18.49343447 37.55778378 -18.51160255 32.75232307 -18.52368164 27.94677734 C-18.52871621 26.31135414 -18.53554427 24.67593545 -18.54418945 23.04052734 C-18.55629335 20.6923715 -18.561987 18.34427506 -18.56640625 15.99609375 C-18.57156754 15.26270782 -18.57672882 14.5293219 -18.58204651 13.77371216 C-18.58262171 8.59102466 -18.58262171 8.59102466 -17.46875 6.36328125 C-16.80875 6.36328125 -16.14875 6.36328125 -15.46875 6.36328125 C-15.13875 5.37328125 -14.80875 4.38328125 -14.46875 3.36328125 C-9.75811567 0.26750104 -5.48251918 -0.06647791 0 0 Z " fill="#8B540D" transform="translate(327.46875,18.63671875)"/>
<path d="M0 0 C1 3 1 3 0.08242798 5.74905396 C-1.11535041 9.3464415 -1.27725229 12.22995822 -1.31884766 16.01513672 C-1.32889328 16.68900925 -1.3389389 17.36288177 -1.34928894 18.05717468 C-1.37995844 20.26467098 -1.39711023 22.47204693 -1.4140625 24.6796875 C-1.43278727 26.21811955 -1.45236165 27.75654147 -1.4727478 29.29495239 C-1.5239369 33.32916272 -1.56363304 37.36340629 -1.60089111 41.39776611 C-1.641014 45.5204685 -1.69206842 49.64303416 -1.7421875 53.765625 C-1.83879016 61.8436632 -1.92223341 69.92175848 -2 78 C-6.62 78 -11.24 78 -16 78 C-16 56.22 -16 34.44 -16 12 C-15.67 12 -15.34 12 -15 12 C-14.67 32.79 -14.34 53.58 -14 75 C-10.7 75.33 -7.4 75.66 -4 76 C-4.00444122 75.27496277 -4.00888245 74.54992554 -4.01345825 73.80291748 C-4.05378407 66.91952188 -4.08410971 60.03614428 -4.10362434 53.15266037 C-4.11399477 49.61506804 -4.12802821 46.07757454 -4.15087891 42.54003906 C-4.17707101 38.45897556 -4.1865284 34.37801341 -4.1953125 30.296875 C-4.20563507 29.04638367 -4.21595764 27.79589233 -4.22659302 26.50750732 C-4.22897647 7.56857654 -4.22897647 7.56857654 0 0 Z " fill="#E2863F" transform="translate(234,264)"/>
<path d="M0 0 C4.4297642 0.79102932 5.89210172 1.98974785 8.5 5.625 C9.125 8.625 9.125 8.625 8.5 11.625 C5.89210172 15.26025215 4.4297642 16.45897068 0 17.25 C-4.4297642 16.45897068 -5.89210172 15.26025215 -8.5 11.625 C-9.125 8.625 -9.125 8.625 -8.5 5.625 C-5.89210172 1.98974785 -4.4297642 0.79102932 0 0 Z " fill="#753B07" transform="translate(314.5,184.375)"/>
<path d="M0 0 C3 2 3 2 5 5 C5.32035831 7.88884515 4.96503736 10.26474073 4 13 C1.64720111 15.89575248 0.22449551 15.97594691 -3.5 16.375 C-8.71149144 15.81662592 -8.71149144 15.81662592 -11 13 C-11.96503736 10.26474073 -12.32035831 7.88884515 -12 5 C-8.71914333 0.078715 -5.79090106 -1.03408947 0 0 Z " fill="#763E09" transform="translate(263,185)"/>
<path d="M0 0 C2.875 1.5 2.875 1.5 5 4 C5.94237143 7.99893269 5.61136591 10.98105682 3.5 14.5 C-0.03588973 16.62153384 -2.97901723 16.791013 -7 16 C-9.5 14.5 -9.5 14.5 -11 12 C-11.60443392 9.19082139 -11.66040854 6.80242927 -11 4 C-7.72794548 0.1505241 -4.96702569 -0.82783761 0 0 Z " fill="#784109" transform="translate(208,185)"/>
<path d="M0 0 C3.8425303 0.72047443 5.45767292 1.57152696 8 4.5625 C8.94237143 8.56143269 8.61136591 11.54355682 6.5 15.0625 C2.98105682 17.17386591 -0.00106731 17.50487143 -4 16.5625 C-6.99097304 14.02017292 -7.84202557 12.4050303 -8.5625 8.5625 C-7.62098494 3.54108633 -5.02141367 0.94151506 0 0 Z " fill="#784007" transform="translate(183,291.4375)"/>
<path d="M0 0 C2.4375 1.5625 2.4375 1.5625 4 4 C4.56783945 7.97487617 4.62340519 10.06489221 2.375 13.4375 C-0.75683492 15.49791771 -2.31544773 15.6767545 -6 15 C-9.36344489 12.51397551 -10.80057749 11.08574477 -11.5625 6.9375 C-11 4 -11 4 -9.4375 1.625 C-6.06489221 -0.62340519 -3.97487617 -0.56783945 0 0 Z " fill="#763903" transform="translate(192,240)"/>
<path d="M0 0 C0.33 0 0.66 0 1 0 C2.12520495 11.01093413 2.09920291 21.94438708 2 33 C-1.79160297 33.05786668 -5.58309311 33.09355054 -9.375 33.125 C-10.45523437 33.14175781 -11.53546875 33.15851563 -12.6484375 33.17578125 C-13.6796875 33.18222656 -14.7109375 33.18867187 -15.7734375 33.1953125 C-17.20308838 33.21102295 -17.20308838 33.21102295 -18.66162109 33.22705078 C-21 33 -21 33 -23 31 C-24.19986725 23.68080976 -24.10295003 16.40096336 -24 9 C-23.67 9 -23.34 9 -23 9 C-22.6616656 11.37438249 -22.32920998 13.74934959 -22 16.125 C-21.90460938 16.79015625 -21.80921875 17.4553125 -21.7109375 18.140625 C-21.15534819 22.18849 -21 25.87520387 -21 30 C-14.07 30 -7.14 30 0 30 C0 20.1 0 10.2 0 0 Z " fill="#6C3904" transform="translate(310,31)"/>
<path d="M0 0 C17.16 0 34.32 0 52 0 C52 0.66 52 1.32 52 2 C36.49 2 20.98 2 5 2 C5.99 5.63 6.98 9.26 8 13 C5.61318325 10.61318325 4.05776184 8.7414492 2.3125 5.9375 C1.87550781 5.24527344 1.43851563 4.55304688 0.98828125 3.83984375 C0 2 0 2 0 0 Z " fill="#CE7A36" transform="translate(164,121)"/>
<path d="M0 0 C5.44430582 -0.07437576 10.88831329 -0.12870866 16.33300781 -0.16479492 C18.18364619 -0.17984471 20.03424911 -0.20028933 21.88476562 -0.22631836 C24.55087045 -0.2628698 27.21650208 -0.27976454 29.8828125 -0.29296875 C30.70492218 -0.30845261 31.52703186 -0.32393646 32.37405396 -0.33988953 C37.28074903 -0.34131429 40.83377205 0.10567533 45 3 C45.875 5.1875 45.875 5.1875 46 7 C44.89269531 6.67902344 43.78539062 6.35804687 42.64453125 6.02734375 C35.56854808 4.46306237 28.37323076 4.59101215 21.15991211 4.57446289 C18.67530181 4.56244098 16.1930817 4.51303735 13.70898438 4.46289062 C12.12240783 4.45343785 10.53581622 4.44619734 8.94921875 4.44140625 C8.21064133 4.42187393 7.4720639 4.40234161 6.71110535 4.38221741 C4.34960912 4.34890143 4.34960912 4.34890143 1 5 C-1.38935619 7.41166536 -1.38935619 7.41166536 -3 10 C-3.66 10 -4.32 10 -5 10 C-4.67 8.68 -4.34 7.36 -4 6 C-3.34 6 -2.68 6 -2 6 C-1.67 5.01 -1.34 4.02 -1 3 C11.87 2.67 24.74 2.34 38 2 C25.46 1.67 12.92 1.34 0 1 C0 0.67 0 0.34 0 0 Z " fill="#945E14" transform="translate(240,19)"/>
<path d="M0 0 C3.18531195 0.82818111 5.37057119 2.05272604 8.125 3.8125 C8.785 3.8125 9.445 3.8125 10.125 3.8125 C10.17937607 5.39544782 10.21796271 6.97894256 10.25 8.5625 C10.27320313 9.44421875 10.29640625 10.3259375 10.3203125 11.234375 C10.1096479 14.01514768 9.6860315 15.51307582 8.125 17.8125 C4.84021233 20.16188456 1.25787673 21.58592465 -2.6875 22.375 C-4.875 21.8125 -4.875 21.8125 -6.5 19.6875 C-6.95375 18.73875 -7.4075 17.79 -7.875 16.8125 C-8.4525 15.801875 -9.03 14.79125 -9.625 13.75 C-10.875 10.8125 -10.875 10.8125 -10.5625 8.4375 C-10.335625 7.90125 -10.10875 7.365 -9.875 6.8125 C-9.215 6.8125 -8.555 6.8125 -7.875 6.8125 C-7.606875 6.02875 -7.33875 5.245 -7.0625 4.4375 C-5.41551244 0.79679065 -4.02401362 -0.26243567 0 0 Z M-7.875 6.8125 C-8.81737143 10.81143269 -8.48636591 13.79355682 -6.375 17.3125 C-2.83911027 19.43403384 0.10401723 19.603513 4.125 18.8125 C6.79166667 17.47916667 6.79166667 17.47916667 8.125 14.8125 C8.72943392 12.00332139 8.78540854 9.61492927 8.125 6.8125 C5.57505852 3.81256885 3.99617244 2.95769541 0.125 2.3125 C-3.74617244 2.95769541 -5.32505852 3.81256885 -7.875 6.8125 Z " fill="#DA823E" transform="translate(204.875,182.1875)"/>
<path d="M0 0 C1.76462683 3.08809695 2 4.23312136 2 8 C-14.17 8 -30.34 8 -47 8 C-44 5 -44 5 -42.00679016 4.63923645 C-40.87094734 4.6492292 -40.87094734 4.6492292 -39.7121582 4.65942383 C-38.85149246 4.65965042 -37.99082672 4.65987701 -37.1040802 4.66011047 C-35.71644722 4.68333626 -35.71644722 4.68333626 -34.30078125 4.70703125 C-32.87550362 4.71339851 -32.87550362 4.71339851 -31.4214325 4.71989441 C-28.38483412 4.73669516 -25.34889798 4.77435008 -22.3125 4.8125 C-20.25456687 4.82754503 -18.19662335 4.84123375 -16.13867188 4.85351562 C-11.09219252 4.88660329 -6.04620856 4.93839538 -1 5 C-0.67 3.35 -0.34 1.7 0 0 Z " fill="#D07B32" transform="translate(363,334)"/>
<path d="M0 0 C0.33 0 0.66 0 1 0 C1.67828746 4.23522692 2.35153675 8.47121997 3.02114868 12.70782471 C3.37379745 14.92992252 3.73118734 17.15122646 4.08862305 19.37255859 C5.18362957 26.24877156 6.16892675 33.07919475 6.66113281 40.02978516 C7.01573146 46.13832108 7.01573146 46.13832108 9.89453125 51.33984375 C11.88370405 52.87614008 13.69396368 54.01859385 16 55 C11.91510202 55 8.97862636 53.72474556 6 51 C4.68517949 48.08058772 4.36014249 45.15631362 4.00390625 41.9921875 C3.88063461 41.11152618 3.75736298 40.23086487 3.63035583 39.32351685 C3.24481215 36.51039588 2.90400094 33.69376855 2.5625 30.875 C2.30807921 29.0022298 2.05094481 27.12982612 1.79101562 25.2578125 C0.65282063 16.7767936 -0.17435971 8.57037954 0 0 Z " fill="#A15D10" transform="translate(372,292)"/>
<path d="M0 0 C0.33 0 0.66 0 1 0 C5.43179932 17.25447202 6.42684277 34.27406425 7 52 C6.67 52 6.34 52 6 52 C5.29939589 47.00621741 4.60599883 42.01150052 3.91870117 37.01586914 C3.6849077 35.32355056 3.44929046 33.63148273 3.21166992 31.93969727 C1.71833786 21.29694381 0.53179604 10.73783989 0 0 Z " fill="#713B04" transform="translate(366,257)"/>
<path d="M0 0 C0.33 0 0.66 0 1 0 C1.02685412 2.31243792 1.04632841 4.6249627 1.0625 6.9375 C1.07410156 8.22527344 1.08570313 9.51304687 1.09765625 10.83984375 C1 14 1 14 0 15 C-0.20931897 17.16296273 -0.36797069 19.3309471 -0.5 21.5 C-0.88888889 27.88888889 -0.88888889 27.88888889 -2 29 C-2.21063107 31.50416935 -2.37572077 33.99140081 -2.5 36.5 C-2.86486486 43.86486486 -2.86486486 43.86486486 -4 45 C-4.39569108 47.01311449 -4.74252191 49.03597208 -5.0625 51.0625 C-5.23910156 52.16722656 -5.41570312 53.27195312 -5.59765625 54.41015625 C-5.73042969 55.26480469 -5.86320313 56.11945313 -6 57 C-6.33 57 -6.66 57 -7 57 C-7.10709433 51.24061399 -6.73035466 45.74518889 -5.9765625 40.0390625 C-5.81720718 38.79314835 -5.81720718 38.79314835 -5.65463257 37.52206421 C-5.43006282 35.775463 -5.20302617 34.02917736 -4.97363281 32.28320312 C-4.62698248 29.64011568 -4.28945489 26.99598082 -3.953125 24.3515625 C-2.89968479 16.16785521 -1.78618788 8.06288547 0 0 Z " fill="#D8813C" transform="translate(174,203)"/>
<path d="M0 0 C2.875 1.5 2.875 1.5 5 4 C5.42242213 6.80188855 5.23816991 9.1419611 5 12 C4.01 12.495 4.01 12.495 3 13 C1.68 11.35 0.36 9.7 -1 8 C-0.01 7.67 0.98 7.34 2 7 C1.67 6.01 1.34 5.02 1 4 C-0.093125 4.185625 -1.18625 4.37125 -2.3125 4.5625 C-6 5 -6 5 -9 4 C-9.33 6.31 -9.66 8.62 -10 11 C-10.33 11 -10.66 11 -11 11 C-11.3125 7.75 -11.3125 7.75 -11 4 C-7.6828559 0.19504059 -4.97314546 -0.82885758 0 0 Z " fill="#733505" transform="translate(208,185)"/>
<path d="M0 0 C8.58 0 17.16 0 26 0 C26 4.62 26 9.24 26 14 C25.34 13.67 24.68 13.34 24 13 C24 9.37 24 5.74 24 2 C16.41 2 8.82 2 1 2 C0.67 3.32 0.34 4.64 0 6 C0 4.02 0 2.04 0 0 Z " fill="#CF7C36" transform="translate(247,34)"/>
<path d="M0 0 C0.33 0 0.66 0 1 0 C0.99097656 0.84820312 0.98195312 1.69640625 0.97265625 2.5703125 C1.31860258 16.25775434 7.57276937 26.32662695 15.06640625 37.3828125 C16.96140652 40.20204098 18.48673194 42.60580796 19 46 C16.78428314 43.9090156 15.08890157 41.79370158 13.44140625 39.234375 C12.97283203 38.50863281 12.50425781 37.78289062 12.02148438 37.03515625 C11.54001953 36.28105469 11.05855469 35.52695313 10.5625 34.75 C10.08490234 34.01136719 9.60730469 33.27273437 9.11523438 32.51171875 C1.92798319 21.33155024 -1.83590906 13.49641254 0 0 Z " fill="#AC6216" transform="translate(144,101)"/>
<path d="M0 0 C0.33 0 0.66 0 1 0 C1.33166955 8.05910937 0.31006581 15.68493899 -1 23.625 C-1.19078125 24.81996094 -1.3815625 26.01492188 -1.578125 27.24609375 C-2.04518959 30.16524742 -2.51927865 33.08306978 -3 36 C-3.33 36 -3.66 36 -4 36 C-4.37619583 23.79453529 -3.60412014 11.72096214 0 0 Z " fill="#743A04" transform="translate(154,248)"/>
<path d="M0 0 C2.3125 0.1875 2.3125 0.1875 5 1 C7.99179956 4.61079257 8.32120156 7.39611104 8 12 C7.01 12 6.02 12 5 12 C5 11.01 5 10.02 5 9 C4.360625 8.731875 3.72125 8.46375 3.0625 8.1875 C1 7 1 7 0 4 C-0.99 3.67 -1.98 3.34 -3 3 C-3 4.65 -3 6.3 -3 8 C-3.66 8 -4.32 8 -5 8 C-5 6.35 -5 4.7 -5 3 C-7.97 3 -10.94 3 -14 3 C-14 2.67 -14 2.34 -14 2 C-8.72 2 -3.44 2 2 2 C1.34 1.34 0.68 0.68 0 0 Z " fill="#7B470F" transform="translate(357,20)"/>
<path d="M0 0 C2.31048941 3.46573411 2.91980121 6.60604282 3.625 10.625 C3.82283081 11.73669556 3.82283081 11.73669556 4.0246582 12.87084961 C5.33440815 20.91814972 5.27461051 28.87356313 5 37 C4.67 37 4.34 37 4 37 C3.88406494 36.15816162 3.76812988 35.31632324 3.64868164 34.44897461 C3.21457619 31.29742545 2.78031342 28.14589801 2.34594727 24.99438477 C2.15871064 23.63566937 1.971535 22.27694557 1.78442383 20.91821289 C1.51399888 18.95456722 1.24332951 16.99095521 0.97265625 15.02734375 C0.72914429 13.25991821 0.72914429 13.25991821 0.48071289 11.45678711 C0.14021848 9.00830546 -0.23087936 6.56399008 -0.62329102 4.12329102 C-0.74760498 3.09260498 -0.87191895 2.06191895 -1 1 C-0.67 0.67 -0.34 0.34 0 0 Z " fill="#6E3C03" transform="translate(366,48)"/>
<path d="M0 0 C0.33 0 0.66 0 1 0 C1.3383344 2.37438249 1.67079002 4.74934959 2 7.125 C2.14308594 8.12273438 2.14308594 8.12273438 2.2890625 9.140625 C2.83611453 13.12628981 3.10022182 16.97859938 3 21 C3.92941406 20.98839844 4.85882813 20.97679688 5.81640625 20.96484375 C18.09490334 20.87521968 18.09490334 20.87521968 24 22 C24 22.33 24 22.66 24 23 C20.35418313 23.02887512 16.70839537 23.04675585 13.0625 23.0625 C11.50112305 23.07506836 11.50112305 23.07506836 9.90820312 23.08789062 C8.91884766 23.09111328 7.92949219 23.09433594 6.91015625 23.09765625 C5.53549194 23.10551147 5.53549194 23.10551147 4.13305664 23.11352539 C2 23 2 23 1 22 C-0.10153363 14.6564425 -0.1031366 7.41437534 0 0 Z " fill="#5D2A00" transform="translate(286,40)"/>
<path d="M0 0 C0 0.99 0 1.98 0 3 C-1.63064764 4.05771739 -3.30280873 5.05273046 -5 6 C-6.75149165 7.58245275 -6.75149165 7.58245275 -8 9 C-7.34 9 -6.68 9 -6 9 C-6.33 10.65 -6.66 12.3 -7 14 C-7.66 13.67 -8.32 13.34 -9 13 C-8.51515724 17.64586892 -8.51515724 17.64586892 -7 22 C-6.01 22.66 -5.02 23.32 -4 24 C-3.34 24.99 -2.68 25.98 -2 27 C-5.12981912 26.66466224 -6.00061159 25.99933599 -8.1875 23.625 C-11.1923986 19.27307788 -11.54785318 15.16547282 -11 10 C-9.43020534 5.84004416 -7.88276091 3.23552901 -4 1 C-1.75 0.3125 -1.75 0.3125 0 0 Z " fill="#DB8137" transform="translate(147,356)"/>
<path d="M0 0 C0.33 0 0.66 0 1 0 C1.325169 10.83896679 0.88644579 18.30133164 -6 27 C-5.01 27.33 -4.02 27.66 -3 28 C-3.33 28.99 -3.66 29.98 -4 31 C-5.65 29.68 -7.3 28.36 -9 27 C-7.80100302 23.9168649 -6.52299523 20.93720508 -5 18 C-4.34 18 -3.68 18 -3 18 C-1.33318124 11.99945246 -0.48320848 6.2054142 0 0 Z " fill="#693805" transform="translate(396,366)"/>
<path d="M0 0 C1.65150996 2.96062331 2.38833021 5.49292849 2.8515625 8.84375 C2.98046875 9.76027344 3.109375 10.67679688 3.2421875 11.62109375 C3.36851562 12.57113281 3.49484375 13.52117187 3.625 14.5 C3.7590625 15.45003906 3.893125 16.40007812 4.03125 17.37890625 C4.57385561 21.31556533 5 25.01559098 5 29 C2.69 28.67 0.38 28.34 -2 28 C-1.01 27.01 -0.02 26.02 1 25 C1.66 25.33 2.32 25.66 3 26 C3 24.68 3 23.36 3 22 C1.02 22 -0.96 22 -3 22 C-3 21.34 -3 20.68 -3 20 C-1.35 20 0.3 20 2 20 C1.855625 19.14277344 1.71125 18.28554687 1.5625 17.40234375 C0.61141112 11.54390042 -0.2761941 5.93817322 0 0 Z " fill="#DB7E37" transform="translate(356,76)"/>
<path d="M0 0 C1.80411967 2.75924185 2.0127245 3.88972103 1.625 7.25 C1.41875 8.1575 1.2125 9.065 1 10 C0.34 10 -0.32 10 -1 10 C-1.226875 10.598125 -1.45375 11.19625 -1.6875 11.8125 C-3.42415547 14.70692579 -4.95279413 15.54122849 -8 17 C-11.50512695 17.34057617 -11.50512695 17.34057617 -15.48828125 17.29296875 C-16.5430793 17.28660149 -16.5430793 17.28660149 -17.6191864 17.28010559 C-19.85069131 17.2634006 -22.08127113 17.22576614 -24.3125 17.1875 C-25.8313671 17.17244248 -27.35024846 17.15875594 -28.86914062 17.14648438 C-32.57972434 17.11352473 -36.28977178 17.06180016 -40 17 C-40 16.67 -40 16.34 -40 16 C-38.6385083 15.98598145 -38.6385083 15.98598145 -37.24951172 15.97167969 C-33.86073186 15.92749516 -30.47318774 15.86580889 -27.08496094 15.79248047 C-25.62251295 15.7643689 -24.1599158 15.74310569 -22.69726562 15.72900391 C-20.58646831 15.70743581 -18.47744571 15.66072344 -16.3671875 15.609375 C-15.09987793 15.58842773 -13.83256836 15.56748047 -12.52685547 15.54589844 C-8.42579231 14.91112222 -6.22940702 13.55633821 -3 11 C-0.60801935 7.69678862 -0.4596539 3.98366713 0 0 Z " fill="#E38842" transform="translate(245,60)"/>
<path d="M0 0 C1.32 0.99 2.64 1.98 4 3 C4.66 2.67 5.32 2.34 6 2 C7 5 7 5 6 8 C7.02164835 9.68077632 8.04380309 11.36125058 9.0703125 13.0390625 C11.42715424 18.01021608 10.0405775 23.79711251 9 29 C8.67 29 8.34 29 8 29 C7.98582031 28.27296875 7.97164062 27.5459375 7.95703125 26.796875 C7.56919445 18.62085595 5.4330069 12.36866589 2 5 C1.32273136 3.33761334 0.65251449 1.67225807 0 0 Z " fill="#6C3804" transform="translate(158,136)"/>
<path d="M0 0 C0.66 1.32 1.32 2.64 2 4 C1.34 4 0.68 4 0 4 C0.33 11.26 0.66 18.52 1 26 C-2.28515921 22.71484079 -2.93552774 19.13213294 -3.1953125 14.5703125 C-3.17210938 13.43335938 -3.14890625 12.29640625 -3.125 11.125 C-3.10695313 9.97257812 -3.08890625 8.82015625 -3.0703125 7.6328125 C-3.04710938 6.76398438 -3.02390625 5.89515625 -3 5 C-2.34 5 -1.68 5 -1 5 C-0.67 3.35 -0.34 1.7 0 0 Z " fill="#86460B" transform="translate(124,360)"/>
<path d="M0 0 C0.33 0 0.66 0 1 0 C1.05425013 2.87525669 1.09379277 5.74947646 1.125 8.625 C1.14175781 9.43324219 1.15851563 10.24148437 1.17578125 11.07421875 C1.2146073 15.84982339 0.7062726 19.48339605 -1 24 C-1.4172409 26.11711125 -1.79332571 28.24280813 -2.125 30.375 C-2.29257813 31.43460938 -2.46015625 32.49421875 -2.6328125 33.5859375 C-2.75398437 34.38257813 -2.87515625 35.17921875 -3 36 C-3.33 36 -3.66 36 -4 36 C-3.54746016 23.81263394 -2.0963728 12.01129323 0 0 Z " fill="#8E530B" transform="translate(154,26)"/>
<path d="M0 0 C4.32243729 0.59014827 7.39046463 2.15674215 11.125 4.375 C12.15882813 4.98085937 13.19265625 5.58671875 14.2578125 6.2109375 C16.5162754 7.6844076 18.31109626 8.91507745 20 11 C20 11.66 20 12.32 20 13 C15.82237795 12.53581977 13.82317039 12.09204376 11 9 C10.01 9 9.02 9 8 9 C8 7.68 8 6.36 8 5 C5.36 3.68 2.72 2.36 0 1 C0 0.67 0 0.34 0 0 Z " fill="#6F3809" transform="translate(277,225)"/>
<path d="M0 0 C1.27875 0.165 2.5575 0.33 3.875 0.5 C8.26183847 1.00751063 12.52505647 1.01232173 16.93359375 0.83984375 C19 1 19 1 21 3 C19.95199219 3.06058594 18.90398437 3.12117187 17.82421875 3.18359375 C16.44529952 3.26801738 15.06639395 3.35266447 13.6875 3.4375 C12.65206055 3.49647461 12.65206055 3.49647461 11.59570312 3.55664062 C8.52838465 3.74927415 5.93031848 4.02322717 3 5 C0.94106379 5.22325814 -1.12233653 5.40705759 -3.1875 5.5625 C-4.81751953 5.68818359 -4.81751953 5.68818359 -6.48046875 5.81640625 C-7.72763672 5.90728516 -7.72763672 5.90728516 -9 6 C-5.81237635 3.87491756 -3.73487777 3.4979837 0 3 C0 2.01 0 1.02 0 0 Z " fill="#794611" transform="translate(247,232)"/>
<path d="M0 0 C0 1.65 0 3.3 0 5 C0.66 5.33 1.32 5.66 2 6 C1.34 7.98 0.68 9.96 0 12 C-1.921875 11.3203125 -1.921875 11.3203125 -4 10 C-4.828125 7.6171875 -4.828125 7.6171875 -5.25 4.875 C-5.39953125 3.96492187 -5.5490625 3.05484375 -5.703125 2.1171875 C-5.80109375 1.41851562 -5.8990625 0.71984375 -6 0 C-3 -1 -3 -1 0 0 Z " fill="#7A4505" transform="translate(313,188)"/>
<path d="M0 0 C4.75 0.75 4.75 0.75 7 3 C7.67386609 9.96328294 7.67386609 9.96328294 5.375 13.5 C2.39901677 15.37956836 0.45669582 15.31424507 -3 15 C-3 14.67 -3 14.34 -3 14 C-1.35 14 0.3 14 2 14 C2.75479539 9.72282611 3.3174498 6.19188572 2 2 C1.34 1.34 0.68 0.68 0 0 Z " fill="#6F3507" transform="translate(184,293)"/>
<path d="M0 0 C4.10299327 4.28138428 4.01426988 9.45795107 3.98266602 15.08789062 C3.87607928 18.56086267 3.72840381 22.02936855 3.5625 25.5 C3.51029297 26.70398438 3.45808594 27.90796875 3.40429688 29.1484375 C3.27549039 32.09927694 3.14056631 35.04970131 3 38 C2.67 38 2.34 38 2 38 C1.67 27.77 1.34 17.54 1 7 C0.34 6.67 -0.32 6.34 -1 6 C-0.67 4.02 -0.34 2.04 0 0 Z " fill="#723A08" transform="translate(284,265)"/>
<path d="M0 0 C6.50917032 0.27121543 10.21710814 2.66323472 15 7 C17.5 9.875 17.5 9.875 19 12 C18.67 12.66 18.34 13.32 18 14 C16.68 13.34 15.36 12.68 14 12 C14 11.01 14 10.02 14 9 C11.525 8.01 11.525 8.01 9 7 C9 6.34 9 5.68 9 5 C8.34 5 7.68 5 7 5 C6.67 4.34 6.34 3.68 6 3 C4.66923011 2.65657551 3.33568021 2.32380126 2 2 C1.34 1.34 0.68 0.68 0 0 Z " fill="#6D3506" transform="translate(265,251)"/>
<path d="M0 0 C0.33 0 0.66 0 1 0 C3.17237055 11.68161523 4.56405494 23.12425531 5 35 C4.67 35 4.34 35 4 35 C2.68157485 28.98388522 1.71575585 23.07754076 1.24609375 16.93359375 C1.19995598 14.99589825 1.19995598 14.99589825 0 14 C-0.07271741 11.64686445 -0.08370868 9.29166332 -0.0625 6.9375 C-0.05347656 5.64714844 -0.04445313 4.35679687 -0.03515625 3.02734375 C-0.02355469 2.02832031 -0.01195312 1.02929688 0 0 Z " fill="#DA823D" transform="translate(347,219)"/>
<path d="M0 0 C0.33 0.99 0.66 1.98 1 3 C0.04504326 4.69287785 -0.9590934 6.35857037 -2 8 C-2.69579454 10.19130534 -2.69579454 10.19130534 -3 12 C-2.34 12 -1.68 12 -1 12 C-1 17.94 -1 23.88 -1 30 C-1.33 30 -1.66 30 -2 30 C-5.49394813 8.06923631 -5.49394813 8.06923631 0 0 Z " fill="#6B3602" transform="translate(356,144)"/>
<path d="M0 0 C0.33 0 0.66 0 1 0 C0.47947582 9.78037544 -0.46388259 19.32096895 -2 29 C-2.33 29 -2.66 29 -3 29 C-2.67 20.09 -2.34 11.18 -2 2 C-1.34 2 -0.68 2 0 2 C0 1.34 0 0.68 0 0 Z " fill="#673005" transform="translate(172,206)"/>
<path d="M0 0 C0.33 0 0.66 0 1 0 C2.69843394 6.79373575 0.92258516 12.38500359 -1 19 C-1.66 19 -2.32 19 -3 19 C-3.23042169 5.81475904 -3.23042169 5.81475904 0 0 Z " fill="#713B0A" transform="translate(147,313)"/>
<path d="M0 0 C0.33 0 0.66 0 1 0 C1.16356156 6.69920873 0.57602131 12.9561169 -0.5 19.5625 C-0.64308594 20.47580078 -0.78617188 21.38910156 -0.93359375 22.33007812 C-1.28296798 24.55442736 -1.63851822 26.7775921 -2 29 C-2.33 29 -2.66 29 -3 29 C-2.86181468 25.52048477 -2.71317399 22.04149505 -2.5625 18.5625 C-2.52318359 17.56927734 -2.48386719 16.57605469 -2.44335938 15.55273438 C-2.40146484 14.60849609 -2.35957031 13.66425781 -2.31640625 12.69140625 C-2.27974854 11.81685791 -2.24309082 10.94230957 -2.20532227 10.04125977 C-2 8 -2 8 -1 7 C-0.63239269 4.67182036 -0.29758419 2.3381615 0 0 Z " fill="#693105" transform="translate(167,243)"/>
<path d="M0 0 C3.6875 0.3125 3.6875 0.3125 6.125 1.875 C8.2123128 5.13120797 7.9790423 7.52245016 7.6875 11.3125 C6.6975 11.8075 6.6975 11.8075 5.6875 12.3125 C5.6875 10.3325 5.6875 8.3525 5.6875 6.3125 C4.6975 7.7975 4.6975 7.7975 3.6875 9.3125 C3.0275 8.9825 2.3675 8.6525 1.6875 8.3125 C1.6875 7.3225 1.6875 6.3325 1.6875 5.3125 C1.0275 4.9825 0.3675 4.6525 -0.3125 4.3125 C-0.3125 3.6525 -0.3125 2.9925 -0.3125 2.3125 C-1.6325 1.9825 -2.9525 1.6525 -4.3125 1.3125 C-3.3125 0.3125 -3.3125 0.3125 0 0 Z " fill="#6E3405" transform="translate(188.3125,239.6875)"/>
<path d="M0 0 C0.66 0 1.32 0 2 0 C1.01 8.25 0.02 16.5 -1 25 C-1.66 24.67 -2.32 24.34 -3 24 C-2.58994384 15.80966773 -2.0946225 7.95956551 0 0 Z " fill="#6A3201" transform="translate(149,285)"/>
<path d="M0 0 C0.33 0 0.66 0 1 0 C1.19425873 2.79134852 1.38069517 5.58283687 1.5625 8.375 C1.61857422 9.1690625 1.67464844 9.963125 1.73242188 10.78125 C2.11328125 16.7734375 2.11328125 16.7734375 1 19 C0.64386903 20.66194453 0.30791692 22.328451 0 24 C-0.88201654 20.64995551 -1.56379821 17.28233729 -2.1875 13.875 C-2.38730469 12.82054687 -2.58710938 11.76609375 -2.79296875 10.6796875 C-2.86128906 9.79539063 -2.92960937 8.91109375 -3 8 C-2.34 7.34 -1.68 6.68 -1 6 C-0.60235737 4.01178687 -0.26224651 2.01055661 0 0 Z " fill="#824B0C" transform="translate(355,164)"/>
<path d="M0 0 C0.33 0 0.66 0 1 0 C1 4.62 1 9.24 1 14 C-3.62 14 -8.24 14 -13 14 C-12.34 13.01 -11.68 12.02 -11 11 C-7.7 11.33 -4.4 11.66 -1 12 C-0.67 8.04 -0.34 4.08 0 0 Z " fill="#CE7A37" transform="translate(231,328)"/>
<path d="M0 0 C15.74487472 -0.3690205 15.74487472 -0.3690205 23 2 C23 2.33 23 2.66 23 3 C22.06027344 2.98259766 22.06027344 2.98259766 21.1015625 2.96484375 C19.87566406 2.95130859 19.87566406 2.95130859 18.625 2.9375 C17.40683594 2.92009766 17.40683594 2.92009766 16.1640625 2.90234375 C13.95062858 2.85533666 13.95062858 2.85533666 12 4 C10.00039988 4.039992 7.99952758 4.04346799 6 4 C6.33 3.34 6.66 2.68 7 2 C4.69 1.67 2.38 1.34 0 1 C0 0.67 0 0.34 0 0 Z " fill="#6A3003" transform="translate(253,222)"/>
<path d="M0 0 C0.33 0 0.66 0 1 0 C1.2475 1.258125 1.495 2.51625 1.75 3.8125 C2.46676401 6.68972291 2.79652025 7.79652025 4.9375 9.9375 C7.10169247 11.11908489 7.10169247 11.11908489 10 12 C9.67 12.99 9.34 13.98 9 15 C6.69 15 4.38 15 2 15 C2.226875 14.401875 2.45375 13.80375 2.6875 13.1875 C2.790625 12.465625 2.89375 11.74375 3 11 C2.525625 10.5875 2.05125 10.175 1.5625 9.75 C-1.01912975 6.85857468 -0.18509106 3.76351815 0 0 Z " fill="#DD7D33" transform="translate(174,297)"/>
<path d="M0 0 C0.66 0.99 1.32 1.98 2 3 C1.34 4.32 0.68 5.64 0 7 C-0.66 7 -1.32 7 -2 7 C-3.65 10.3 -5.3 13.6 -7 17 C-8.12811973 12.48752108 -7.80978057 11.86173712 -5.75 7.9375 C-5.31171875 7.08027344 -4.8734375 6.22304688 -4.421875 5.33984375 C-3.12125426 3.19953654 -1.85425788 1.66337839 0 0 Z " fill="#DB7F3B" transform="translate(228,250)"/>
<path d="M0 0 C3.08137704 3.08137704 2.97281954 6.07260266 3.09765625 10.33203125 C3.08605469 11.48058594 3.07445312 12.62914062 3.0625 13.8125 C3.05347656 14.97394531 3.04445313 16.13539063 3.03515625 17.33203125 C3.02355469 18.21246094 3.01195312 19.09289062 3 20 C-0.37703759 13.5479363 -0.12675431 7.12640873 0 0 Z " fill="#6E3704" transform="translate(363,234)"/>
<path d="M0 0 C0.33 0 0.66 0 1 0 C1.33 4.29 1.66 8.58 2 13 C1.34 12.34 0.68 11.68 0 11 C0 13.64 0 16.28 0 19 C-2.34171739 16.65828261 -2.391923 15.76939546 -2.75 12.5625 C-2.84796875 11.78003906 -2.9459375 10.99757813 -3.046875 10.19140625 C-3 8 -3 8 -1 5 C-0.61500109 3.34450469 -0.27206865 1.6777567 0 0 Z " fill="#885410" transform="translate(366,38)"/>
<path d="M0 0 C2 2 2 2 2.22705078 3.97119141 C2.21657715 4.75671387 2.20610352 5.54223633 2.1953125 6.3515625 C2.18886719 7.20234375 2.18242187 8.053125 2.17578125 8.9296875 C2.15902344 9.81914063 2.14226562 10.70859375 2.125 11.625 C2.11597656 12.5221875 2.10695313 13.419375 2.09765625 14.34375 C2.0740497 16.56276586 2.0411231 18.78125077 2 21 C1.67 21 1.34 21 1 21 C1 18.69 1 16.38 1 14 C0.34 14 -0.32 14 -1 14 C-0.67 9.38 -0.34 4.76 0 0 Z " fill="#8D540B" transform="translate(286,26)"/>
<path d="M0 0 C0.66 1.32 1.32 2.64 2 4 C1.01 4.33 0.02 4.66 -1 5 C-0.979375 6.2375 -0.95875 7.475 -0.9375 8.75 C-0.93233319 11.6640825 -1.06984442 14.20953327 -2 17 C-2.66 17 -3.32 17 -4 17 C-5.63039454 10.61428804 -4.1543816 6.69744894 -1 1 C-0.67 0.67 -0.34 0.34 0 0 Z " fill="#D67A36" transform="translate(134,407)"/>
<path d="M0 0 C0.99 0.33 1.98 0.66 3 1 C3 1.66 3 2.32 3 3 C4.423125 2.690625 4.423125 2.690625 5.875 2.375 C6.90625 2.25125 7.9375 2.1275 9 2 C9.66 2.66 10.32 3.32 11 4 C10.43410156 4.12117188 9.86820313 4.24234375 9.28515625 4.3671875 C8.55167969 4.53476562 7.81820312 4.70234375 7.0625 4.875 C5.96615234 5.11863281 5.96615234 5.11863281 4.84765625 5.3671875 C2.79299706 5.82961523 2.79299706 5.82961523 2 8 C-0.1519437 4.77208445 -0.20086443 3.71599191 0 0 Z " fill="#D97A2F" transform="translate(174,288)"/>
<path d="M0 0 C0.99 0.33 1.98 0.66 3 1 C3 1.99 3 2.98 3 4 C3.66 4.33 4.32 4.66 5 5 C3.515 11.435 3.515 11.435 2 18 C1.67 18 1.34 18 1 18 C1 14.7 1 11.4 1 8 C0.67 8 0.34 8 0 8 C0 5.36 0 2.72 0 0 Z " fill="#7C4B0F" transform="translate(160,194)"/>
<path d="M0 0 C0.33 0 0.66 0 1 0 C1.0515625 0.86882812 1.103125 1.73765625 1.15625 2.6328125 C1.66296502 9.43801999 1.66296502 9.43801999 4.9140625 15.19921875 C6.88860685 16.64000818 8.82333426 17.89141907 11 19 C6.96576366 19 4.06071644 17.52568117 1 15 C-0.63916102 10.30107174 -0.09914646 4.95732288 0 0 Z " fill="#B06C1B" transform="translate(377,328)"/>
<path d="M0 0 C4 0 4 0 6.625 2.25 C8.60811857 4.54624256 9.67524902 6.35049804 11 9 C11.99 9.33 12.98 9.66 14 10 C13.67 11.32 13.34 12.64 13 14 C12.34 14 11.68 14 11 14 C9.921875 12.42578125 9.921875 12.42578125 8.75 10.3125 C6.33318028 6.24358561 3.73185324 3.86398039 0 1 C0 0.67 0 0.34 0 0 Z " fill="#D97E38" transform="translate(274,253)"/>
<path d="M0 0 C0.33 0 0.66 0 1 0 C0.67 2.31 0.34 4.62 0 7 C-0.99 7.33 -1.98 7.66 -3 8 C-5.1875 6.5625 -5.1875 6.5625 -7 5 C-6.34 3.68 -5.68 2.36 -5 1 C-4.34 1 -3.68 1 -3 1 C-2.67 1.33 -2.34 1.66 -2 2 C-1.34 1.34 -0.68 0.68 0 0 Z " fill="#7A450F" transform="translate(194,245)"/>
<path d="M0 0 C0.33 0.66 0.66 1.32 1 2 C-0.98 2 -2.96 2 -5 2 C-6.19988045 7.28199593 -6.19988045 7.28199593 -4 12 C-5.9375 11.3125 -5.9375 11.3125 -8 10 C-9.05683569 7.131446 -9.2299767 5.63685855 -8.1875 2.75 C-5.98699268 -0.49285289 -3.65285928 -0.09612788 0 0 Z " fill="#794615" transform="translate(191,241)"/>
<path d="M0 0 C6.34588709 0.29379107 11.66333608 1.39230628 17 5 C17.33 5.66 17.66 6.32 18 7 C15.525 6.505 15.525 6.505 13 6 C13 5.34 13 4.68 13 4 C12.071875 4.309375 12.071875 4.309375 11.125 4.625 C10.42375 4.74875 9.7225 4.8725 9 5 C8.34 4.34 7.68 3.68 7 3 C4.67724823 2.59952556 2.34260643 2.2602896 0 2 C0 1.34 0 0.68 0 0 Z " fill="#DC823D" transform="translate(266,237)"/>
<path d="M0 0 C-0.969375 0.4125 -1.93875 0.825 -2.9375 1.25 C-6.12260099 2.64899168 -6.12260099 2.64899168 -6.875 5.1875 C-6.91625 5.785625 -6.9575 6.38375 -7 7 C-9.31 7 -11.62 7 -14 7 C-5.79310345 -1.93103448 -5.79310345 -1.93103448 0 0 Z " fill="#6D3407" transform="translate(240,227)"/>
<path d="M0 0 C0.33 0 0.66 0 1 0 C1.24979445 1.91408757 1.47408014 3.83151611 1.6875 5.75 C1.87892578 7.35101563 1.87892578 7.35101563 2.07421875 8.984375 C2 12 2 12 -1 16 C-1.33 12.37 -1.66 8.74 -2 5 C-1.67 5 -1.34 5 -1 5 C-0.67 3.35 -0.34 1.7 0 0 Z " fill="#804B0D" transform="translate(359,196)"/>
<path d="M0 0 C0.99 0.66 1.98 1.32 3 2 C1.55922954 5.36179774 -0.24750021 7.59156268 -3 10 C-3.66 10 -4.32 10 -5 10 C-5 10.66 -5 11.32 -5 12 C-5.66 11.67 -6.32 11.34 -7 11 C-5.12050295 7.42895561 -3.82946843 5.45255699 0 4 C0 2.68 0 1.36 0 0 Z " fill="#693702" transform="translate(129,389)"/>
<path d="M0 0 C0.33 0.66 0.66 1.32 1 2 C0.71125 2.70125 0.4225 3.4025 0.125 4.125 C-0.86878078 6.664662 -1.2670554 8.51881187 -1.5625 11.1875 C-2 15 -2 15 -3 17 C-3.66 17 -4.32 17 -5 17 C-4.53444296 10.59859065 -2.85288164 5.73230171 0 0 Z " fill="#8B5008" transform="translate(119,403)"/>
<path d="M0 0 C0.66 0 1.32 0 2 0 C2 0.99 2 1.98 2 3 C3.32 3.33 4.64 3.66 6 4 C6 4.33 6 4.66 6 5 C1.38 5 -3.24 5 -8 5 C-7.67 4.34 -7.34 3.68 -7 3 C-4.69 3 -2.38 3 0 3 C0 2.01 0 1.02 0 0 Z " fill="#D07933" transform="translate(296,337)"/>
<path d="M0 0 C0.33 1.32 0.66 2.64 1 4 C1.66 4 2.32 4 3 4 C3 8.95 3 13.9 3 19 C0.93636319 14.87272638 0.57832417 11.73160349 0.375 7.25 C0.33632813 6.55261719 0.29765625 5.85523438 0.2578125 5.13671875 C0.16401376 3.42489182 0.08093826 1.71248318 0 0 Z " fill="#713508" transform="translate(363,28)"/>
<path d="M0 0 C0.33 1.32 0.66 2.64 1 4 C-0.27875 3.690625 -1.5575 3.38125 -2.875 3.0625 C-7.88758722 1.93885167 -12.88510956 1.40577419 -18 1 C-18 0.67 -18 0.34 -18 0 C-15.93831015 -0.19620767 -13.87559002 -0.38160753 -11.8125 -0.5625 C-10.08966797 -0.71912109 -10.08966797 -0.71912109 -8.33203125 -0.87890625 C-5.31368801 -0.98859985 -2.91076064 -0.74002389 0 0 Z " fill="#894E12" transform="translate(285,22)"/>
<path d="M0 0 C3.22422376 2.94385647 3.94565374 5.00365185 4.1875 9.4375 C4.01604909 12.69506736 3.72122938 14.3105791 2 17 C0.68842484 14.37684968 1.10350012 12.76966564 1.4375 9.875 C1.53933594 8.96492188 1.64117187 8.05484375 1.74609375 7.1171875 C1.82988281 6.41851562 1.91367187 5.71984375 2 5 C1.34 5 0.68 5 0 5 C0 3.35 0 1.7 0 0 Z " fill="#D77F39" transform="translate(380,361)"/>
<path d="M0 0 C3.58102841 3.38208239 6.56773474 6.69676146 9 11 C8.67 11.99 8.34 12.98 8 14 C6 12 4 10 2 8 C2.33 7.34 2.66 6.68 3 6 C2.2575 5.071875 2.2575 5.071875 1.5 4.125 C0 2 0 2 0 0 Z " fill="#6F3307" transform="translate(301,241)"/>
<path d="M0 0 C2.475 0.495 2.475 0.495 5 1 C5.87867729 4.73437848 6.08912219 8.16774573 6 12 C5.01 12 4.02 12 3 12 C3.061875 10.7625 3.12375 9.525 3.1875 8.25 C3.20362826 5.21788698 3.10651023 4.17751704 1.5 1.5 C1.005 1.005 0.51 0.51 0 0 Z " fill="#D97D3B" transform="translate(319,186)"/>
<path d="M0 0 C0.99 0 1.98 0 3 0 C2.86722656 0.65226562 2.73445312 1.30453125 2.59765625 1.9765625 C1.65517178 6.6408287 0.74231297 11.29868454 0 16 C-0.33 16 -0.66 16 -1 16 C-2 9.375 -2 9.375 -2 6 C-1.01 5.67 -0.02 5.34 1 5 C0.67 3.35 0.34 1.7 0 0 Z " fill="#DD813C" transform="translate(205,256)"/>
<path d="M0 0 C0.66 0.33 1.32 0.66 2 1 C-3 5 -8 9 -13 13 C-10.78947717 7.77512786 -7.60358289 3.97472685 -2.8125 1.0625 C-1.4203125 0.5365625 -1.4203125 0.5365625 0 0 Z " fill="#D8823C" transform="translate(229,229)"/>
<path d="M0 0 C0.721875 0.78375 1.44375 1.5675 2.1875 2.375 C4.83299041 4.84412438 6.60373611 5.93260278 10 7 C9.34 8.32 8.68 9.64 8 11 C4.22471696 9.74157232 3.89332955 8.37506571 2 5 C1.34 4.34 0.68 3.68 0 3 C0 2.01 0 1.02 0 0 Z " fill="#D97D38" transform="translate(195,68)"/>
<path d="M0 0 C0.33 0 0.66 0 1 0 C1.24878997 2.43694274 1.47463404 4.87238389 1.6875 7.3125 C1.79674805 8.34793945 1.79674805 8.34793945 1.90820312 9.40429688 C2.33135078 14.55674183 2.33135078 14.55674183 0.51953125 16.98046875 C0.01808594 17.31691406 -0.48335937 17.65335938 -1 18 C-1.09945415 11.88909517 -1.0712828 6.02596573 0 0 Z " fill="#92560A" transform="translate(149,62)"/>
<path d="M0 0 C2.3125 0.1875 2.3125 0.1875 5 1 C7.99179956 4.61079257 8.32120156 7.39611104 8 12 C7.67 10.68 7.34 9.36 7 8 C6.34 8 5.68 8 5 8 C4.54625 7.05125 4.0925 6.1025 3.625 5.125 C2.19761746 1.99686321 2.19761746 1.99686321 0 0 Z " fill="#8E560B" transform="translate(357,20)"/>
<path d="M0 0 C0.33 0 0.66 0 1 0 C0.88556397 2.0839403 0.75804453 4.16716493 0.625 6.25 C0.55539063 7.41015625 0.48578125 8.5703125 0.4140625 9.765625 C0.03751692 12.70694334 -0.4774123 14.49949011 -2 17 C-2.3690205 5.47835991 -2.3690205 5.47835991 0 0 Z " fill="#643202" transform="translate(161,198)"/>
<path d="M0 0 C-0.33 1.32 -0.66 2.64 -1 4 C-1.66 4 -2.32 4 -3 4 C-3.33 5.32 -3.66 6.64 -4 8 C-4.33 8 -4.66 8 -5 8 C-5.33 5.36 -5.66 2.72 -6 0 C-3 -1 -3 -1 0 0 Z " fill="#774613" transform="translate(313,188)"/>
<path d="M0 0 C0.99 0.33 1.98 0.66 3 1 C2.21625 1.598125 1.4325 2.19625 0.625 2.8125 C-2.14574323 4.91085249 -2.14574323 4.91085249 -4 8 C-6.625 8.6875 -6.625 8.6875 -9 9 C-9 8.34 -9 7.68 -9 7 C-7.02053408 5.63636792 -5.0180755 4.30581356 -3 3 C-1.20605554 1.37648891 -1.20605554 1.37648891 0 0 Z " fill="#DA8037" transform="translate(325,68)"/>
<path d="M0 0 C2.475 0.99 2.475 0.99 5 2 C5.33 5.63 5.66 9.26 6 13 C4.02 13.99 4.02 13.99 2 15 C2.33 14.01 2.66 13.02 3 12 C3.48582041 6.4560617 3.48582041 6.4560617 1.5 1.5 C1.005 1.005 0.51 0.51 0 0 Z " fill="#CF7C3C" transform="translate(187,292)"/>
<path d="M0 0 C0.66 0 1.32 0 2 0 C2 0.66 2 1.32 2 2 C2.99 2.33 3.98 2.66 5 3 C5.73046875 5.06640625 5.73046875 5.06640625 6.1875 7.5625 C6.34605469 8.38878906 6.50460937 9.21507812 6.66796875 10.06640625 C6.77753906 10.70449219 6.88710938 11.34257812 7 12 C4.67527795 9.14693203 3.2491742 6.45925163 2 3 C1.34 3 0.68 3 0 3 C0 2.01 0 1.02 0 0 Z " fill="#653802" transform="translate(394,397)"/>
<path d="M0 0 C0.99 0 1.98 0 3 0 C2.67 4.62 2.34 9.24 2 14 C1.67 14 1.34 14 1 14 C0.67 9.38 0.34 4.76 0 0 Z " fill="#6F3405" transform="translate(341,164)"/>
<path d="M0 0 C0.33 0 0.66 0 1 0 C2.12862175 5.36095333 2.09688221 10.55306686 2 16 C1.67 16 1.34 16 1 16 C0.855625 15.2575 0.71125 14.515 0.5625 13.75 C0.08192737 11.12109407 0.08192737 11.12109407 -0.625 9.125 C-1.18077402 5.97561391 -0.54086504 3.12499801 0 0 Z " fill="#895109" transform="translate(366,247)"/>
<path d="M0 0 C0.33 0.99 0.66 1.98 1 3 C-0.20703125 4.51953125 -0.20703125 4.51953125 -2 6 C-4.26171875 6.07421875 -4.26171875 6.07421875 -6.6875 5.6875 C-7.49574219 5.56761719 -8.30398438 5.44773438 -9.13671875 5.32421875 C-9.75160156 5.21722656 -10.36648438 5.11023438 -11 5 C-11 4.67 -11 4.34 -11 4 C-10.37351562 3.87882813 -9.74703125 3.75765625 -9.1015625 3.6328125 C-8.28429687 3.46523437 -7.46703125 3.29765625 -6.625 3.125 C-5.81289063 2.96257812 -5.00078125 2.80015625 -4.1640625 2.6328125 C-1.81326077 2.13341068 -1.81326077 2.13341068 0 0 Z " fill="#DA8441" transform="translate(267,197)"/>
<path d="M0 0 C0.33 0 0.66 0 1 0 C1.08333357 4.8333472 0.95261487 9.23692563 0 14 C-0.66 14 -1.32 14 -2 14 C-2 11.36 -2 8.72 -2 6 C-1.34 6 -0.68 6 0 6 C0 4.02 0 2.04 0 0 Z " fill="#6E3703" transform="translate(164,174)"/>
<path d="M0 0 C1.32 0 2.64 0 4 0 C4.99 3.63 5.98 7.26 7 11 C4.42355713 8.42355713 3.31230641 6.96726521 1.8125 3.8125 C1.46832031 3.09707031 1.12414062 2.38164063 0.76953125 1.64453125 C0.51558594 1.10183594 0.26164063 0.55914062 0 0 Z " fill="#D7803C" transform="translate(165,123)"/>
<path d="M0 0 C0.99 0.495 0.99 0.495 2 1 C2 1.66 2 2.32 2 3 C2.99 2.67 3.98 2.34 5 2 C5 5.63 5 9.26 5 13 C3.09610151 10.14415227 2.30537823 8.0688238 1.375 4.8125 C0.98441406 3.46091797 0.98441406 3.46091797 0.5859375 2.08203125 C0.39257812 1.39496094 0.19921875 0.70789063 0 0 Z " fill="#6B3302" transform="translate(387,408)"/>
<path d="M0 0 C0.99 0.33 1.98 0.66 3 1 C0.03 4.96 0.03 4.96 -3 9 C-4 7 -4 7 -3.1875 4.5 C-2 2 -2 2 0 0 Z " fill="#6F3D05" transform="translate(129,350)"/>
<path d="M0 0 C0.78375 0.04125 1.5675 0.0825 2.375 0.125 C-0.95833333 2.79166667 -4.29166667 5.45833333 -7.625 8.125 C-7.625 6.805 -7.625 5.485 -7.625 4.125 C-6.635 4.125 -5.645 4.125 -4.625 4.125 C-4.625 3.465 -4.625 2.805 -4.625 2.125 C-2.625 0.125 -2.625 0.125 0 0 Z " fill="#D87E3E" transform="translate(245.625,251.875)"/>
<path d="M0 0 C0.66 0 1.32 0 2 0 C3.28571429 8.42857143 3.28571429 8.42857143 2 13 C1.67 13 1.34 13 1 13 C-0.10228696 8.59085217 -0.07654536 4.51617599 0 0 Z " fill="#742C00" transform="translate(361,219)"/>
<path d="M0 0 C0.33 0 0.66 0 1 0 C2.03590199 5.05002222 2.10251672 9.87416389 2 15 C-0.19219402 12.63310671 -0.9871902 11.48272731 -1.07421875 8.203125 C-0.88279297 6.74132812 -0.88279297 6.74132812 -0.6875 5.25 C-0.50767578 3.77273437 -0.50767578 3.77273437 -0.32421875 2.265625 C-0.21722656 1.51796875 -0.11023438 0.7703125 0 0 Z " fill="#895007" transform="translate(357,181)"/>
<path d="M0 0 C0.66 0.33 1.32 0.66 2 1 C1.67 3.97 1.34 6.94 1 10 C0.34 10 -0.32 10 -1 10 C-0.67 6.7 -0.34 3.4 0 0 Z " fill="#D27730" transform="translate(219,266)"/>
<path d="M0 0 C0.33 0 0.66 0 1 0 C2.0006709 5.96345767 2.0662997 10.28728907 0 16 C-0.33 16 -0.66 16 -1 16 C-1.09688221 10.55306686 -1.12862175 5.36095333 0 0 Z " fill="#8D4F0A" transform="translate(155,232)"/>
<path d="M0 0 C0.2475 0.639375 0.495 1.27875 0.75 1.9375 C1.79688294 4.19895007 1.79688294 4.19895007 4.0625 4.5625 C5.0215625 4.7790625 5.0215625 4.7790625 6 5 C6.33 5.99 6.66 6.98 7 8 C3 8 3 8 1.3125 6.75 C-0.14287988 4.80949349 -0.68060528 3.39546038 -1 1 C-0.67 0.67 -0.34 0.34 0 0 Z " fill="#6F3605" transform="translate(196,65)"/>
<path d="M0 0 C0.33 1.32 0.66 2.64 1 4 C1.66 4 2.32 4 3 4 C3 6.64 3 9.28 3 12 C2.34 12 1.68 12 1 12 C0.67 8.04 0.34 4.08 0 0 Z " fill="#784812" transform="translate(356,56)"/>
<path d="M0 0 C0.33 0 0.66 0 1 0 C1 2.64 1 5.28 1 8 C-1.62315032 9.31157516 -3.23033436 8.89649988 -6.125 8.5625 C-7.49011719 8.40974609 -7.49011719 8.40974609 -8.8828125 8.25390625 C-9.58148438 8.17011719 -10.28015625 8.08632813 -11 8 C-11 7.67 -11 7.34 -11 7 C-7.7 6.67 -4.4 6.34 -1 6 C-0.67 4.02 -0.34 2.04 0 0 Z " fill="#774713" transform="translate(304,336)"/>
<path d="M0 0 C0.66 0 1.32 0 2 0 C2 0.66 2 1.32 2 2 C3.175625 2.185625 3.175625 2.185625 4.375 2.375 C7 3 7 3 9 5 C6.69 5.33 4.38 5.66 2 6 C1.34 4.02 0.68 2.04 0 0 Z " fill="#784513" transform="translate(177,302)"/>
<path d="M0 0 C4.6875 3.515625 4.6875 3.515625 6 5 C6 6.32 6 7.64 6 9 C5.34 9 4.68 9 4 9 C0 2.25 0 2.25 0 0 Z " fill="#6D3507" transform="translate(294,252)"/>
<path d="M0 0 C0.89203125 0.01804688 1.7840625 0.03609375 2.703125 0.0546875 C3.71632813 0.08949219 3.71632813 0.08949219 4.75 0.125 C4.75 0.455 4.75 0.785 4.75 1.125 C3.8425 1.269375 2.935 1.41375 2 1.5625 C-1.08637729 2.03284596 -1.08637729 2.03284596 -3.375 2.75 C-5.61687823 3.19837565 -7.09452828 2.8178302 -9.25 2.125 C-6.03817851 0.21891902 -3.71117397 -0.09766247 0 0 Z " fill="#692D03" transform="translate(259.25,249.875)"/>
<path d="M0 0 C0 3.38023517 -0.87455622 5.83468937 -2 9 C-2.99 9 -3.98 9 -5 9 C-3.90931332 5.22454612 -3.0916909 2.52956528 0 0 Z " fill="#6C3106" transform="translate(240,258)"/>
<path d="M0 0 C-0.33 1.32 -0.66 2.64 -1 4 C-1.99 3.67 -2.98 3.34 -4 3 C-4 3.66 -4 4.32 -4 5 C-4.66 4.67 -5.32 4.34 -6 4 C-5.67 3.34 -5.34 2.68 -5 2 C-5.99 1.67 -6.98 1.34 -8 1 C-2.25 0 -2.25 0 0 0 Z " fill="#D6782C" transform="translate(189,307)"/>
<path d="M0 0 C3.81684226 1.55500981 6.19195732 4.03595495 9 7 C8.67 7.66 8.34 8.32 8 9 C6.66079162 7.88200014 5.32877444 6.75538103 4 5.625 C2.88625 4.68527344 2.88625 4.68527344 1.75 3.7265625 C1.1725 3.15679687 0.595 2.58703125 0 2 C0 1.34 0 0.68 0 0 Z " fill="#D88240" transform="translate(284,244)"/>
<path d="M0 0 C0.99 0 1.98 0 3 0 C2.34 2.97 1.68 5.94 1 9 C0.67 9 0.34 9 0 9 C0 6.03 0 3.06 0 0 Z " fill="#893402" transform="translate(403,466)"/>
<path d="M0 0 C1.5625 1.5 1.5625 1.5 3 4 C2.96823234 6.77437543 2.50364148 9.25286467 2 12 C-0.60018816 8.09971775 -0.15085514 4.52565431 0 0 Z " fill="#692D04" transform="translate(362,316)"/>
<path d="M0 0 C0.33 0 0.66 0 1 0 C1.33 3.3 1.66 6.6 2 10 C1.01 10 0.02 10 -1 10 C-0.67 6.7 -0.34 3.4 0 0 Z " fill="#7E4616" transform="translate(172,198)"/>
<path d="M0 0 C1.485 0.99 1.485 0.99 3 2 C3 2.66 3 3.32 3 4 C3.66 4 4.32 4 5 4 C4.67 4.99 4.34 5.98 4 7 C2 5.75 2 5.75 0 4 C0 2.68 0 1.36 0 0 Z " fill="#773100" transform="translate(118,475)"/>
</svg>
